G75*
G70*
%OFA0B0*%
%FSLAX24Y24*%
%IPPOS*%
%LPD*%
%AMOC8*
5,1,8,0,0,1.08239X$1,22.5*
%
%ADD10C,0.0660*%
%ADD11R,0.0260X0.0591*%
%ADD12C,0.0700*%
%ADD13C,0.1502*%
%ADD14R,0.0740X0.0740*%
%ADD15C,0.0740*%
%ADD16C,0.0600*%
%ADD17C,0.0160*%
%ADD18C,0.0120*%
%ADD19C,0.0239*%
D10*
X003125Y003277D03*
X003900Y002522D03*
X003125Y004277D03*
X003125Y005277D03*
X003125Y006277D03*
X003125Y007277D03*
X003125Y008277D03*
X003125Y009277D03*
X003125Y010277D03*
X003703Y011184D03*
X012125Y010277D03*
X012125Y009277D03*
X012125Y008277D03*
X012125Y007277D03*
X012125Y006277D03*
X012125Y005277D03*
X012125Y004277D03*
X012125Y003277D03*
X011380Y002522D03*
D11*
X011156Y011085D03*
X011656Y011085D03*
X012156Y011085D03*
X012656Y011085D03*
X013156Y011085D03*
X013156Y012493D03*
X012656Y012493D03*
X012156Y012493D03*
X011656Y012493D03*
X011156Y012493D03*
D12*
X013447Y006487D03*
X013447Y005491D03*
X013447Y004491D03*
X013447Y003487D03*
X013443Y002487D03*
X001817Y003487D03*
X001817Y004491D03*
X001817Y005487D03*
X001814Y006491D03*
D13*
X005081Y007640D03*
X005081Y004688D03*
X007640Y003211D03*
X010199Y004688D03*
X010199Y007640D03*
D14*
X006125Y000902D03*
D15*
X007125Y000902D03*
X008125Y000902D03*
X009125Y000902D03*
D16*
X001838Y009995D02*
X001238Y009995D01*
X001238Y010995D02*
X001838Y010995D01*
D17*
X001546Y010987D02*
X001538Y010995D01*
X001546Y010987D02*
X002227Y010987D01*
X002424Y010790D01*
X002424Y010003D01*
X003125Y009302D01*
X003125Y009277D01*
X003750Y009277D01*
X004375Y009902D01*
X004375Y011902D01*
X005625Y013152D01*
X012365Y013152D01*
X012375Y013152D01*
X012656Y012871D01*
X012656Y012493D01*
X012656Y011085D01*
X012656Y010695D01*
X013447Y009904D01*
X013447Y009707D01*
X012125Y009277D02*
X012125Y009258D01*
X014038Y007345D01*
X014038Y006066D01*
X013447Y005475D01*
X013447Y005491D01*
X012758Y004983D02*
X012758Y007640D01*
X012125Y008274D01*
X012125Y008277D02*
X011750Y008277D01*
X011113Y007640D01*
X010199Y007640D01*
X011750Y008277D02*
X009875Y010152D01*
X009875Y011527D01*
X010840Y012493D01*
X011156Y012493D01*
X011656Y012493D02*
X011656Y012086D01*
X011384Y011814D01*
X010662Y011814D01*
X010250Y011402D01*
X010250Y010277D01*
X011250Y009277D01*
X012125Y009277D01*
X011098Y011027D02*
X010625Y011027D01*
X011098Y011027D02*
X011156Y011085D01*
X009510Y011027D02*
X005125Y011027D01*
X004750Y010652D01*
X004750Y009527D01*
X003500Y008277D01*
X003125Y008277D01*
X003125Y007277D02*
X003082Y007277D01*
X001538Y008821D01*
X001538Y009995D01*
X003092Y010277D02*
X003125Y010277D01*
X003125Y011402D01*
X005375Y013652D01*
X012625Y013652D01*
X013156Y013121D01*
X013156Y012493D01*
X013156Y011085D01*
X012758Y004983D02*
X013201Y004540D01*
X012758Y004097D01*
X012758Y001932D01*
X011729Y000902D01*
X009125Y000902D01*
X007125Y000902D02*
X007125Y001266D01*
X006853Y001538D01*
X005081Y001538D01*
X005081Y004688D01*
X002522Y005782D02*
X002522Y002325D01*
X003310Y001538D01*
X005081Y001538D01*
X007640Y003211D02*
X011059Y003211D01*
X012125Y004277D01*
X013251Y004491D02*
X013447Y004491D01*
X002522Y005782D02*
X001814Y006491D01*
D18*
X000620Y012216D02*
X000620Y000620D01*
X004195Y000620D01*
X004195Y001238D01*
X003250Y001238D01*
X003140Y001284D01*
X002352Y002071D01*
X002268Y002155D01*
X002222Y002266D01*
X002222Y003085D01*
X002140Y003004D01*
X001931Y002917D01*
X001704Y002917D01*
X001495Y003004D01*
X001334Y003164D01*
X001247Y003373D01*
X001247Y003600D01*
X001334Y003810D01*
X001495Y003970D01*
X001540Y003989D01*
X001495Y004007D01*
X001334Y004168D01*
X001247Y004377D01*
X001247Y004604D01*
X001334Y004814D01*
X001495Y004974D01*
X001608Y005021D01*
X001550Y005051D01*
X001485Y005098D01*
X001428Y005155D01*
X001381Y005219D01*
X001345Y005291D01*
X001320Y005367D01*
X001307Y005447D01*
X001307Y005458D01*
X001789Y005458D01*
X001789Y005515D01*
X001307Y005515D01*
X001307Y005527D01*
X001320Y005606D01*
X001345Y005683D01*
X001381Y005754D01*
X001428Y005819D01*
X001485Y005876D01*
X001550Y005923D01*
X001615Y005956D01*
X001491Y006007D01*
X001330Y006168D01*
X001244Y006377D01*
X001244Y006604D01*
X001330Y006814D01*
X001491Y006974D01*
X001700Y007061D01*
X001927Y007061D01*
X002136Y006974D01*
X002297Y006814D01*
X002384Y006604D01*
X002384Y006377D01*
X002374Y006354D01*
X002584Y006144D01*
X002575Y006168D01*
X002575Y006387D01*
X002658Y006589D01*
X002813Y006743D01*
X002894Y006777D01*
X002813Y006811D01*
X002658Y006966D01*
X002575Y007168D01*
X002575Y007361D01*
X001284Y008651D01*
X001238Y008762D01*
X001238Y009475D01*
X001135Y009475D01*
X000943Y009554D01*
X000797Y009700D01*
X000718Y009891D01*
X000718Y010098D01*
X000797Y010289D01*
X000943Y010435D01*
X001135Y010515D01*
X001941Y010515D01*
X002133Y010435D01*
X002279Y010289D01*
X002358Y010098D01*
X002358Y009891D01*
X002279Y009700D01*
X002133Y009554D01*
X001941Y009475D01*
X001838Y009475D01*
X001838Y008946D01*
X002575Y008209D01*
X002575Y008387D01*
X002658Y008589D01*
X002813Y008743D01*
X002975Y008810D01*
X002936Y008823D01*
X002868Y008858D01*
X002805Y008903D01*
X002751Y008958D01*
X002705Y009020D01*
X002670Y009089D01*
X002647Y009162D01*
X002635Y009237D01*
X003085Y009237D01*
X003085Y009317D01*
X002635Y009317D01*
X002647Y009392D01*
X002670Y009465D01*
X002705Y009534D01*
X002751Y009596D01*
X002805Y009651D01*
X002868Y009696D01*
X002936Y009731D01*
X002975Y009744D01*
X002813Y009811D01*
X002658Y009966D01*
X002575Y010168D01*
X002575Y010387D01*
X002658Y010589D01*
X002813Y010743D01*
X002825Y010748D01*
X002825Y011462D01*
X002870Y011572D01*
X002955Y011656D01*
X002955Y011656D01*
X004975Y013676D01*
X001789Y013676D01*
X001858Y013608D01*
X002003Y013258D01*
X002003Y012879D01*
X001858Y012529D01*
X001590Y012261D01*
X001240Y012117D01*
X000861Y012117D01*
X000620Y012216D01*
X000620Y012208D02*
X000641Y012208D01*
X000620Y012089D02*
X003387Y012089D01*
X003269Y011971D02*
X000620Y011971D01*
X000620Y011852D02*
X003150Y011852D01*
X003032Y011734D02*
X000620Y011734D01*
X000620Y011615D02*
X002913Y011615D01*
X002839Y011497D02*
X000620Y011497D01*
X000620Y011378D02*
X000983Y011378D01*
X000997Y011388D02*
X000938Y011346D01*
X000887Y011294D01*
X000845Y011236D01*
X000812Y011171D01*
X000789Y011102D01*
X000779Y011035D01*
X001498Y011035D01*
X001498Y011455D01*
X001202Y011455D01*
X001130Y011443D01*
X001061Y011421D01*
X000997Y011388D01*
X000862Y011260D02*
X000620Y011260D01*
X000620Y011141D02*
X000802Y011141D01*
X000779Y010955D02*
X000789Y010887D01*
X000812Y010818D01*
X000845Y010754D01*
X000887Y010695D01*
X000938Y010644D01*
X000997Y010601D01*
X001061Y010568D01*
X001130Y010546D01*
X001202Y010535D01*
X001498Y010535D01*
X001498Y010955D01*
X000779Y010955D01*
X000787Y010904D02*
X000620Y010904D01*
X000620Y010786D02*
X000828Y010786D01*
X000915Y010667D02*
X000620Y010667D01*
X000620Y010549D02*
X001122Y010549D01*
X000938Y010430D02*
X000620Y010430D01*
X000620Y010312D02*
X000820Y010312D01*
X000757Y010193D02*
X000620Y010193D01*
X000620Y010075D02*
X000718Y010075D01*
X000718Y009956D02*
X000620Y009956D01*
X000620Y009838D02*
X000740Y009838D01*
X000789Y009719D02*
X000620Y009719D01*
X000620Y009601D02*
X000897Y009601D01*
X001116Y009482D02*
X000620Y009482D01*
X000620Y009364D02*
X001238Y009364D01*
X001238Y009245D02*
X000620Y009245D01*
X000620Y009127D02*
X001238Y009127D01*
X001238Y009008D02*
X000620Y009008D01*
X000620Y008890D02*
X001238Y008890D01*
X001238Y008771D02*
X000620Y008771D01*
X000620Y008653D02*
X001283Y008653D01*
X001401Y008534D02*
X000620Y008534D01*
X000620Y008416D02*
X001519Y008416D01*
X001638Y008297D02*
X000620Y008297D01*
X000620Y008179D02*
X001756Y008179D01*
X001875Y008060D02*
X000620Y008060D01*
X000620Y007942D02*
X001993Y007942D01*
X002112Y007823D02*
X000620Y007823D01*
X000620Y007705D02*
X002230Y007705D01*
X002349Y007586D02*
X000620Y007586D01*
X000620Y007468D02*
X002467Y007468D01*
X002575Y007349D02*
X000620Y007349D01*
X000620Y007231D02*
X002575Y007231D01*
X002598Y007112D02*
X000620Y007112D01*
X000620Y006994D02*
X001538Y006994D01*
X001392Y006875D02*
X000620Y006875D01*
X000620Y006757D02*
X001307Y006757D01*
X001258Y006638D02*
X000620Y006638D01*
X000620Y006520D02*
X001244Y006520D01*
X001244Y006401D02*
X000620Y006401D01*
X000620Y006283D02*
X001283Y006283D01*
X001334Y006164D02*
X000620Y006164D01*
X000620Y006046D02*
X001452Y006046D01*
X001558Y005927D02*
X000620Y005927D01*
X000620Y005809D02*
X001421Y005809D01*
X001349Y005690D02*
X000620Y005690D01*
X000620Y005572D02*
X001315Y005572D01*
X001307Y005453D02*
X000620Y005453D01*
X000620Y005335D02*
X001331Y005335D01*
X001384Y005216D02*
X000620Y005216D01*
X000620Y005098D02*
X001485Y005098D01*
X001507Y004979D02*
X000620Y004979D01*
X000620Y004861D02*
X001381Y004861D01*
X001305Y004742D02*
X000620Y004742D01*
X000620Y004624D02*
X001256Y004624D01*
X001247Y004505D02*
X000620Y004505D01*
X000620Y004387D02*
X001247Y004387D01*
X001293Y004268D02*
X000620Y004268D01*
X000620Y004150D02*
X001352Y004150D01*
X001471Y004031D02*
X000620Y004031D01*
X000620Y003913D02*
X001437Y003913D01*
X001328Y003794D02*
X000620Y003794D01*
X000620Y003676D02*
X001279Y003676D01*
X001247Y003557D02*
X000620Y003557D01*
X000620Y003439D02*
X001247Y003439D01*
X001270Y003320D02*
X000620Y003320D01*
X000620Y003202D02*
X001319Y003202D01*
X001415Y003083D02*
X000620Y003083D01*
X000620Y002965D02*
X001588Y002965D01*
X002046Y002965D02*
X002222Y002965D01*
X002220Y003083D02*
X002222Y003083D01*
X002222Y002846D02*
X000620Y002846D01*
X000620Y002728D02*
X002222Y002728D01*
X002222Y002609D02*
X000620Y002609D01*
X000620Y002491D02*
X002222Y002491D01*
X002222Y002372D02*
X000620Y002372D01*
X000620Y002254D02*
X002227Y002254D01*
X002288Y002135D02*
X000620Y002135D01*
X000620Y002017D02*
X002407Y002017D01*
X002525Y001898D02*
X000620Y001898D01*
X000620Y001780D02*
X002644Y001780D01*
X002762Y001661D02*
X000620Y001661D01*
X000620Y001543D02*
X002881Y001543D01*
X002999Y001424D02*
X000620Y001424D01*
X000620Y001306D02*
X003118Y001306D01*
X003434Y001838D02*
X002822Y002450D01*
X002822Y002807D01*
X003015Y002727D01*
X003234Y002727D01*
X003422Y002805D01*
X003350Y002632D01*
X003350Y002413D01*
X003434Y002211D01*
X003589Y002056D01*
X003791Y001972D01*
X004010Y001972D01*
X004195Y002049D01*
X004195Y001838D01*
X003434Y001838D01*
X003374Y001898D02*
X004195Y001898D01*
X004195Y002017D02*
X004117Y002017D01*
X003683Y002017D02*
X003255Y002017D01*
X003137Y002135D02*
X003509Y002135D01*
X003416Y002254D02*
X003018Y002254D01*
X002900Y002372D02*
X003367Y002372D01*
X003350Y002491D02*
X002822Y002491D01*
X002822Y002609D02*
X003350Y002609D01*
X003390Y002728D02*
X003235Y002728D01*
X003014Y002728D02*
X002822Y002728D01*
X003603Y002994D02*
X003675Y003168D01*
X003675Y003387D01*
X003591Y003589D01*
X003436Y003743D01*
X003355Y003777D01*
X003436Y003811D01*
X003591Y003966D01*
X003675Y004168D01*
X003675Y004387D01*
X004155Y004387D01*
X004110Y004494D02*
X004258Y004137D01*
X004531Y003864D01*
X004781Y003761D01*
X004781Y002817D01*
X004373Y002817D01*
X004366Y002834D01*
X004212Y002988D01*
X004010Y003072D01*
X003791Y003072D01*
X003603Y002994D01*
X003640Y003083D02*
X004781Y003083D01*
X004781Y002965D02*
X004236Y002965D01*
X004354Y002846D02*
X004781Y002846D01*
X004781Y003202D02*
X003675Y003202D01*
X003675Y003320D02*
X004781Y003320D01*
X004781Y003439D02*
X003653Y003439D01*
X003604Y003557D02*
X004781Y003557D01*
X004781Y003676D02*
X003504Y003676D01*
X003396Y003794D02*
X004700Y003794D01*
X004483Y003913D02*
X003538Y003913D01*
X003618Y004031D02*
X004364Y004031D01*
X004253Y004150D02*
X003667Y004150D01*
X003675Y004268D02*
X004204Y004268D01*
X004110Y004494D02*
X004110Y004881D01*
X004258Y005238D01*
X004531Y005511D01*
X004888Y005659D01*
X005274Y005659D01*
X005631Y005511D01*
X005905Y005238D01*
X006052Y004881D01*
X006052Y004494D01*
X005905Y004137D01*
X005631Y003864D01*
X005381Y003761D01*
X005381Y002817D01*
X006752Y002817D01*
X006669Y003018D01*
X006669Y003404D01*
X006817Y003761D01*
X007090Y004035D01*
X007447Y004182D01*
X007833Y004182D01*
X008190Y004035D01*
X008464Y003761D01*
X008567Y003511D01*
X010934Y003511D01*
X011579Y004156D01*
X011575Y004168D01*
X011575Y004387D01*
X011126Y004387D01*
X011171Y004494D02*
X011023Y004137D01*
X010749Y003864D01*
X010393Y003716D01*
X010006Y003716D01*
X009649Y003864D01*
X009376Y004137D01*
X009228Y004494D01*
X009228Y004881D01*
X009376Y005238D01*
X009649Y005511D01*
X010006Y005659D01*
X010393Y005659D01*
X010749Y005511D01*
X011023Y005238D01*
X011171Y004881D01*
X011171Y004494D01*
X011171Y004505D02*
X011624Y004505D01*
X011658Y004589D02*
X011575Y004387D01*
X011575Y004268D02*
X011077Y004268D01*
X011028Y004150D02*
X011573Y004150D01*
X011454Y004031D02*
X010916Y004031D01*
X010798Y003913D02*
X011336Y003913D01*
X011217Y003794D02*
X010580Y003794D01*
X010980Y003557D02*
X008548Y003557D01*
X008499Y003676D02*
X011099Y003676D01*
X011575Y003303D02*
X011575Y003168D01*
X011640Y003010D01*
X011490Y003072D01*
X011344Y003072D01*
X011575Y003303D01*
X011575Y003202D02*
X011473Y003202D01*
X011355Y003083D02*
X011610Y003083D01*
X011865Y002789D02*
X012015Y002727D01*
X012234Y002727D01*
X012436Y002811D01*
X012458Y002833D01*
X012458Y002056D01*
X011605Y001202D01*
X011184Y001202D01*
X011184Y002008D01*
X011271Y001972D01*
X011490Y001972D01*
X011692Y002056D01*
X011847Y002211D01*
X011930Y002413D01*
X011930Y002632D01*
X011865Y002789D01*
X011891Y002728D02*
X012014Y002728D01*
X011930Y002609D02*
X012458Y002609D01*
X012458Y002491D02*
X011930Y002491D01*
X011914Y002372D02*
X012458Y002372D01*
X012458Y002254D02*
X011865Y002254D01*
X011771Y002135D02*
X012458Y002135D01*
X012419Y002017D02*
X011597Y002017D01*
X011184Y001898D02*
X012301Y001898D01*
X012182Y001780D02*
X011184Y001780D01*
X011184Y001661D02*
X012064Y001661D01*
X011945Y001543D02*
X011184Y001543D01*
X011184Y001424D02*
X011827Y001424D01*
X011708Y001306D02*
X011184Y001306D01*
X011832Y000620D02*
X011899Y000648D01*
X012928Y001677D01*
X013013Y001762D01*
X013058Y001872D01*
X013058Y002066D01*
X013121Y002004D01*
X013330Y001917D01*
X013352Y001917D01*
X013234Y001798D01*
X013089Y001448D01*
X013089Y001070D01*
X013234Y000720D01*
X013333Y000620D01*
X011832Y000620D01*
X011964Y000713D02*
X013240Y000713D01*
X013187Y000832D02*
X012083Y000832D01*
X012201Y000950D02*
X013138Y000950D01*
X013089Y001069D02*
X012320Y001069D01*
X012438Y001187D02*
X013089Y001187D01*
X013089Y001306D02*
X012557Y001306D01*
X012675Y001424D02*
X013089Y001424D01*
X013128Y001543D02*
X012794Y001543D01*
X012912Y001661D02*
X013177Y001661D01*
X013226Y001780D02*
X013020Y001780D01*
X013058Y001898D02*
X013334Y001898D01*
X013107Y002017D02*
X013058Y002017D01*
X012458Y002728D02*
X012235Y002728D01*
X013058Y002908D02*
X013058Y003070D01*
X013125Y003004D01*
X013163Y002988D01*
X013121Y002970D01*
X013058Y002908D01*
X013058Y002965D02*
X013115Y002965D01*
X013728Y002986D02*
X013770Y003004D01*
X013931Y003164D01*
X014017Y003373D01*
X014017Y003600D01*
X013931Y003810D01*
X013770Y003970D01*
X013725Y003989D01*
X013770Y004007D01*
X013931Y004168D01*
X014017Y004377D01*
X014017Y004604D01*
X013931Y004814D01*
X013770Y004974D01*
X013730Y004991D01*
X013770Y005007D01*
X013931Y005168D01*
X014017Y005377D01*
X014017Y005604D01*
X014013Y005616D01*
X014292Y005896D01*
X014338Y006006D01*
X014338Y007405D01*
X014292Y007515D01*
X014208Y007599D01*
X012664Y009143D01*
X012675Y009168D01*
X012675Y009387D01*
X012591Y009589D01*
X012436Y009743D01*
X012355Y009777D01*
X012436Y009811D01*
X012591Y009966D01*
X012675Y010168D01*
X012675Y010387D01*
X012591Y010589D01*
X012550Y010630D01*
X012651Y010630D01*
X012651Y011080D01*
X012661Y011080D01*
X012661Y010630D01*
X012807Y010630D01*
X012848Y010641D01*
X012858Y010647D01*
X012935Y010570D01*
X013377Y010570D01*
X013506Y010699D01*
X013506Y011472D01*
X013456Y011522D01*
X013456Y012056D01*
X013506Y012106D01*
X013506Y012318D01*
X013550Y012274D01*
X013675Y012222D01*
X013686Y012222D01*
X013955Y011953D01*
X013955Y011024D01*
X013846Y010979D01*
X013750Y010884D01*
X013699Y010759D01*
X013699Y010624D01*
X013750Y010499D01*
X013846Y010404D01*
X013970Y010352D01*
X014105Y010352D01*
X014230Y010404D01*
X014326Y010499D01*
X014377Y010624D01*
X014377Y010635D01*
X014472Y010730D01*
X014515Y010833D01*
X014515Y012125D01*
X014472Y012228D01*
X014393Y012307D01*
X014082Y012618D01*
X014082Y012629D01*
X014030Y012754D01*
X013935Y012849D01*
X013810Y012901D01*
X013675Y012901D01*
X013550Y012849D01*
X013506Y012805D01*
X013506Y012879D01*
X013456Y012929D01*
X013456Y013180D01*
X013410Y013291D01*
X013326Y013375D01*
X013025Y013676D01*
X014661Y013676D01*
X014661Y001986D01*
X014580Y002066D01*
X014230Y002211D01*
X013946Y002211D01*
X014013Y002373D01*
X014013Y002600D01*
X013927Y002810D01*
X013766Y002970D01*
X013728Y002986D01*
X013772Y002965D02*
X014661Y002965D01*
X014661Y003083D02*
X013850Y003083D01*
X013946Y003202D02*
X014661Y003202D01*
X014661Y003320D02*
X013995Y003320D01*
X014017Y003439D02*
X014661Y003439D01*
X014661Y003557D02*
X014017Y003557D01*
X013986Y003676D02*
X014661Y003676D01*
X014661Y003794D02*
X013937Y003794D01*
X013828Y003913D02*
X014661Y003913D01*
X014661Y004031D02*
X013794Y004031D01*
X013912Y004150D02*
X014661Y004150D01*
X014661Y004268D02*
X013972Y004268D01*
X014017Y004387D02*
X014661Y004387D01*
X014661Y004505D02*
X014017Y004505D01*
X014009Y004624D02*
X014661Y004624D01*
X014661Y004742D02*
X013960Y004742D01*
X013884Y004861D02*
X014661Y004861D01*
X014661Y004979D02*
X013758Y004979D01*
X013860Y005098D02*
X014661Y005098D01*
X014661Y005216D02*
X013951Y005216D01*
X014000Y005335D02*
X014661Y005335D01*
X014661Y005453D02*
X014017Y005453D01*
X014017Y005572D02*
X014661Y005572D01*
X014661Y005690D02*
X014087Y005690D01*
X014205Y005809D02*
X014661Y005809D01*
X014661Y005927D02*
X014305Y005927D01*
X014338Y006046D02*
X014661Y006046D01*
X014661Y006164D02*
X014338Y006164D01*
X014338Y006283D02*
X014661Y006283D01*
X014661Y006401D02*
X014338Y006401D01*
X014338Y006520D02*
X014661Y006520D01*
X014661Y006638D02*
X014338Y006638D01*
X014338Y006757D02*
X014661Y006757D01*
X014661Y006875D02*
X014338Y006875D01*
X014338Y006994D02*
X014661Y006994D01*
X014661Y007112D02*
X014338Y007112D01*
X014338Y007231D02*
X014661Y007231D01*
X014661Y007349D02*
X014338Y007349D01*
X014312Y007468D02*
X014661Y007468D01*
X014661Y007586D02*
X014221Y007586D01*
X014103Y007705D02*
X014661Y007705D01*
X014661Y007823D02*
X013984Y007823D01*
X013866Y007942D02*
X014661Y007942D01*
X014661Y008060D02*
X013747Y008060D01*
X013629Y008179D02*
X014661Y008179D01*
X014661Y008297D02*
X013510Y008297D01*
X013392Y008416D02*
X014661Y008416D01*
X014661Y008534D02*
X013273Y008534D01*
X013155Y008653D02*
X014661Y008653D01*
X014661Y008771D02*
X013036Y008771D01*
X012918Y008890D02*
X014661Y008890D01*
X014661Y009008D02*
X012799Y009008D01*
X012681Y009127D02*
X014661Y009127D01*
X014661Y009245D02*
X012675Y009245D01*
X012675Y009364D02*
X014661Y009364D01*
X014661Y009482D02*
X012635Y009482D01*
X012579Y009601D02*
X014661Y009601D01*
X014661Y009719D02*
X012460Y009719D01*
X012463Y009838D02*
X014661Y009838D01*
X014661Y009956D02*
X012581Y009956D01*
X012636Y010075D02*
X014661Y010075D01*
X014661Y010193D02*
X012675Y010193D01*
X012675Y010312D02*
X014661Y010312D01*
X014661Y010430D02*
X014257Y010430D01*
X014346Y010549D02*
X014661Y010549D01*
X014661Y010667D02*
X014410Y010667D01*
X014495Y010786D02*
X014661Y010786D01*
X014661Y010904D02*
X014515Y010904D01*
X014515Y011023D02*
X014661Y011023D01*
X014661Y011141D02*
X014515Y011141D01*
X014515Y011260D02*
X014661Y011260D01*
X014661Y011378D02*
X014515Y011378D01*
X014515Y011497D02*
X014661Y011497D01*
X014661Y011615D02*
X014515Y011615D01*
X014515Y011734D02*
X014661Y011734D01*
X014661Y011852D02*
X014515Y011852D01*
X014515Y011971D02*
X014661Y011971D01*
X014661Y012089D02*
X014515Y012089D01*
X014481Y012208D02*
X014661Y012208D01*
X014661Y012326D02*
X014374Y012326D01*
X014256Y012445D02*
X014661Y012445D01*
X014661Y012563D02*
X014137Y012563D01*
X014060Y012682D02*
X014661Y012682D01*
X014661Y012800D02*
X013984Y012800D01*
X013743Y012562D02*
X014235Y012069D01*
X014235Y010888D01*
X014038Y010691D01*
X013819Y010430D02*
X012656Y010430D01*
X012607Y010549D02*
X013730Y010549D01*
X013699Y010667D02*
X013474Y010667D01*
X013506Y010786D02*
X013710Y010786D01*
X013771Y010904D02*
X013506Y010904D01*
X013506Y011023D02*
X013951Y011023D01*
X013955Y011141D02*
X013506Y011141D01*
X013506Y011260D02*
X013955Y011260D01*
X013955Y011378D02*
X013506Y011378D01*
X013481Y011497D02*
X013955Y011497D01*
X013955Y011615D02*
X013456Y011615D01*
X013456Y011734D02*
X013955Y011734D01*
X013955Y011852D02*
X013456Y011852D01*
X013456Y011971D02*
X013938Y011971D01*
X013819Y012089D02*
X013489Y012089D01*
X013506Y012208D02*
X013701Y012208D01*
X013466Y012919D02*
X014661Y012919D01*
X014661Y013037D02*
X013456Y013037D01*
X013456Y013156D02*
X014661Y013156D01*
X014661Y013274D02*
X013417Y013274D01*
X013308Y013393D02*
X014661Y013393D01*
X014661Y013511D02*
X013190Y013511D01*
X013071Y013630D02*
X014661Y013630D01*
X012856Y012996D02*
X012856Y012932D01*
X012848Y012937D01*
X012807Y012948D01*
X012661Y012948D01*
X012661Y012498D01*
X012651Y012498D01*
X012651Y012948D01*
X012505Y012948D01*
X012464Y012937D01*
X012454Y012931D01*
X012377Y013008D01*
X011935Y013008D01*
X011906Y012979D01*
X011877Y013008D01*
X011435Y013008D01*
X011406Y012979D01*
X011377Y013008D01*
X010935Y013008D01*
X010806Y012879D01*
X010806Y012793D01*
X010780Y012793D01*
X010670Y012747D01*
X009705Y011781D01*
X009620Y011697D01*
X009575Y011587D01*
X009575Y011366D01*
X009443Y011366D01*
X009348Y011327D01*
X005065Y011327D01*
X004955Y011281D01*
X004870Y011197D01*
X004495Y010822D01*
X004450Y010712D01*
X004450Y009651D01*
X003489Y008691D01*
X003436Y008743D01*
X003274Y008810D01*
X003313Y008823D01*
X003381Y008858D01*
X003444Y008903D01*
X003498Y008958D01*
X003544Y009020D01*
X003579Y009089D01*
X003603Y009162D01*
X003614Y009237D01*
X003165Y009237D01*
X003165Y009317D01*
X003614Y009317D01*
X003603Y009392D01*
X003579Y009465D01*
X003544Y009534D01*
X003498Y009596D01*
X003444Y009651D01*
X003381Y009696D01*
X003313Y009731D01*
X003274Y009744D01*
X003436Y009811D01*
X003591Y009966D01*
X003675Y010168D01*
X003675Y010387D01*
X003591Y010589D01*
X003512Y010668D01*
X003594Y010634D01*
X003813Y010634D01*
X004015Y010717D01*
X004170Y010872D01*
X004253Y011074D01*
X004253Y011293D01*
X004170Y011495D01*
X004015Y011650D01*
X003861Y011714D01*
X005499Y013352D01*
X012500Y013352D01*
X012856Y012996D01*
X012815Y013037D02*
X005184Y013037D01*
X005065Y012919D02*
X010846Y012919D01*
X010806Y012800D02*
X004947Y012800D01*
X004828Y012682D02*
X010605Y012682D01*
X010486Y012563D02*
X004710Y012563D01*
X004591Y012445D02*
X010368Y012445D01*
X010249Y012326D02*
X004473Y012326D01*
X004354Y012208D02*
X010131Y012208D01*
X010012Y012089D02*
X004236Y012089D01*
X004117Y011971D02*
X009894Y011971D01*
X009775Y011852D02*
X003999Y011852D01*
X003880Y011734D02*
X009657Y011734D01*
X009586Y011615D02*
X004050Y011615D01*
X004168Y011497D02*
X009575Y011497D01*
X009575Y011378D02*
X004218Y011378D01*
X004253Y011260D02*
X004933Y011260D01*
X004814Y011141D02*
X004253Y011141D01*
X004232Y011023D02*
X004696Y011023D01*
X004577Y010904D02*
X004183Y010904D01*
X004083Y010786D02*
X004480Y010786D01*
X004450Y010667D02*
X003894Y010667D01*
X003607Y010549D02*
X004450Y010549D01*
X004450Y010430D02*
X003656Y010430D01*
X003675Y010312D02*
X004450Y010312D01*
X004450Y010193D02*
X003675Y010193D01*
X003636Y010075D02*
X004450Y010075D01*
X004450Y009956D02*
X003581Y009956D01*
X003463Y009838D02*
X004450Y009838D01*
X004450Y009719D02*
X003336Y009719D01*
X003494Y009601D02*
X004399Y009601D01*
X004280Y009482D02*
X003570Y009482D01*
X003607Y009364D02*
X004162Y009364D01*
X004043Y009245D02*
X003165Y009245D01*
X003085Y009245D02*
X001838Y009245D01*
X001838Y009127D02*
X002658Y009127D01*
X002714Y009008D02*
X001838Y009008D01*
X001894Y008890D02*
X002824Y008890D01*
X002880Y008771D02*
X002012Y008771D01*
X002131Y008653D02*
X002722Y008653D01*
X002636Y008534D02*
X002249Y008534D01*
X002368Y008416D02*
X002587Y008416D01*
X002575Y008297D02*
X002486Y008297D01*
X003369Y008771D02*
X003569Y008771D01*
X003688Y008890D02*
X003425Y008890D01*
X003535Y009008D02*
X003806Y009008D01*
X003925Y009127D02*
X003591Y009127D01*
X004181Y008534D02*
X004897Y008534D01*
X004903Y008536D02*
X004788Y008505D01*
X004677Y008459D01*
X004574Y008400D01*
X004479Y008327D01*
X004395Y008242D01*
X004322Y008148D01*
X004262Y008044D01*
X004217Y007934D01*
X004186Y007818D01*
X004170Y007700D01*
X005021Y007700D01*
X005021Y007580D01*
X005141Y007580D01*
X005141Y006729D01*
X005259Y006745D01*
X005375Y006776D01*
X005485Y006821D01*
X005589Y006881D01*
X005683Y006954D01*
X005768Y007038D01*
X005841Y007133D01*
X005900Y007236D01*
X005946Y007347D01*
X005977Y007462D01*
X005992Y007580D01*
X005141Y007580D01*
X005141Y007700D01*
X005992Y007700D01*
X005977Y007818D01*
X005946Y007934D01*
X005900Y008044D01*
X005841Y008148D01*
X005768Y008242D01*
X005683Y008327D01*
X005589Y008400D01*
X005485Y008459D01*
X005375Y008505D01*
X005259Y008536D01*
X005141Y008551D01*
X005141Y007700D01*
X005021Y007700D01*
X005021Y008551D01*
X004903Y008536D01*
X005021Y008534D02*
X005141Y008534D01*
X005141Y008416D02*
X005021Y008416D01*
X005021Y008297D02*
X005141Y008297D01*
X005141Y008179D02*
X005021Y008179D01*
X005021Y008060D02*
X005141Y008060D01*
X005141Y007942D02*
X005021Y007942D01*
X005021Y007823D02*
X005141Y007823D01*
X005141Y007705D02*
X005021Y007705D01*
X005021Y007586D02*
X003592Y007586D01*
X003591Y007589D02*
X003436Y007743D01*
X003355Y007777D01*
X003436Y007811D01*
X003591Y007966D01*
X003603Y007995D01*
X003670Y008023D01*
X004920Y009273D01*
X005004Y009357D01*
X005050Y009467D01*
X005050Y010528D01*
X005249Y010727D01*
X009348Y010727D01*
X009443Y010688D01*
X009575Y010688D01*
X009575Y010092D01*
X009620Y009982D01*
X011325Y008277D01*
X011086Y008038D01*
X011023Y008190D01*
X010749Y008464D01*
X010393Y008611D01*
X010006Y008611D01*
X009649Y008464D01*
X009376Y008190D01*
X009228Y007833D01*
X009228Y007447D01*
X009376Y007090D01*
X009649Y006817D01*
X010006Y006669D01*
X010393Y006669D01*
X010749Y006817D01*
X011023Y007090D01*
X011126Y007340D01*
X011172Y007340D01*
X011283Y007386D01*
X011760Y007864D01*
X011813Y007811D01*
X011894Y007777D01*
X011813Y007743D01*
X011658Y007589D01*
X011575Y007387D01*
X011575Y007168D01*
X011658Y006966D01*
X011813Y006811D01*
X011894Y006777D01*
X011813Y006743D01*
X011658Y006589D01*
X011575Y006387D01*
X011575Y006168D01*
X011658Y005966D01*
X011813Y005811D01*
X011894Y005777D01*
X011813Y005743D01*
X011658Y005589D01*
X011575Y005387D01*
X011575Y005168D01*
X011658Y004966D01*
X011813Y004811D01*
X011894Y004777D01*
X011813Y004743D01*
X011658Y004589D01*
X011693Y004624D02*
X011171Y004624D01*
X011171Y004742D02*
X011812Y004742D01*
X011763Y004861D02*
X011171Y004861D01*
X011130Y004979D02*
X011653Y004979D01*
X011604Y005098D02*
X011081Y005098D01*
X011032Y005216D02*
X011575Y005216D01*
X011575Y005335D02*
X010926Y005335D01*
X010807Y005453D02*
X011602Y005453D01*
X011651Y005572D02*
X010603Y005572D01*
X009796Y005572D02*
X005485Y005572D01*
X005689Y005453D02*
X009592Y005453D01*
X009473Y005335D02*
X005808Y005335D01*
X005914Y005216D02*
X009367Y005216D01*
X009318Y005098D02*
X005963Y005098D01*
X006012Y004979D02*
X009269Y004979D01*
X009228Y004861D02*
X006052Y004861D01*
X006052Y004742D02*
X009228Y004742D01*
X009228Y004624D02*
X006052Y004624D01*
X006052Y004505D02*
X009228Y004505D01*
X009273Y004387D02*
X006008Y004387D01*
X005959Y004268D02*
X009322Y004268D01*
X009371Y004150D02*
X007912Y004150D01*
X008194Y004031D02*
X009482Y004031D01*
X009601Y003913D02*
X008312Y003913D01*
X008431Y003794D02*
X009818Y003794D01*
X010914Y002834D02*
X010907Y002817D01*
X008528Y002817D01*
X008567Y002911D01*
X010992Y002911D01*
X010914Y002834D01*
X010927Y002846D02*
X008540Y002846D01*
X007368Y004150D02*
X005910Y004150D01*
X005798Y004031D02*
X007087Y004031D01*
X006968Y003913D02*
X005680Y003913D01*
X005462Y003794D02*
X006850Y003794D01*
X006782Y003676D02*
X005381Y003676D01*
X005381Y003557D02*
X006732Y003557D01*
X006683Y003439D02*
X005381Y003439D01*
X005381Y003320D02*
X006669Y003320D01*
X006669Y003202D02*
X005381Y003202D01*
X005381Y003083D02*
X006669Y003083D01*
X006691Y002965D02*
X005381Y002965D01*
X005381Y002846D02*
X006740Y002846D01*
X004249Y005216D02*
X003675Y005216D01*
X003675Y005168D02*
X003675Y005387D01*
X003591Y005589D01*
X003436Y005743D01*
X003355Y005777D01*
X003436Y005811D01*
X003591Y005966D01*
X003675Y006168D01*
X003675Y006387D01*
X003591Y006589D01*
X003436Y006743D01*
X003355Y006777D01*
X003436Y006811D01*
X003591Y006966D01*
X003675Y007168D01*
X003675Y007387D01*
X003591Y007589D01*
X003641Y007468D02*
X004185Y007468D01*
X004186Y007462D02*
X004217Y007347D01*
X004262Y007236D01*
X004322Y007133D01*
X004395Y007038D01*
X004479Y006954D01*
X004574Y006881D01*
X004677Y006821D01*
X004788Y006776D01*
X004903Y006745D01*
X005021Y006729D01*
X005021Y007580D01*
X004170Y007580D01*
X004186Y007462D01*
X004216Y007349D02*
X003675Y007349D01*
X003675Y007231D02*
X004266Y007231D01*
X004338Y007112D02*
X003652Y007112D01*
X003602Y006994D02*
X004439Y006994D01*
X004584Y006875D02*
X003500Y006875D01*
X003404Y006757D02*
X004859Y006757D01*
X005021Y006757D02*
X005141Y006757D01*
X005141Y006875D02*
X005021Y006875D01*
X005021Y006994D02*
X005141Y006994D01*
X005141Y007112D02*
X005021Y007112D01*
X005021Y007231D02*
X005141Y007231D01*
X005141Y007349D02*
X005021Y007349D01*
X005021Y007468D02*
X005141Y007468D01*
X005141Y007586D02*
X009228Y007586D01*
X009228Y007468D02*
X005978Y007468D01*
X005947Y007349D02*
X009269Y007349D01*
X009318Y007231D02*
X005897Y007231D01*
X005825Y007112D02*
X009367Y007112D01*
X009473Y006994D02*
X005723Y006994D01*
X005578Y006875D02*
X009591Y006875D01*
X009795Y006757D02*
X005304Y006757D01*
X005992Y007705D02*
X009228Y007705D01*
X009228Y007823D02*
X005976Y007823D01*
X005943Y007942D02*
X009273Y007942D01*
X009322Y008060D02*
X005891Y008060D01*
X005817Y008179D02*
X009371Y008179D01*
X009483Y008297D02*
X005713Y008297D01*
X005561Y008416D02*
X009601Y008416D01*
X009820Y008534D02*
X005266Y008534D01*
X004602Y008416D02*
X004062Y008416D01*
X003944Y008297D02*
X004450Y008297D01*
X004346Y008179D02*
X003825Y008179D01*
X003707Y008060D02*
X004272Y008060D01*
X004220Y007942D02*
X003567Y007942D01*
X003448Y007823D02*
X004187Y007823D01*
X004171Y007705D02*
X003475Y007705D01*
X002647Y006994D02*
X002089Y006994D01*
X002235Y006875D02*
X002749Y006875D01*
X002845Y006757D02*
X002320Y006757D01*
X002369Y006638D02*
X002708Y006638D01*
X002630Y006520D02*
X002384Y006520D01*
X002384Y006401D02*
X002581Y006401D01*
X002575Y006283D02*
X002446Y006283D01*
X002564Y006164D02*
X002576Y006164D01*
X002822Y005807D02*
X002894Y005777D01*
X002822Y005747D01*
X002822Y005807D01*
X003431Y005809D02*
X011818Y005809D01*
X011760Y005690D02*
X003489Y005690D01*
X003598Y005572D02*
X004678Y005572D01*
X004473Y005453D02*
X003647Y005453D01*
X003675Y005335D02*
X004355Y005335D01*
X004200Y005098D02*
X003646Y005098D01*
X003675Y005168D02*
X003591Y004966D01*
X003436Y004811D01*
X003355Y004777D01*
X003436Y004743D01*
X003591Y004589D01*
X003675Y004387D01*
X003625Y004505D02*
X004110Y004505D01*
X004110Y004624D02*
X003556Y004624D01*
X003437Y004742D02*
X004110Y004742D01*
X004110Y004861D02*
X003486Y004861D01*
X003596Y004979D02*
X004151Y004979D01*
X003552Y005927D02*
X011697Y005927D01*
X011625Y006046D02*
X003624Y006046D01*
X003673Y006164D02*
X011576Y006164D01*
X011575Y006283D02*
X003675Y006283D01*
X003669Y006401D02*
X011581Y006401D01*
X011630Y006520D02*
X003619Y006520D01*
X003541Y006638D02*
X011708Y006638D01*
X011845Y006757D02*
X010604Y006757D01*
X010808Y006875D02*
X011749Y006875D01*
X011647Y006994D02*
X010926Y006994D01*
X011032Y007112D02*
X011598Y007112D01*
X011575Y007231D02*
X011081Y007231D01*
X011194Y007349D02*
X011575Y007349D01*
X011608Y007468D02*
X011364Y007468D01*
X011483Y007586D02*
X011657Y007586D01*
X011601Y007705D02*
X011774Y007705D01*
X011801Y007823D02*
X011720Y007823D01*
X012125Y008274D02*
X012125Y008277D01*
X011894Y008777D02*
X011813Y008743D01*
X011760Y008691D01*
X011474Y008977D01*
X011654Y008977D01*
X011658Y008966D01*
X011813Y008811D01*
X011894Y008777D01*
X011880Y008771D02*
X011680Y008771D01*
X011734Y008890D02*
X011561Y008890D01*
X011187Y008416D02*
X010797Y008416D01*
X010916Y008297D02*
X011305Y008297D01*
X011227Y008179D02*
X011028Y008179D01*
X011077Y008060D02*
X011108Y008060D01*
X011068Y008534D02*
X010579Y008534D01*
X010831Y008771D02*
X004418Y008771D01*
X004299Y008653D02*
X010950Y008653D01*
X010713Y008890D02*
X004536Y008890D01*
X004655Y009008D02*
X010594Y009008D01*
X010476Y009127D02*
X004773Y009127D01*
X004892Y009245D02*
X010357Y009245D01*
X010239Y009364D02*
X005007Y009364D01*
X005050Y009482D02*
X010120Y009482D01*
X010002Y009601D02*
X005050Y009601D01*
X005050Y009719D02*
X009883Y009719D01*
X009765Y009838D02*
X005050Y009838D01*
X005050Y009956D02*
X009646Y009956D01*
X009582Y010075D02*
X005050Y010075D01*
X005050Y010193D02*
X009575Y010193D01*
X009575Y010312D02*
X005050Y010312D01*
X005050Y010430D02*
X009575Y010430D01*
X009575Y010549D02*
X005070Y010549D01*
X005189Y010667D02*
X009575Y010667D01*
X010550Y010667D02*
X010838Y010667D01*
X010806Y010699D02*
X010935Y010570D01*
X011377Y010570D01*
X011406Y010599D01*
X011435Y010570D01*
X011651Y010570D01*
X011575Y010387D01*
X011575Y010168D01*
X011658Y009966D01*
X011813Y009811D01*
X011894Y009777D01*
X011813Y009743D01*
X011658Y009589D01*
X011654Y009577D01*
X011374Y009577D01*
X010550Y010401D01*
X010550Y010691D01*
X010557Y010688D01*
X010692Y010688D01*
X010787Y010727D01*
X010806Y010727D01*
X010806Y010699D01*
X010550Y010549D02*
X011642Y010549D01*
X011593Y010430D02*
X010550Y010430D01*
X010639Y010312D02*
X011575Y010312D01*
X011575Y010193D02*
X010758Y010193D01*
X010876Y010075D02*
X011613Y010075D01*
X011668Y009956D02*
X010995Y009956D01*
X011113Y009838D02*
X011786Y009838D01*
X011789Y009719D02*
X011232Y009719D01*
X011350Y009601D02*
X011670Y009601D01*
X012651Y010667D02*
X012661Y010667D01*
X012651Y010786D02*
X012661Y010786D01*
X012651Y010904D02*
X012661Y010904D01*
X012651Y011023D02*
X012661Y011023D01*
X012661Y011090D02*
X012651Y011090D01*
X012651Y011540D01*
X012505Y011540D01*
X012464Y011530D01*
X012454Y011524D01*
X012377Y011600D01*
X011935Y011600D01*
X011906Y011572D01*
X011877Y011600D01*
X011595Y011600D01*
X011639Y011644D01*
X011910Y011916D01*
X011936Y011977D01*
X012377Y011977D01*
X012454Y012054D01*
X012464Y012048D01*
X012505Y012037D01*
X012651Y012037D01*
X012651Y012488D01*
X012661Y012488D01*
X012661Y012037D01*
X012807Y012037D01*
X012848Y012048D01*
X012856Y012053D01*
X012856Y011525D01*
X012848Y011530D01*
X012807Y011540D01*
X012661Y011540D01*
X012661Y011090D01*
X012651Y011141D02*
X012661Y011141D01*
X012651Y011260D02*
X012661Y011260D01*
X012651Y011378D02*
X012661Y011378D01*
X012651Y011497D02*
X012661Y011497D01*
X012856Y011615D02*
X011609Y011615D01*
X011639Y011644D02*
X011639Y011644D01*
X011728Y011734D02*
X012856Y011734D01*
X012856Y011852D02*
X011846Y011852D01*
X011933Y011971D02*
X012856Y011971D01*
X012661Y012089D02*
X012651Y012089D01*
X012651Y012208D02*
X012661Y012208D01*
X012651Y012326D02*
X012661Y012326D01*
X012651Y012445D02*
X012661Y012445D01*
X012651Y012563D02*
X012661Y012563D01*
X012651Y012682D02*
X012661Y012682D01*
X012651Y012800D02*
X012661Y012800D01*
X012656Y012871D02*
X012646Y012871D01*
X012365Y013152D01*
X012578Y013274D02*
X005421Y013274D01*
X005302Y013156D02*
X012697Y013156D01*
X012661Y012919D02*
X012651Y012919D01*
X010849Y011514D02*
X010786Y011514D01*
X010638Y011366D01*
X010692Y011366D01*
X010787Y011327D01*
X010806Y011327D01*
X010806Y011472D01*
X010849Y011514D01*
X010831Y011497D02*
X010768Y011497D01*
X010806Y011378D02*
X010650Y011378D01*
X012675Y008284D02*
X013738Y007221D01*
X013738Y006983D01*
X013561Y007057D01*
X013334Y007057D01*
X013125Y006970D01*
X013058Y006904D01*
X013058Y007700D01*
X013013Y007810D01*
X012928Y007895D01*
X012669Y008154D01*
X012675Y008168D01*
X012675Y008284D01*
X012675Y008179D02*
X012780Y008179D01*
X012763Y008060D02*
X012899Y008060D01*
X012881Y007942D02*
X013017Y007942D01*
X013000Y007823D02*
X013136Y007823D01*
X013056Y007705D02*
X013254Y007705D01*
X013373Y007586D02*
X013058Y007586D01*
X013058Y007468D02*
X013491Y007468D01*
X013610Y007349D02*
X013058Y007349D01*
X013058Y007231D02*
X013728Y007231D01*
X013738Y007112D02*
X013058Y007112D01*
X013058Y006994D02*
X013182Y006994D01*
X013713Y006994D02*
X013738Y006994D01*
X013058Y006070D02*
X013125Y006004D01*
X013160Y005989D01*
X013125Y005974D01*
X013058Y005908D01*
X013058Y006070D01*
X013058Y006046D02*
X013082Y006046D01*
X013078Y005927D02*
X013058Y005927D01*
X012458Y005833D02*
X012458Y005721D01*
X012436Y005743D01*
X012355Y005777D01*
X012436Y005811D01*
X012458Y005833D01*
X012458Y005809D02*
X012431Y005809D01*
X012458Y006721D02*
X012436Y006743D01*
X012355Y006777D01*
X012436Y006811D01*
X012458Y006833D01*
X012458Y006721D01*
X012458Y006757D02*
X012404Y006757D01*
X012485Y004860D02*
X012504Y004813D01*
X012588Y004729D01*
X012777Y004540D01*
X012660Y004423D01*
X012591Y004589D01*
X012436Y004743D01*
X012355Y004777D01*
X012436Y004811D01*
X012485Y004860D01*
X012437Y004742D02*
X012575Y004742D01*
X012556Y004624D02*
X012693Y004624D01*
X012742Y004505D02*
X012625Y004505D01*
X013109Y004023D02*
X013125Y004007D01*
X013170Y003989D01*
X013125Y003970D01*
X013058Y003904D01*
X013058Y003973D01*
X013109Y004023D01*
X013067Y003913D02*
X013058Y003913D01*
X012458Y003833D02*
X012458Y003721D01*
X012436Y003743D01*
X012355Y003777D01*
X012436Y003811D01*
X012458Y003833D01*
X012458Y003794D02*
X012396Y003794D01*
X013201Y004540D02*
X013251Y004491D01*
X013890Y002846D02*
X014661Y002846D01*
X014661Y002728D02*
X013961Y002728D01*
X014010Y002609D02*
X014661Y002609D01*
X014661Y002491D02*
X014013Y002491D01*
X014013Y002372D02*
X014661Y002372D01*
X014661Y002254D02*
X013964Y002254D01*
X014414Y002135D02*
X014661Y002135D01*
X014661Y002017D02*
X014630Y002017D01*
X004195Y001187D02*
X000620Y001187D01*
X000620Y001069D02*
X004195Y001069D01*
X004195Y000950D02*
X000620Y000950D01*
X000620Y000832D02*
X004195Y000832D01*
X004195Y000713D02*
X000620Y000713D01*
X002822Y003747D02*
X002822Y003807D01*
X002894Y003777D01*
X002822Y003747D01*
X002822Y003794D02*
X002853Y003794D01*
X002222Y003888D02*
X002140Y003970D01*
X002095Y003989D01*
X002140Y004007D01*
X002222Y004089D01*
X002222Y003888D01*
X002222Y003913D02*
X002198Y003913D01*
X002222Y004031D02*
X002164Y004031D01*
X002822Y004747D02*
X002822Y004807D01*
X002894Y004777D01*
X002822Y004747D01*
X002222Y004892D02*
X002140Y004974D01*
X002027Y005021D01*
X002085Y005051D01*
X002150Y005098D01*
X002206Y005155D01*
X002222Y005176D01*
X002222Y004892D01*
X002222Y004979D02*
X002128Y004979D01*
X002150Y005098D02*
X002222Y005098D01*
X001838Y009364D02*
X002642Y009364D01*
X002679Y009482D02*
X001960Y009482D01*
X002179Y009601D02*
X002755Y009601D01*
X002913Y009719D02*
X002287Y009719D01*
X002336Y009838D02*
X002786Y009838D01*
X002668Y009956D02*
X002358Y009956D01*
X002358Y010075D02*
X002613Y010075D01*
X002575Y010193D02*
X002319Y010193D01*
X002256Y010312D02*
X002575Y010312D01*
X002593Y010430D02*
X002138Y010430D01*
X002079Y010601D02*
X002015Y010568D01*
X001946Y010546D01*
X001874Y010535D01*
X001578Y010535D01*
X001578Y010955D01*
X001578Y011035D01*
X001498Y011035D01*
X001498Y010955D01*
X001578Y010955D01*
X002297Y010955D01*
X002287Y010887D01*
X002264Y010818D01*
X002231Y010754D01*
X002189Y010695D01*
X002138Y010644D01*
X002079Y010601D01*
X002161Y010667D02*
X002737Y010667D01*
X002825Y010786D02*
X002248Y010786D01*
X002289Y010904D02*
X002825Y010904D01*
X002825Y011023D02*
X001578Y011023D01*
X001578Y011035D02*
X002297Y011035D01*
X002287Y011102D01*
X002264Y011171D01*
X002231Y011236D01*
X002189Y011294D01*
X002138Y011346D01*
X002079Y011388D01*
X002015Y011421D01*
X001946Y011443D01*
X001874Y011455D01*
X001578Y011455D01*
X001578Y011035D01*
X001498Y011023D02*
X000620Y011023D01*
X001498Y011141D02*
X001578Y011141D01*
X001578Y011260D02*
X001498Y011260D01*
X001498Y011378D02*
X001578Y011378D01*
X001578Y010904D02*
X001498Y010904D01*
X001498Y010786D02*
X001578Y010786D01*
X001578Y010667D02*
X001498Y010667D01*
X001498Y010549D02*
X001578Y010549D01*
X001954Y010549D02*
X002642Y010549D01*
X002825Y011141D02*
X002274Y011141D01*
X002214Y011260D02*
X002825Y011260D01*
X002825Y011378D02*
X002093Y011378D01*
X001460Y012208D02*
X003506Y012208D01*
X003624Y012326D02*
X001655Y012326D01*
X001773Y012445D02*
X003743Y012445D01*
X003861Y012563D02*
X001872Y012563D01*
X001921Y012682D02*
X003980Y012682D01*
X004098Y012800D02*
X001970Y012800D01*
X002003Y012919D02*
X004217Y012919D01*
X004335Y013037D02*
X002003Y013037D01*
X002003Y013156D02*
X004454Y013156D01*
X004572Y013274D02*
X001996Y013274D01*
X001947Y013393D02*
X004691Y013393D01*
X004809Y013511D02*
X001898Y013511D01*
X001836Y013630D02*
X004928Y013630D01*
X003512Y010667D02*
X003513Y010667D01*
D19*
X009510Y011027D03*
X010625Y011027D03*
X012365Y013152D03*
X013743Y012562D03*
X014038Y010691D03*
X013447Y009707D03*
M02*
