%
M48
M72
T01C0.0079
T02C0.0354
T03C0.0394
T04C0.0400
T05C0.0984
T06C0.1102
%
T01
X9510Y11027
X10625Y11027
X12365Y13152
X13743Y12562
X14038Y10691
X13447Y9707
T02
X13447Y6487
X13447Y5491
X13447Y4491
X13447Y3487
X13443Y2487
X1817Y3487
X1817Y4491
X1817Y5487
X1814Y6491
T03
X3900Y2522
X11380Y2522
X3703Y11184
T04
X3125Y3277
X3125Y4277
X3125Y5277
X3125Y6277
X3125Y7277
X3125Y8277
X3125Y9277
X3125Y10277
X1538Y9995
X1538Y10995
X12125Y10277
X12125Y9277
X12125Y8277
X12125Y7277
X12125Y6277
X12125Y5277
X12125Y4277
X12125Y3277
X9125Y902
X8125Y902
X7125Y902
X6125Y902
T05
X14041Y1259
X1051Y13069
T06
X5081Y7640
X5081Y4688
X7640Y3211
X10199Y4688
X10199Y7640
M30
