G75*
G70*
%OFA0B0*%
%FSLAX24Y24*%
%IPPOS*%
%LPD*%
%AMOC8*
5,1,8,0,0,1.08239X$1,22.5*
%
%ADD10C,0.1064*%
%ADD11C,0.0740*%
%ADD12R,0.0340X0.0671*%
%ADD13C,0.0780*%
%ADD14C,0.1582*%
%ADD15R,0.0820X0.0820*%
%ADD16C,0.0820*%
%ADD17C,0.0680*%
%ADD18C,0.0319*%
D10*
X001051Y013069D03*
X014041Y001259D03*
D11*
X003125Y003277D03*
X003900Y002522D03*
X003125Y004277D03*
X003125Y005277D03*
X003125Y006277D03*
X003125Y007277D03*
X003125Y008277D03*
X003125Y009277D03*
X003125Y010277D03*
X003703Y011184D03*
X012125Y010277D03*
X012125Y009277D03*
X012125Y008277D03*
X012125Y007277D03*
X012125Y006277D03*
X012125Y005277D03*
X012125Y004277D03*
X012125Y003277D03*
X011380Y002522D03*
D12*
X011156Y011085D03*
X011656Y011085D03*
X012156Y011085D03*
X012656Y011085D03*
X013156Y011085D03*
X013156Y012493D03*
X012656Y012493D03*
X012156Y012493D03*
X011656Y012493D03*
X011156Y012493D03*
D13*
X013447Y006487D03*
X013447Y005491D03*
X013447Y004491D03*
X013447Y003487D03*
X013443Y002487D03*
X001817Y003487D03*
X001817Y004491D03*
X001817Y005487D03*
X001814Y006491D03*
D14*
X005081Y007640D03*
X005081Y004688D03*
X007640Y003211D03*
X010199Y004688D03*
X010199Y007640D03*
D15*
X006125Y000902D03*
D16*
X007125Y000902D03*
X008125Y000902D03*
X009125Y000902D03*
D17*
X001838Y009995D02*
X001238Y009995D01*
X001238Y010995D02*
X001838Y010995D01*
D18*
X009510Y011027D03*
X010625Y011027D03*
X012365Y013152D03*
X013743Y012562D03*
X014038Y010691D03*
X013447Y009707D03*
M02*
