G75*
G70*
%OFA0B0*%
%FSLAX24Y24*%
%IPPOS*%
%LPD*%
%AMOC8*
5,1,8,0,0,1.08239X$1,22.5*
%
%ADD10C,0.0000*%
%ADD11C,0.0050*%
%ADD12C,0.0020*%
%ADD13C,0.0030*%
%ADD14C,0.0080*%
%ADD15C,0.0020*%
%ADD16C,0.0008*%
%ADD17C,0.0060*%
%ADD18R,0.0160X0.0340*%
%ADD19C,0.0040*%
%ADD20R,0.0374X0.0197*%
%ADD21R,0.0125X0.1000*%
%ADD22R,0.0200X0.0200*%
%ADD23R,0.0089X0.0157*%
%ADD24R,0.0089X0.0098*%
%ADD25R,0.0340X0.0160*%
D10*
X000160Y000160D02*
X000160Y014136D01*
X015121Y014136D01*
X015121Y000160D01*
X000160Y000160D01*
X000559Y013069D02*
X000561Y013113D01*
X000567Y013157D01*
X000577Y013200D01*
X000590Y013242D01*
X000608Y013282D01*
X000629Y013321D01*
X000653Y013358D01*
X000680Y013393D01*
X000711Y013425D01*
X000744Y013454D01*
X000780Y013480D01*
X000818Y013502D01*
X000858Y013521D01*
X000899Y013537D01*
X000942Y013549D01*
X000985Y013557D01*
X001029Y013561D01*
X001073Y013561D01*
X001117Y013557D01*
X001160Y013549D01*
X001203Y013537D01*
X001244Y013521D01*
X001284Y013502D01*
X001322Y013480D01*
X001358Y013454D01*
X001391Y013425D01*
X001422Y013393D01*
X001449Y013358D01*
X001473Y013321D01*
X001494Y013282D01*
X001512Y013242D01*
X001525Y013200D01*
X001535Y013157D01*
X001541Y013113D01*
X001543Y013069D01*
X001541Y013025D01*
X001535Y012981D01*
X001525Y012938D01*
X001512Y012896D01*
X001494Y012856D01*
X001473Y012817D01*
X001449Y012780D01*
X001422Y012745D01*
X001391Y012713D01*
X001358Y012684D01*
X001322Y012658D01*
X001284Y012636D01*
X001244Y012617D01*
X001203Y012601D01*
X001160Y012589D01*
X001117Y012581D01*
X001073Y012577D01*
X001029Y012577D01*
X000985Y012581D01*
X000942Y012589D01*
X000899Y012601D01*
X000858Y012617D01*
X000818Y012636D01*
X000780Y012658D01*
X000744Y012684D01*
X000711Y012713D01*
X000680Y012745D01*
X000653Y012780D01*
X000629Y012817D01*
X000608Y012856D01*
X000590Y012896D01*
X000577Y012938D01*
X000567Y012981D01*
X000561Y013025D01*
X000559Y013069D01*
X013549Y001259D02*
X013551Y001303D01*
X013557Y001347D01*
X013567Y001390D01*
X013580Y001432D01*
X013598Y001472D01*
X013619Y001511D01*
X013643Y001548D01*
X013670Y001583D01*
X013701Y001615D01*
X013734Y001644D01*
X013770Y001670D01*
X013808Y001692D01*
X013848Y001711D01*
X013889Y001727D01*
X013932Y001739D01*
X013975Y001747D01*
X014019Y001751D01*
X014063Y001751D01*
X014107Y001747D01*
X014150Y001739D01*
X014193Y001727D01*
X014234Y001711D01*
X014274Y001692D01*
X014312Y001670D01*
X014348Y001644D01*
X014381Y001615D01*
X014412Y001583D01*
X014439Y001548D01*
X014463Y001511D01*
X014484Y001472D01*
X014502Y001432D01*
X014515Y001390D01*
X014525Y001347D01*
X014531Y001303D01*
X014533Y001259D01*
X014531Y001215D01*
X014525Y001171D01*
X014515Y001128D01*
X014502Y001086D01*
X014484Y001046D01*
X014463Y001007D01*
X014439Y000970D01*
X014412Y000935D01*
X014381Y000903D01*
X014348Y000874D01*
X014312Y000848D01*
X014274Y000826D01*
X014234Y000807D01*
X014193Y000791D01*
X014150Y000779D01*
X014107Y000771D01*
X014063Y000767D01*
X014019Y000767D01*
X013975Y000771D01*
X013932Y000779D01*
X013889Y000791D01*
X013848Y000807D01*
X013808Y000826D01*
X013770Y000848D01*
X013734Y000874D01*
X013701Y000903D01*
X013670Y000935D01*
X013643Y000970D01*
X013619Y001007D01*
X013598Y001046D01*
X013580Y001086D01*
X013567Y001128D01*
X013557Y001171D01*
X013551Y001215D01*
X013549Y001259D01*
D11*
X012625Y001277D02*
X012625Y013777D01*
X002625Y013777D01*
X002625Y001277D01*
X003113Y001538D02*
X003113Y001735D01*
X004688Y001735D01*
X004688Y003310D01*
X010593Y003310D01*
X010593Y001735D01*
X012168Y001735D01*
X012168Y001538D01*
X003113Y001538D01*
X003113Y001735D02*
X003113Y011774D01*
X012168Y011774D01*
X012168Y001735D01*
X012625Y001277D02*
X012623Y001217D01*
X012618Y001156D01*
X012609Y001097D01*
X012596Y001038D01*
X012580Y000979D01*
X012560Y000922D01*
X012537Y000867D01*
X012510Y000812D01*
X012481Y000760D01*
X012448Y000709D01*
X012412Y000660D01*
X012374Y000614D01*
X012332Y000570D01*
X012288Y000528D01*
X012242Y000490D01*
X012193Y000454D01*
X012142Y000421D01*
X012090Y000392D01*
X012035Y000365D01*
X011980Y000342D01*
X011923Y000322D01*
X011864Y000306D01*
X011805Y000293D01*
X011746Y000284D01*
X011685Y000279D01*
X011625Y000277D01*
X003625Y000277D01*
X004514Y000287D02*
X010814Y000287D01*
X010814Y002570D01*
X004514Y002570D01*
X004514Y000287D01*
X003625Y000277D02*
X003565Y000279D01*
X003504Y000284D01*
X003445Y000293D01*
X003386Y000306D01*
X003327Y000322D01*
X003270Y000342D01*
X003215Y000365D01*
X003160Y000392D01*
X003108Y000421D01*
X003057Y000454D01*
X003008Y000490D01*
X002962Y000528D01*
X002918Y000570D01*
X002876Y000614D01*
X002838Y000660D01*
X002802Y000709D01*
X002769Y000760D01*
X002740Y000812D01*
X002713Y000867D01*
X002690Y000922D01*
X002670Y000979D01*
X002654Y001038D01*
X002641Y001097D01*
X002632Y001156D01*
X002627Y001217D01*
X002625Y001277D01*
X003467Y002522D02*
X003469Y002563D01*
X003475Y002604D01*
X003485Y002644D01*
X003498Y002683D01*
X003515Y002720D01*
X003536Y002756D01*
X003560Y002790D01*
X003587Y002821D01*
X003616Y002849D01*
X003649Y002875D01*
X003683Y002897D01*
X003720Y002916D01*
X003758Y002931D01*
X003798Y002943D01*
X003838Y002951D01*
X003879Y002955D01*
X003921Y002955D01*
X003962Y002951D01*
X004002Y002943D01*
X004042Y002931D01*
X004080Y002916D01*
X004116Y002897D01*
X004151Y002875D01*
X004184Y002849D01*
X004213Y002821D01*
X004240Y002790D01*
X004264Y002756D01*
X004285Y002720D01*
X004302Y002683D01*
X004315Y002644D01*
X004325Y002604D01*
X004331Y002563D01*
X004333Y002522D01*
X004331Y002481D01*
X004325Y002440D01*
X004315Y002400D01*
X004302Y002361D01*
X004285Y002324D01*
X004264Y002288D01*
X004240Y002254D01*
X004213Y002223D01*
X004184Y002195D01*
X004151Y002169D01*
X004117Y002147D01*
X004080Y002128D01*
X004042Y002113D01*
X004002Y002101D01*
X003962Y002093D01*
X003921Y002089D01*
X003879Y002089D01*
X003838Y002093D01*
X003798Y002101D01*
X003758Y002113D01*
X003720Y002128D01*
X003684Y002147D01*
X003649Y002169D01*
X003616Y002195D01*
X003587Y002223D01*
X003560Y002254D01*
X003536Y002288D01*
X003515Y002324D01*
X003498Y002361D01*
X003485Y002400D01*
X003475Y002440D01*
X003469Y002481D01*
X003467Y002522D01*
X004515Y002567D02*
X004515Y009777D01*
X004525Y009777D02*
X010815Y009777D01*
X010815Y002567D01*
X010947Y002522D02*
X010949Y002563D01*
X010955Y002604D01*
X010965Y002644D01*
X010978Y002683D01*
X010995Y002720D01*
X011016Y002756D01*
X011040Y002790D01*
X011067Y002821D01*
X011096Y002849D01*
X011129Y002875D01*
X011163Y002897D01*
X011200Y002916D01*
X011238Y002931D01*
X011278Y002943D01*
X011318Y002951D01*
X011359Y002955D01*
X011401Y002955D01*
X011442Y002951D01*
X011482Y002943D01*
X011522Y002931D01*
X011560Y002916D01*
X011596Y002897D01*
X011631Y002875D01*
X011664Y002849D01*
X011693Y002821D01*
X011720Y002790D01*
X011744Y002756D01*
X011765Y002720D01*
X011782Y002683D01*
X011795Y002644D01*
X011805Y002604D01*
X011811Y002563D01*
X011813Y002522D01*
X011811Y002481D01*
X011805Y002440D01*
X011795Y002400D01*
X011782Y002361D01*
X011765Y002324D01*
X011744Y002288D01*
X011720Y002254D01*
X011693Y002223D01*
X011664Y002195D01*
X011631Y002169D01*
X011597Y002147D01*
X011560Y002128D01*
X011522Y002113D01*
X011482Y002101D01*
X011442Y002093D01*
X011401Y002089D01*
X011359Y002089D01*
X011318Y002093D01*
X011278Y002101D01*
X011238Y002113D01*
X011200Y002128D01*
X011164Y002147D01*
X011129Y002169D01*
X011096Y002195D01*
X011067Y002223D01*
X011040Y002254D01*
X011016Y002288D01*
X010995Y002324D01*
X010978Y002361D01*
X010965Y002400D01*
X010955Y002440D01*
X010949Y002481D01*
X010947Y002522D01*
X010593Y001735D02*
X004688Y001735D01*
X004525Y002567D02*
X004515Y002567D01*
X001106Y002610D02*
X001014Y002702D01*
X000555Y002702D01*
X000555Y002426D01*
X000647Y002335D01*
X000831Y002335D01*
X000922Y002426D01*
X000922Y002702D01*
X000831Y002887D02*
X000647Y002887D01*
X000555Y002979D01*
X000555Y003254D01*
X001014Y003254D01*
X001106Y003162D01*
X001106Y003071D01*
X000922Y002979D02*
X000922Y003254D01*
X000922Y003439D02*
X000922Y003623D01*
X000922Y003531D02*
X000555Y003531D01*
X000555Y003439D01*
X000372Y003531D02*
X000280Y003531D01*
X000647Y003808D02*
X000555Y003900D01*
X000555Y004083D01*
X000647Y004175D01*
X000739Y004175D01*
X000739Y003808D01*
X000831Y003808D02*
X000647Y003808D01*
X000831Y003808D02*
X000922Y003900D01*
X000922Y004083D01*
X000922Y002979D02*
X000831Y002887D01*
X001106Y002610D02*
X001106Y002518D01*
X000831Y002149D02*
X000647Y002149D01*
X000555Y002057D01*
X000555Y001874D01*
X000647Y001782D01*
X000831Y001782D01*
X000922Y001874D01*
X000922Y002057D01*
X000831Y002149D01*
X000922Y001597D02*
X000647Y001597D01*
X000555Y001505D01*
X000647Y001413D01*
X000922Y001413D01*
X000922Y001230D02*
X000555Y001230D01*
X000555Y001321D01*
X000647Y001413D01*
X000739Y001044D02*
X000831Y001044D01*
X000922Y000952D01*
X000922Y000769D01*
X000831Y000677D01*
X000647Y000769D02*
X000647Y000952D01*
X000739Y001044D01*
X000464Y001044D02*
X000372Y000952D01*
X000372Y000769D01*
X000464Y000677D01*
X000555Y000677D01*
X000647Y000769D01*
X005014Y008034D02*
X005017Y008163D01*
X005027Y008291D01*
X005042Y008419D01*
X005064Y008546D01*
X005093Y008672D01*
X005127Y008796D01*
X005168Y008919D01*
X005214Y009039D01*
X005266Y009157D01*
X005324Y009272D01*
X005388Y009384D01*
X005457Y009493D01*
X005531Y009598D01*
X005610Y009700D01*
X005694Y009798D01*
X005783Y009891D01*
X005876Y009980D01*
X005974Y010064D01*
X006076Y010143D01*
X006181Y010217D01*
X006290Y010286D01*
X006402Y010350D01*
X006517Y010408D01*
X006635Y010460D01*
X006755Y010506D01*
X006878Y010547D01*
X007002Y010581D01*
X007128Y010610D01*
X007255Y010632D01*
X007383Y010647D01*
X007511Y010657D01*
X007640Y010660D01*
X007769Y010657D01*
X007897Y010647D01*
X008025Y010632D01*
X008152Y010610D01*
X008278Y010581D01*
X008402Y010547D01*
X008525Y010506D01*
X008645Y010460D01*
X008763Y010408D01*
X008878Y010350D01*
X008990Y010286D01*
X009099Y010217D01*
X009204Y010143D01*
X009306Y010064D01*
X009404Y009980D01*
X009497Y009891D01*
X009586Y009798D01*
X009670Y009700D01*
X009749Y009598D01*
X009823Y009493D01*
X009892Y009384D01*
X009956Y009272D01*
X010014Y009157D01*
X010066Y009039D01*
X010112Y008919D01*
X010153Y008796D01*
X010187Y008672D01*
X010216Y008546D01*
X010238Y008419D01*
X010253Y008291D01*
X010263Y008163D01*
X010266Y008034D01*
X010263Y007905D01*
X010253Y007777D01*
X010238Y007649D01*
X010216Y007522D01*
X010187Y007396D01*
X010153Y007272D01*
X010112Y007149D01*
X010066Y007029D01*
X010014Y006911D01*
X009956Y006796D01*
X009892Y006684D01*
X009823Y006575D01*
X009749Y006470D01*
X009670Y006368D01*
X009586Y006270D01*
X009497Y006177D01*
X009404Y006088D01*
X009306Y006004D01*
X009204Y005925D01*
X009099Y005851D01*
X008990Y005782D01*
X008878Y005718D01*
X008763Y005660D01*
X008645Y005608D01*
X008525Y005562D01*
X008402Y005521D01*
X008278Y005487D01*
X008152Y005458D01*
X008025Y005436D01*
X007897Y005421D01*
X007769Y005411D01*
X007640Y005408D01*
X007511Y005411D01*
X007383Y005421D01*
X007255Y005436D01*
X007128Y005458D01*
X007002Y005487D01*
X006878Y005521D01*
X006755Y005562D01*
X006635Y005608D01*
X006517Y005660D01*
X006402Y005718D01*
X006290Y005782D01*
X006181Y005851D01*
X006076Y005925D01*
X005974Y006004D01*
X005876Y006088D01*
X005783Y006177D01*
X005694Y006270D01*
X005610Y006368D01*
X005531Y006470D01*
X005457Y006575D01*
X005388Y006684D01*
X005324Y006796D01*
X005266Y006911D01*
X005214Y007029D01*
X005168Y007149D01*
X005127Y007272D01*
X005093Y007396D01*
X005064Y007522D01*
X005042Y007649D01*
X005027Y007777D01*
X005017Y007905D01*
X005014Y008034D01*
X002733Y010244D02*
X002733Y010319D01*
X002658Y010394D01*
X002283Y010394D01*
X002283Y010319D02*
X002283Y010469D01*
X002283Y010629D02*
X002283Y010854D01*
X002358Y010929D01*
X002508Y010929D01*
X002583Y010854D01*
X002583Y010629D01*
X002733Y010629D02*
X002283Y010629D01*
X002433Y011089D02*
X002283Y011239D01*
X002733Y011239D01*
X002733Y011089D02*
X002733Y011390D01*
X003408Y011184D02*
X003410Y011218D01*
X003416Y011252D01*
X003426Y011285D01*
X003439Y011316D01*
X003457Y011346D01*
X003477Y011374D01*
X003501Y011399D01*
X003527Y011421D01*
X003555Y011439D01*
X003586Y011455D01*
X003618Y011467D01*
X003652Y011475D01*
X003686Y011479D01*
X003720Y011479D01*
X003754Y011475D01*
X003788Y011467D01*
X003820Y011455D01*
X003850Y011439D01*
X003879Y011421D01*
X003905Y011399D01*
X003929Y011374D01*
X003949Y011346D01*
X003967Y011316D01*
X003980Y011285D01*
X003990Y011252D01*
X003996Y011218D01*
X003998Y011184D01*
X003996Y011150D01*
X003990Y011116D01*
X003980Y011083D01*
X003967Y011052D01*
X003949Y011022D01*
X003929Y010994D01*
X003905Y010969D01*
X003879Y010947D01*
X003851Y010929D01*
X003820Y010913D01*
X003788Y010901D01*
X003754Y010893D01*
X003720Y010889D01*
X003686Y010889D01*
X003652Y010893D01*
X003618Y010901D01*
X003586Y010913D01*
X003555Y010929D01*
X003527Y010947D01*
X003501Y010969D01*
X003477Y010994D01*
X003457Y011022D01*
X003439Y011052D01*
X003426Y011083D01*
X003416Y011116D01*
X003410Y011150D01*
X003408Y011184D01*
X002733Y010244D02*
X002658Y010168D01*
X011282Y011184D02*
X011284Y011218D01*
X011290Y011252D01*
X011300Y011285D01*
X011313Y011316D01*
X011331Y011346D01*
X011351Y011374D01*
X011375Y011399D01*
X011401Y011421D01*
X011429Y011439D01*
X011460Y011455D01*
X011492Y011467D01*
X011526Y011475D01*
X011560Y011479D01*
X011594Y011479D01*
X011628Y011475D01*
X011662Y011467D01*
X011694Y011455D01*
X011724Y011439D01*
X011753Y011421D01*
X011779Y011399D01*
X011803Y011374D01*
X011823Y011346D01*
X011841Y011316D01*
X011854Y011285D01*
X011864Y011252D01*
X011870Y011218D01*
X011872Y011184D01*
X011870Y011150D01*
X011864Y011116D01*
X011854Y011083D01*
X011841Y011052D01*
X011823Y011022D01*
X011803Y010994D01*
X011779Y010969D01*
X011753Y010947D01*
X011725Y010929D01*
X011694Y010913D01*
X011662Y010901D01*
X011628Y010893D01*
X011594Y010889D01*
X011560Y010889D01*
X011526Y010893D01*
X011492Y010901D01*
X011460Y010913D01*
X011429Y010929D01*
X011401Y010947D01*
X011375Y010969D01*
X011351Y010994D01*
X011331Y011022D01*
X011313Y011052D01*
X011300Y011083D01*
X011290Y011116D01*
X011284Y011150D01*
X011282Y011184D01*
D12*
X012608Y009741D02*
X012645Y009741D01*
X012681Y009705D01*
X012718Y009741D01*
X012755Y009741D01*
X012792Y009705D01*
X012792Y009631D01*
X012755Y009595D01*
X012755Y009520D02*
X012608Y009520D01*
X012571Y009484D01*
X012571Y009374D01*
X012792Y009374D01*
X012792Y009484D01*
X012755Y009520D01*
X012608Y009595D02*
X012571Y009631D01*
X012571Y009705D01*
X012608Y009741D01*
X012681Y009705D02*
X012681Y009668D01*
X012571Y009299D02*
X012571Y009153D01*
X012792Y009153D01*
X012792Y009299D01*
X012681Y009226D02*
X012681Y009153D01*
X012792Y009079D02*
X012792Y008932D01*
X012571Y008932D01*
X012775Y007576D02*
X012885Y007576D01*
X012922Y007539D01*
X012922Y007466D01*
X012885Y007429D01*
X012775Y007429D01*
X012848Y007429D02*
X012922Y007356D01*
X012996Y007392D02*
X013033Y007356D01*
X013106Y007356D01*
X013143Y007392D01*
X013143Y007466D01*
X013106Y007502D01*
X013069Y007502D01*
X012996Y007466D01*
X012996Y007576D01*
X013143Y007576D01*
X013464Y007576D02*
X013464Y007356D01*
X013464Y007429D02*
X013574Y007429D01*
X013611Y007466D01*
X013611Y007539D01*
X013574Y007576D01*
X013464Y007576D01*
X013537Y007429D02*
X013611Y007356D01*
X013685Y007466D02*
X013832Y007466D01*
X013795Y007356D02*
X013795Y007576D01*
X013685Y007466D01*
X014350Y007429D02*
X014460Y007429D01*
X014496Y007466D01*
X014496Y007539D01*
X014460Y007576D01*
X014350Y007576D01*
X014350Y007356D01*
X014423Y007429D02*
X014496Y007356D01*
X014571Y007392D02*
X014607Y007356D01*
X014681Y007356D01*
X014717Y007392D01*
X014717Y007429D01*
X014681Y007466D01*
X014644Y007466D01*
X014681Y007466D02*
X014717Y007502D01*
X014717Y007539D01*
X014681Y007576D01*
X014607Y007576D01*
X014571Y007539D01*
X014792Y009028D02*
X015012Y009028D01*
X015012Y009175D01*
X015012Y009249D02*
X015012Y009396D01*
X015012Y009470D02*
X015012Y009580D01*
X014976Y009617D01*
X014829Y009617D01*
X014792Y009580D01*
X014792Y009470D01*
X015012Y009470D01*
X014902Y009323D02*
X014902Y009249D01*
X014792Y009249D02*
X014792Y009396D01*
X014792Y009249D02*
X015012Y009249D01*
X015012Y009691D02*
X015012Y009838D01*
X015012Y009765D02*
X014792Y009765D01*
X014865Y009691D01*
X014323Y009691D02*
X014176Y009838D01*
X014140Y009838D01*
X014103Y009801D01*
X014103Y009728D01*
X014140Y009691D01*
X014140Y009617D02*
X014103Y009580D01*
X014103Y009470D01*
X014323Y009470D01*
X014323Y009580D01*
X014287Y009617D01*
X014140Y009617D01*
X014323Y009691D02*
X014323Y009838D01*
X014323Y009396D02*
X014323Y009249D01*
X014103Y009249D01*
X014103Y009396D01*
X014213Y009323D02*
X014213Y009249D01*
X014323Y009175D02*
X014323Y009028D01*
X014103Y009028D01*
X012775Y007576D02*
X012775Y007356D01*
X014804Y004837D02*
X014914Y004837D01*
X014914Y004763D02*
X014804Y004763D01*
X014767Y004800D01*
X014804Y004837D01*
X014804Y004763D02*
X014767Y004727D01*
X014767Y004690D01*
X014914Y004690D01*
X014877Y004616D02*
X014804Y004616D01*
X014767Y004579D01*
X014767Y004506D01*
X014804Y004469D01*
X014877Y004469D01*
X014914Y004506D01*
X014914Y004579D01*
X014877Y004616D01*
X014914Y004395D02*
X014914Y004285D01*
X014877Y004248D01*
X014804Y004248D01*
X014767Y004285D01*
X014767Y004395D01*
X014877Y004174D02*
X014914Y004174D01*
X014914Y004138D01*
X014877Y004138D01*
X014877Y004174D01*
X014767Y004064D02*
X014767Y004027D01*
X014840Y003953D01*
X014767Y003953D02*
X014914Y003953D01*
X014877Y003879D02*
X014804Y003879D01*
X014767Y003843D01*
X014767Y003769D01*
X014804Y003732D01*
X014877Y003732D01*
X014914Y003769D01*
X014914Y003843D01*
X014877Y003879D01*
X014914Y003659D02*
X014877Y003622D01*
X014730Y003622D01*
X014767Y003585D02*
X014767Y003659D01*
X014767Y003474D02*
X014914Y003474D01*
X014914Y003438D02*
X014914Y003511D01*
X014914Y003364D02*
X014804Y003364D01*
X014767Y003327D01*
X014767Y003217D01*
X014914Y003217D01*
X014877Y003143D02*
X014804Y003143D01*
X014767Y003106D01*
X014767Y003033D01*
X014804Y002996D01*
X014877Y002996D01*
X014914Y003033D01*
X014914Y003106D01*
X014877Y003143D01*
X014914Y002922D02*
X014804Y002922D01*
X014767Y002885D01*
X014804Y002848D01*
X014914Y002848D01*
X014914Y002775D02*
X014767Y002775D01*
X014767Y002812D01*
X014804Y002848D01*
X014767Y002701D02*
X014767Y002591D01*
X014804Y002554D01*
X014877Y002554D01*
X014914Y002591D01*
X014914Y002701D01*
X014694Y002701D01*
X014804Y002480D02*
X014914Y002480D01*
X014914Y002370D01*
X014877Y002333D01*
X014840Y002370D01*
X014840Y002480D01*
X014804Y002480D02*
X014767Y002443D01*
X014767Y002370D01*
X014767Y002259D02*
X014767Y002222D01*
X014840Y002149D01*
X014767Y002149D02*
X014914Y002149D01*
X014914Y002075D02*
X014767Y002075D01*
X014914Y002075D02*
X014914Y001964D01*
X014877Y001928D01*
X014767Y001928D01*
X014877Y001854D02*
X014914Y001854D01*
X014914Y001817D01*
X014877Y001817D01*
X014877Y001854D01*
X014877Y001743D02*
X014767Y001743D01*
X014877Y001743D02*
X014914Y001706D01*
X014877Y001670D01*
X014914Y001633D01*
X014877Y001596D01*
X014767Y001596D01*
X014767Y001522D02*
X014877Y001522D01*
X014914Y001485D01*
X014877Y001449D01*
X014914Y001412D01*
X014877Y001375D01*
X014767Y001375D01*
X014767Y001301D02*
X014877Y001301D01*
X014914Y001264D01*
X014877Y001228D01*
X014914Y001191D01*
X014877Y001154D01*
X014767Y001154D01*
X014767Y003438D02*
X014767Y003474D01*
X014694Y003474D02*
X014657Y003474D01*
X013566Y010827D02*
X013346Y010827D01*
X013346Y010938D01*
X013383Y010974D01*
X013456Y010974D01*
X013493Y010938D01*
X013493Y010827D01*
X013493Y010901D02*
X013566Y010974D01*
X013566Y011048D02*
X013566Y011195D01*
X013566Y011122D02*
X013346Y011122D01*
X013420Y011048D01*
X013493Y011743D02*
X013493Y011853D01*
X013456Y011890D01*
X013383Y011890D01*
X013346Y011853D01*
X013346Y011743D01*
X013566Y011743D01*
X013493Y011816D02*
X013566Y011890D01*
X013566Y011964D02*
X013420Y012111D01*
X013383Y012111D01*
X013346Y012074D01*
X013346Y012001D01*
X013383Y011964D01*
X013566Y011964D02*
X013566Y012111D01*
X014878Y012127D02*
X014914Y012090D01*
X014951Y012090D01*
X014988Y012127D01*
X014988Y012200D01*
X015024Y012237D01*
X015061Y012237D01*
X015098Y012200D01*
X015098Y012127D01*
X015061Y012090D01*
X014878Y012127D02*
X014878Y012200D01*
X014914Y012237D01*
X014878Y012311D02*
X015098Y012311D01*
X015098Y012458D01*
X015098Y012532D02*
X014878Y012532D01*
X015098Y012679D01*
X014878Y012679D01*
X014914Y012753D02*
X014951Y012753D01*
X014988Y012790D01*
X014988Y012863D01*
X015024Y012900D01*
X015061Y012900D01*
X015098Y012863D01*
X015098Y012790D01*
X015061Y012753D01*
X014914Y012753D02*
X014878Y012790D01*
X014878Y012863D01*
X014914Y012900D01*
X014914Y012974D02*
X015061Y012974D01*
X015098Y013011D01*
X015098Y013084D01*
X015061Y013121D01*
X014914Y013121D01*
X014878Y013084D01*
X014878Y013011D01*
X014914Y012974D01*
X014878Y013195D02*
X014878Y013305D01*
X014914Y013342D01*
X014988Y013342D01*
X015024Y013305D01*
X015024Y013195D01*
X015024Y013269D02*
X015098Y013342D01*
X015098Y013416D02*
X014951Y013563D01*
X014914Y013563D01*
X014878Y013526D01*
X014878Y013453D01*
X014914Y013416D01*
X015098Y013416D02*
X015098Y013563D01*
X015098Y013195D02*
X014878Y013195D01*
X014878Y012458D02*
X014878Y012311D01*
X014988Y012311D02*
X014988Y012385D01*
X012892Y013457D02*
X012892Y013530D01*
X012855Y013567D01*
X012892Y013641D02*
X012892Y013788D01*
X012892Y013714D02*
X012672Y013714D01*
X012745Y013641D01*
X012709Y013567D02*
X012672Y013530D01*
X012672Y013457D01*
X012709Y013420D01*
X012855Y013420D01*
X012892Y013457D01*
X004110Y012921D02*
X003963Y012921D01*
X004036Y012921D02*
X004036Y013141D01*
X003963Y013068D01*
X003889Y013104D02*
X003852Y013141D01*
X003779Y013141D01*
X003742Y013104D01*
X003742Y013068D01*
X003779Y013031D01*
X003852Y013031D01*
X003889Y012994D01*
X003889Y012958D01*
X003852Y012921D01*
X003779Y012921D01*
X003742Y012958D01*
X003668Y012958D02*
X003668Y013104D01*
X003631Y013141D01*
X003558Y013141D01*
X003521Y013104D01*
X003521Y012958D01*
X003558Y012921D01*
X003631Y012921D01*
X003668Y012958D01*
X003447Y012921D02*
X003447Y013141D01*
X003373Y013068D01*
X003300Y013141D01*
X003300Y012921D01*
X003226Y012921D02*
X003079Y012921D01*
X003079Y013141D01*
X003226Y013141D01*
X003152Y013031D02*
X003079Y013031D01*
X003005Y012921D02*
X003005Y013141D01*
X002858Y013141D02*
X002858Y012921D01*
X002931Y012994D01*
X003005Y012921D01*
X001319Y001693D02*
X001319Y001546D01*
X001209Y001656D01*
X001430Y001656D01*
X001393Y001472D02*
X001430Y001435D01*
X001430Y001362D01*
X001393Y001325D01*
X001246Y001472D01*
X001393Y001472D01*
X001393Y001325D02*
X001246Y001325D01*
X001209Y001362D01*
X001209Y001435D01*
X001246Y001472D01*
X001246Y001251D02*
X001393Y001104D01*
X001430Y001141D01*
X001430Y001214D01*
X001393Y001251D01*
X001246Y001251D01*
X001209Y001214D01*
X001209Y001141D01*
X001246Y001104D01*
X001393Y001104D01*
X001430Y001030D02*
X001356Y000957D01*
X001430Y000883D01*
X001209Y000883D01*
X001209Y000809D02*
X001430Y000809D01*
X001319Y000809D02*
X001319Y000662D01*
X001209Y000662D02*
X001430Y000662D01*
X001430Y001030D02*
X001209Y001030D01*
D13*
X003736Y003132D02*
X003736Y003422D01*
X003640Y003422D02*
X003833Y003422D01*
X003934Y003422D02*
X004128Y003132D01*
X003934Y003132D02*
X004128Y003422D01*
X004128Y004132D02*
X003934Y004422D01*
X003833Y004374D02*
X003833Y004277D01*
X003785Y004229D01*
X003640Y004229D01*
X003736Y004229D02*
X003833Y004132D01*
X003934Y004132D02*
X004128Y004422D01*
X003833Y004374D02*
X003785Y004422D01*
X003640Y004422D01*
X003640Y004132D01*
X003640Y005132D02*
X003785Y005132D01*
X003833Y005180D01*
X003833Y005374D01*
X003785Y005422D01*
X003640Y005422D01*
X003640Y005132D01*
X003934Y005132D02*
X004128Y005132D01*
X004031Y005132D02*
X004031Y005422D01*
X003934Y005326D01*
X003934Y006132D02*
X004128Y006326D01*
X004128Y006374D01*
X004079Y006422D01*
X003983Y006422D01*
X003934Y006374D01*
X003833Y006374D02*
X003833Y006180D01*
X003785Y006132D01*
X003640Y006132D01*
X003640Y006422D01*
X003785Y006422D01*
X003833Y006374D01*
X003934Y006132D02*
X004128Y006132D01*
X004079Y007132D02*
X003983Y007132D01*
X003934Y007180D01*
X003833Y007180D02*
X003785Y007132D01*
X003640Y007132D01*
X003640Y007422D01*
X003785Y007422D01*
X003833Y007374D01*
X003833Y007180D01*
X003934Y007374D02*
X003983Y007422D01*
X004079Y007422D01*
X004128Y007374D01*
X004128Y007326D01*
X004079Y007277D01*
X004128Y007229D01*
X004128Y007180D01*
X004079Y007132D01*
X004079Y007277D02*
X004031Y007277D01*
X004079Y008132D02*
X004079Y008422D01*
X003934Y008277D01*
X004128Y008277D01*
X003833Y008180D02*
X003833Y008374D01*
X003785Y008422D01*
X003640Y008422D01*
X003640Y008132D01*
X003785Y008132D01*
X003833Y008180D01*
X003785Y009132D02*
X003688Y009132D01*
X003640Y009180D01*
X003640Y009374D01*
X003688Y009422D01*
X003785Y009422D01*
X003833Y009374D01*
X003833Y009277D02*
X003736Y009277D01*
X003833Y009277D02*
X003833Y009180D01*
X003785Y009132D01*
X003934Y009132D02*
X003934Y009422D01*
X004128Y009132D01*
X004128Y009422D01*
X004229Y009422D02*
X004374Y009422D01*
X004422Y009374D01*
X004422Y009180D01*
X004374Y009132D01*
X004229Y009132D01*
X004229Y009422D01*
X004031Y010132D02*
X004128Y010229D01*
X004128Y010422D01*
X003934Y010422D02*
X003934Y010229D01*
X004031Y010132D01*
X003833Y010180D02*
X003833Y010277D01*
X003785Y010326D01*
X003736Y010326D01*
X003640Y010277D01*
X003640Y010422D01*
X003833Y010422D01*
X003833Y010180D02*
X003785Y010132D01*
X003688Y010132D01*
X003640Y010180D01*
X006510Y012680D02*
X006558Y012632D01*
X006655Y012632D01*
X006704Y012680D01*
X006704Y012922D01*
X006805Y012874D02*
X006805Y012826D01*
X006853Y012777D01*
X006950Y012777D01*
X006998Y012729D01*
X006998Y012680D01*
X006950Y012632D01*
X006853Y012632D01*
X006805Y012680D01*
X006805Y012874D02*
X006853Y012922D01*
X006950Y012922D01*
X006998Y012874D01*
X007099Y012922D02*
X007099Y012632D01*
X007244Y012632D01*
X007293Y012680D01*
X007293Y012729D01*
X007244Y012777D01*
X007099Y012777D01*
X007099Y012922D02*
X007244Y012922D01*
X007293Y012874D01*
X007293Y012826D01*
X007244Y012777D01*
X006510Y012680D02*
X006510Y012922D01*
X009979Y011843D02*
X009979Y011649D01*
X009979Y011746D02*
X010270Y011746D01*
X010270Y011548D02*
X010270Y011355D01*
X009979Y011355D01*
X009979Y011548D01*
X010124Y011451D02*
X010124Y011355D01*
X010173Y011253D02*
X010124Y011205D01*
X010124Y011108D01*
X010076Y011060D01*
X010028Y011060D01*
X009979Y011108D01*
X009979Y011205D01*
X010028Y011253D01*
X010173Y011253D02*
X010221Y011253D01*
X010270Y011205D01*
X010270Y011108D01*
X010221Y011060D01*
X010270Y010959D02*
X010270Y010765D01*
X009979Y010765D01*
X009979Y010959D01*
X010124Y010862D02*
X010124Y010765D01*
X010124Y010664D02*
X010173Y010616D01*
X010173Y010471D01*
X010173Y010567D02*
X010270Y010664D01*
X010124Y010664D02*
X010028Y010664D01*
X009979Y010616D01*
X009979Y010471D01*
X010270Y010471D01*
X010756Y010374D02*
X010804Y010422D01*
X010901Y010422D01*
X010949Y010374D01*
X010949Y010326D01*
X010901Y010277D01*
X010949Y010229D01*
X010949Y010180D01*
X010901Y010132D01*
X010804Y010132D01*
X010756Y010180D01*
X010852Y010277D02*
X010901Y010277D01*
X011050Y010229D02*
X011147Y010132D01*
X011244Y010229D01*
X011244Y010422D01*
X011345Y010374D02*
X011393Y010422D01*
X011490Y010422D01*
X011538Y010374D01*
X011538Y010326D01*
X011490Y010277D01*
X011538Y010229D01*
X011538Y010180D01*
X011490Y010132D01*
X011393Y010132D01*
X011345Y010180D01*
X011442Y010277D02*
X011490Y010277D01*
X011050Y010229D02*
X011050Y010422D01*
X011050Y009422D02*
X011195Y009422D01*
X011244Y009374D01*
X011244Y009180D01*
X011195Y009132D01*
X011050Y009132D01*
X011050Y009422D01*
X011345Y009374D02*
X011345Y009326D01*
X011393Y009277D01*
X011490Y009277D01*
X011538Y009229D01*
X011538Y009180D01*
X011490Y009132D01*
X011393Y009132D01*
X011345Y009180D01*
X011345Y009229D01*
X011393Y009277D01*
X011490Y009277D02*
X011538Y009326D01*
X011538Y009374D01*
X011490Y009422D01*
X011393Y009422D01*
X011345Y009374D01*
X011345Y008422D02*
X011538Y008422D01*
X011538Y008374D01*
X011345Y008180D01*
X011345Y008132D01*
X011244Y008180D02*
X011244Y008374D01*
X011195Y008422D01*
X011050Y008422D01*
X011050Y008132D01*
X011195Y008132D01*
X011244Y008180D01*
X011195Y007422D02*
X011050Y007422D01*
X011050Y007132D01*
X011195Y007132D01*
X011244Y007180D01*
X011244Y007374D01*
X011195Y007422D01*
X011345Y007277D02*
X011490Y007277D01*
X011538Y007229D01*
X011538Y007180D01*
X011490Y007132D01*
X011393Y007132D01*
X011345Y007180D01*
X011345Y007277D01*
X011442Y007374D01*
X011538Y007422D01*
X011538Y006422D02*
X011345Y006422D01*
X011345Y006277D01*
X011442Y006326D01*
X011490Y006326D01*
X011538Y006277D01*
X011538Y006180D01*
X011490Y006132D01*
X011393Y006132D01*
X011345Y006180D01*
X011244Y006180D02*
X011195Y006132D01*
X011050Y006132D01*
X011050Y006422D01*
X011195Y006422D01*
X011244Y006374D01*
X011244Y006180D01*
X011195Y005422D02*
X011050Y005422D01*
X011050Y005132D01*
X011195Y005132D01*
X011244Y005180D01*
X011244Y005374D01*
X011195Y005422D01*
X011345Y005374D02*
X011393Y005422D01*
X011490Y005422D01*
X011538Y005374D01*
X011345Y005180D01*
X011393Y005132D01*
X011490Y005132D01*
X011538Y005180D01*
X011538Y005374D01*
X011345Y005374D02*
X011345Y005180D01*
X011393Y004422D02*
X011490Y004422D01*
X011538Y004374D01*
X011345Y004180D01*
X011393Y004132D01*
X011490Y004132D01*
X011538Y004180D01*
X011538Y004374D01*
X011393Y004422D02*
X011345Y004374D01*
X011345Y004180D01*
X011244Y004132D02*
X011244Y004326D01*
X011147Y004422D01*
X011050Y004326D01*
X011050Y004132D01*
X011050Y004277D02*
X011244Y004277D01*
X011195Y003422D02*
X011099Y003422D01*
X011050Y003374D01*
X011050Y003326D01*
X011099Y003277D01*
X011195Y003277D01*
X011244Y003229D01*
X011244Y003180D01*
X011195Y003132D01*
X011099Y003132D01*
X011050Y003180D01*
X010949Y003132D02*
X010852Y003229D01*
X010901Y003229D02*
X010756Y003229D01*
X010756Y003132D02*
X010756Y003422D01*
X010901Y003422D01*
X010949Y003374D01*
X010949Y003277D01*
X010901Y003229D01*
X011195Y003422D02*
X011244Y003374D01*
X011345Y003422D02*
X011538Y003422D01*
X011442Y003422D02*
X011442Y003132D01*
X010142Y001422D02*
X009997Y001422D01*
X009997Y001132D01*
X009997Y001229D02*
X010142Y001229D01*
X010190Y001277D01*
X010190Y001374D01*
X010142Y001422D01*
X010094Y001229D02*
X010190Y001132D01*
X009896Y001132D02*
X009896Y001326D01*
X009799Y001422D01*
X009702Y001326D01*
X009702Y001132D01*
X009601Y001132D02*
X009407Y001132D01*
X009407Y001422D01*
X009601Y001422D01*
X009504Y001277D02*
X009407Y001277D01*
X009306Y001132D02*
X009113Y001132D01*
X009113Y001422D01*
X009012Y001374D02*
X008963Y001422D01*
X008867Y001422D01*
X008818Y001374D01*
X008818Y001180D01*
X008867Y001132D01*
X008963Y001132D01*
X009012Y001180D01*
X008422Y001277D02*
X008374Y001229D01*
X008229Y001229D01*
X008229Y001132D02*
X008229Y001422D01*
X008374Y001422D01*
X008422Y001374D01*
X008422Y001277D01*
X008128Y001132D02*
X007934Y001132D01*
X007934Y001422D01*
X008128Y001422D01*
X008031Y001277D02*
X007934Y001277D01*
X007833Y001132D02*
X007640Y001132D01*
X007640Y001422D01*
X007833Y001422D01*
X007736Y001277D02*
X007640Y001277D01*
X007538Y001132D02*
X007393Y001277D01*
X007345Y001229D02*
X007538Y001422D01*
X007345Y001422D02*
X007345Y001132D01*
X006949Y001132D02*
X006949Y001326D01*
X006852Y001422D01*
X006756Y001326D01*
X006756Y001132D01*
X006654Y001132D02*
X006654Y001422D01*
X006756Y001277D02*
X006949Y001277D01*
X006654Y001132D02*
X006461Y001422D01*
X006461Y001132D01*
X006360Y001132D02*
X006360Y001422D01*
X006166Y001422D02*
X006360Y001132D01*
X006166Y001132D02*
X006166Y001422D01*
X006065Y001422D02*
X005872Y001422D01*
X005872Y001132D01*
X006065Y001132D01*
X005968Y001277D02*
X005872Y001277D01*
X005771Y001422D02*
X005577Y001422D01*
X005674Y001422D02*
X005674Y001132D01*
X005476Y001132D02*
X005476Y001422D01*
X005282Y001422D02*
X005282Y001132D01*
X005181Y001132D02*
X005181Y001326D01*
X005084Y001422D01*
X004988Y001326D01*
X004988Y001132D01*
X004988Y001277D02*
X005181Y001277D01*
X005282Y001422D02*
X005476Y001132D01*
X009702Y001277D02*
X009896Y001277D01*
D14*
X010625Y011277D02*
X010625Y013277D01*
X012125Y013277D01*
X012125Y011277D01*
X010625Y011277D01*
X009125Y011777D02*
X009125Y013777D01*
X006125Y013777D01*
X006125Y011777D01*
X009125Y011777D01*
D15*
X013743Y012817D02*
X013743Y013684D01*
X013744Y013697D01*
X013749Y013710D01*
X013756Y013721D01*
X013765Y013730D01*
X013776Y013737D01*
X013789Y013742D01*
X013802Y013743D01*
X014668Y013743D01*
X014681Y013742D01*
X014694Y013737D01*
X014705Y013730D01*
X014714Y013721D01*
X014721Y013710D01*
X014726Y013697D01*
X014727Y013684D01*
X014727Y012817D01*
X014726Y012804D01*
X014721Y012791D01*
X014714Y012780D01*
X014705Y012771D01*
X014694Y012764D01*
X014681Y012759D01*
X014668Y012758D01*
X013802Y012758D01*
X013789Y012759D01*
X013776Y012764D01*
X013765Y012771D01*
X013756Y012780D01*
X013749Y012791D01*
X013744Y012804D01*
X013743Y012817D01*
X013851Y013276D02*
X013853Y013292D01*
X013858Y013307D01*
X013867Y013320D01*
X013879Y013331D01*
X013893Y013339D01*
X013908Y013344D01*
X013924Y013345D01*
X013940Y013342D01*
X013954Y013336D01*
X013967Y013326D01*
X013978Y013314D01*
X013985Y013300D01*
X013989Y013284D01*
X013989Y013268D01*
X013985Y013252D01*
X013978Y013238D01*
X013967Y013226D01*
X013955Y013216D01*
X013940Y013210D01*
X013924Y013207D01*
X013908Y013208D01*
X013893Y013213D01*
X013879Y013221D01*
X013867Y013232D01*
X013858Y013245D01*
X013853Y013260D01*
X013851Y013276D01*
X014570Y013054D02*
X014572Y013066D01*
X014577Y013077D01*
X014586Y013086D01*
X014597Y013091D01*
X014609Y013093D01*
X014621Y013091D01*
X014632Y013086D01*
X014641Y013077D01*
X014646Y013066D01*
X014648Y013054D01*
X014646Y013042D01*
X014641Y013031D01*
X014632Y013022D01*
X014621Y013017D01*
X014609Y013015D01*
X014597Y013017D01*
X014586Y013022D01*
X014577Y013031D01*
X014572Y013042D01*
X014570Y013054D01*
D16*
X014668Y012857D02*
X014667Y012847D01*
X014663Y012837D01*
X014657Y012829D01*
X014648Y012823D01*
X014639Y012819D01*
X014629Y012818D01*
X014629Y012817D02*
X013841Y012817D01*
X013841Y012818D02*
X013831Y012819D01*
X013822Y012823D01*
X013813Y012829D01*
X013807Y012837D01*
X013803Y012847D01*
X013802Y012857D01*
X013802Y013644D01*
X013803Y013654D01*
X013807Y013663D01*
X013813Y013672D01*
X013822Y013678D01*
X013831Y013682D01*
X013841Y013683D01*
X013841Y013684D02*
X014629Y013684D01*
X014629Y013683D02*
X014639Y013682D01*
X014649Y013678D01*
X014657Y013672D01*
X014663Y013663D01*
X014667Y013654D01*
X014668Y013644D01*
X014668Y012857D01*
D17*
X014405Y012111D02*
X014065Y012111D01*
X014065Y011831D02*
X014405Y011831D01*
X014405Y011225D02*
X014065Y011225D01*
X014065Y010945D02*
X014405Y010945D01*
X014488Y008401D02*
X014488Y008061D01*
X014769Y008061D02*
X014769Y008401D01*
X013981Y008401D02*
X013981Y008061D01*
X013701Y008061D02*
X013701Y008401D01*
X013194Y008401D02*
X013194Y008061D01*
X012914Y008061D02*
X012914Y008401D01*
X002038Y009745D02*
X001788Y009495D01*
X001288Y009495D01*
X001038Y009745D01*
X001038Y010245D01*
X001288Y010495D01*
X001038Y010745D01*
X001038Y011245D01*
X001288Y011495D01*
X001788Y011495D01*
X002038Y011245D01*
X002038Y010745D01*
X001788Y010495D01*
X002038Y010245D01*
X002038Y009745D01*
X001788Y010495D02*
X001288Y010495D01*
D18*
X013985Y011085D03*
X014485Y011085D03*
X014485Y011971D03*
X013985Y011971D03*
D19*
X013416Y013110D02*
X013416Y013391D01*
X013080Y013391D02*
X013080Y013110D01*
X013191Y009707D02*
X012916Y009707D01*
X012916Y009117D01*
X013191Y009117D01*
X013191Y009707D01*
X013172Y009589D02*
X012936Y009589D01*
X012916Y009491D02*
X012916Y009333D01*
X012936Y009235D02*
X013172Y009235D01*
X013191Y009333D02*
X013191Y009491D01*
X013703Y009491D02*
X013703Y009333D01*
X013723Y009235D02*
X013959Y009235D01*
X013979Y009333D02*
X013979Y009491D01*
X013959Y009589D02*
X013723Y009589D01*
X013703Y009707D02*
X013979Y009707D01*
X013979Y009117D01*
X013703Y009117D01*
X013703Y009707D01*
X014491Y009707D02*
X014491Y009117D01*
X014766Y009117D01*
X014766Y009707D01*
X014491Y009707D01*
X014510Y009589D02*
X014747Y009589D01*
X014766Y009491D02*
X014766Y009333D01*
X014747Y009235D02*
X014510Y009235D01*
X014491Y009333D02*
X014491Y009491D01*
D20*
X013249Y013019D03*
X013249Y013479D03*
D21*
X009200Y002643D03*
X008700Y002643D03*
X008262Y002643D03*
X007762Y002643D03*
X007262Y002643D03*
X006762Y002643D03*
X006262Y002643D03*
D22*
X006125Y000902D03*
X007125Y000902D03*
X008125Y000902D03*
X009125Y000902D03*
X001538Y009995D03*
X001538Y010995D03*
D23*
X013167Y009491D03*
X013954Y009491D03*
X014742Y009491D03*
D24*
X014742Y009461D03*
X013954Y009461D03*
X013167Y009461D03*
D25*
X013054Y008481D03*
X013054Y007981D03*
X013841Y007981D03*
X013841Y008481D03*
X014629Y008481D03*
X014629Y007981D03*
M02*
