G75*
G70*
%OFA0B0*%
%FSLAX24Y24*%
%IPPOS*%
%LPD*%
%AMOC8*
5,1,8,0,0,1.08239X$1,22.5*
%
%ADD10C,0.0000*%
%ADD11C,0.0020*%
%ADD12C,0.0050*%
%ADD13C,0.0236*%
%ADD14R,0.3150X0.2559*%
%ADD15R,0.3346X0.0394*%
%ADD16C,0.0030*%
%ADD17C,0.0060*%
%ADD18C,0.0039*%
D10*
X000160Y000160D02*
X000160Y014136D01*
X015121Y014136D01*
X015121Y000160D01*
X000160Y000160D01*
X000559Y013069D02*
X000561Y013113D01*
X000567Y013157D01*
X000577Y013200D01*
X000590Y013242D01*
X000608Y013282D01*
X000629Y013321D01*
X000653Y013358D01*
X000680Y013393D01*
X000711Y013425D01*
X000744Y013454D01*
X000780Y013480D01*
X000818Y013502D01*
X000858Y013521D01*
X000899Y013537D01*
X000942Y013549D01*
X000985Y013557D01*
X001029Y013561D01*
X001073Y013561D01*
X001117Y013557D01*
X001160Y013549D01*
X001203Y013537D01*
X001244Y013521D01*
X001284Y013502D01*
X001322Y013480D01*
X001358Y013454D01*
X001391Y013425D01*
X001422Y013393D01*
X001449Y013358D01*
X001473Y013321D01*
X001494Y013282D01*
X001512Y013242D01*
X001525Y013200D01*
X001535Y013157D01*
X001541Y013113D01*
X001543Y013069D01*
X001541Y013025D01*
X001535Y012981D01*
X001525Y012938D01*
X001512Y012896D01*
X001494Y012856D01*
X001473Y012817D01*
X001449Y012780D01*
X001422Y012745D01*
X001391Y012713D01*
X001358Y012684D01*
X001322Y012658D01*
X001284Y012636D01*
X001244Y012617D01*
X001203Y012601D01*
X001160Y012589D01*
X001117Y012581D01*
X001073Y012577D01*
X001029Y012577D01*
X000985Y012581D01*
X000942Y012589D01*
X000899Y012601D01*
X000858Y012617D01*
X000818Y012636D01*
X000780Y012658D01*
X000744Y012684D01*
X000711Y012713D01*
X000680Y012745D01*
X000653Y012780D01*
X000629Y012817D01*
X000608Y012856D01*
X000590Y012896D01*
X000577Y012938D01*
X000567Y012981D01*
X000561Y013025D01*
X000559Y013069D01*
X013549Y001259D02*
X013551Y001303D01*
X013557Y001347D01*
X013567Y001390D01*
X013580Y001432D01*
X013598Y001472D01*
X013619Y001511D01*
X013643Y001548D01*
X013670Y001583D01*
X013701Y001615D01*
X013734Y001644D01*
X013770Y001670D01*
X013808Y001692D01*
X013848Y001711D01*
X013889Y001727D01*
X013932Y001739D01*
X013975Y001747D01*
X014019Y001751D01*
X014063Y001751D01*
X014107Y001747D01*
X014150Y001739D01*
X014193Y001727D01*
X014234Y001711D01*
X014274Y001692D01*
X014312Y001670D01*
X014348Y001644D01*
X014381Y001615D01*
X014412Y001583D01*
X014439Y001548D01*
X014463Y001511D01*
X014484Y001472D01*
X014502Y001432D01*
X014515Y001390D01*
X014525Y001347D01*
X014531Y001303D01*
X014533Y001259D01*
X014531Y001215D01*
X014525Y001171D01*
X014515Y001128D01*
X014502Y001086D01*
X014484Y001046D01*
X014463Y001007D01*
X014439Y000970D01*
X014412Y000935D01*
X014381Y000903D01*
X014348Y000874D01*
X014312Y000848D01*
X014274Y000826D01*
X014234Y000807D01*
X014193Y000791D01*
X014150Y000779D01*
X014107Y000771D01*
X014063Y000767D01*
X014019Y000767D01*
X013975Y000771D01*
X013932Y000779D01*
X013889Y000791D01*
X013848Y000807D01*
X013808Y000826D01*
X013770Y000848D01*
X013734Y000874D01*
X013701Y000903D01*
X013670Y000935D01*
X013643Y000970D01*
X013619Y001007D01*
X013598Y001046D01*
X013580Y001086D01*
X013567Y001128D01*
X013557Y001171D01*
X013551Y001215D01*
X013549Y001259D01*
D11*
X012402Y001213D02*
X012365Y001176D01*
X012292Y001176D01*
X012255Y001213D01*
X012255Y001249D01*
X012292Y001286D01*
X012365Y001286D01*
X012402Y001323D01*
X012402Y001359D01*
X012365Y001396D01*
X012292Y001396D01*
X012255Y001359D01*
X012181Y001396D02*
X012181Y001176D01*
X012034Y001176D01*
X011960Y001176D02*
X011960Y001396D01*
X011813Y001176D01*
X011813Y001396D01*
X011739Y001359D02*
X011739Y001323D01*
X011702Y001286D01*
X011629Y001286D01*
X011592Y001249D01*
X011592Y001213D01*
X011629Y001176D01*
X011702Y001176D01*
X011739Y001213D01*
X011739Y001359D02*
X011702Y001396D01*
X011629Y001396D01*
X011592Y001359D01*
X011518Y001359D02*
X011518Y001213D01*
X011481Y001176D01*
X011408Y001176D01*
X011371Y001213D01*
X011371Y001359D01*
X011408Y001396D01*
X011481Y001396D01*
X011518Y001359D01*
X011297Y001396D02*
X011297Y001176D01*
X011297Y001249D02*
X011187Y001249D01*
X011150Y001286D01*
X011150Y001359D01*
X011187Y001396D01*
X011297Y001396D01*
X011224Y001249D02*
X011150Y001176D01*
X011076Y001213D02*
X011039Y001176D01*
X010966Y001176D01*
X010929Y001213D01*
X010929Y001249D01*
X010966Y001286D01*
X011003Y001286D01*
X010966Y001286D02*
X010929Y001323D01*
X010929Y001359D01*
X010966Y001396D01*
X011039Y001396D01*
X011076Y001359D01*
X012034Y001396D02*
X012181Y001396D01*
X012181Y001286D02*
X012108Y001286D01*
X009248Y001351D02*
X009248Y001498D01*
X009248Y001424D02*
X009028Y001424D01*
X009028Y001572D02*
X009248Y001719D01*
X009248Y001572D02*
X009028Y001719D01*
X008264Y001719D02*
X008044Y001572D01*
X008044Y001498D02*
X008117Y001424D01*
X008117Y001461D02*
X008117Y001351D01*
X008044Y001351D02*
X008264Y001351D01*
X008264Y001461D01*
X008228Y001498D01*
X008154Y001498D01*
X008117Y001461D01*
X008264Y001572D02*
X008044Y001719D01*
X008074Y005583D02*
X008074Y005804D01*
X007927Y005583D01*
X007927Y005804D01*
X007853Y005767D02*
X007853Y005730D01*
X007816Y005693D01*
X007743Y005693D01*
X007706Y005657D01*
X007706Y005620D01*
X007743Y005583D01*
X007816Y005583D01*
X007853Y005620D01*
X007853Y005767D02*
X007816Y005804D01*
X007743Y005804D01*
X007706Y005767D01*
X007632Y005767D02*
X007632Y005620D01*
X007595Y005583D01*
X007522Y005583D01*
X007485Y005620D01*
X007485Y005767D01*
X007522Y005804D01*
X007595Y005804D01*
X007632Y005767D01*
X007411Y005804D02*
X007411Y005583D01*
X007411Y005657D02*
X007301Y005657D01*
X007264Y005693D01*
X007264Y005767D01*
X007301Y005804D01*
X007411Y005804D01*
X007338Y005657D02*
X007264Y005583D01*
X007190Y005620D02*
X007154Y005583D01*
X007080Y005583D01*
X007043Y005620D01*
X007043Y005693D01*
X007080Y005730D01*
X007117Y005730D01*
X007190Y005693D01*
X007190Y005804D01*
X007043Y005804D01*
X008148Y005804D02*
X008295Y005804D01*
X008295Y005583D01*
X008148Y005583D01*
X008222Y005693D02*
X008295Y005693D01*
X008369Y005657D02*
X008369Y005620D01*
X008406Y005583D01*
X008479Y005583D01*
X008516Y005620D01*
X008479Y005693D02*
X008406Y005693D01*
X008369Y005657D01*
X008369Y005767D02*
X008406Y005804D01*
X008479Y005804D01*
X008516Y005767D01*
X008516Y005730D01*
X008479Y005693D01*
D12*
X003368Y006164D02*
X003373Y006374D01*
X003389Y006583D01*
X003414Y006791D01*
X003450Y006997D01*
X003496Y007202D01*
X003552Y007404D01*
X003618Y007603D01*
X003693Y007799D01*
X003778Y007991D01*
X003872Y008178D01*
X003976Y008360D01*
X004088Y008537D01*
X004209Y008709D01*
X004338Y008874D01*
X004475Y009033D01*
X004619Y009185D01*
X004771Y009329D01*
X004930Y009466D01*
X005095Y009595D01*
X005267Y009716D01*
X005444Y009828D01*
X005626Y009932D01*
X005813Y010026D01*
X006005Y010111D01*
X006201Y010186D01*
X006400Y010252D01*
X006602Y010308D01*
X006807Y010354D01*
X007013Y010390D01*
X007221Y010415D01*
X007430Y010431D01*
X007640Y010436D01*
X007850Y010431D01*
X008059Y010415D01*
X008267Y010390D01*
X008473Y010354D01*
X008678Y010308D01*
X008880Y010252D01*
X009079Y010186D01*
X009275Y010111D01*
X009467Y010026D01*
X009654Y009932D01*
X009836Y009828D01*
X010013Y009716D01*
X010185Y009595D01*
X010350Y009466D01*
X010509Y009329D01*
X010661Y009185D01*
X010805Y009033D01*
X010942Y008874D01*
X011071Y008709D01*
X011192Y008537D01*
X011304Y008360D01*
X011408Y008178D01*
X011502Y007991D01*
X011587Y007799D01*
X011662Y007603D01*
X011728Y007404D01*
X011784Y007202D01*
X011830Y006997D01*
X011866Y006791D01*
X011891Y006583D01*
X011907Y006374D01*
X011912Y006164D01*
X011907Y005954D01*
X011891Y005745D01*
X011866Y005537D01*
X011830Y005331D01*
X011784Y005126D01*
X011728Y004924D01*
X011662Y004725D01*
X011587Y004529D01*
X011502Y004337D01*
X011408Y004150D01*
X011304Y003968D01*
X011192Y003791D01*
X011071Y003619D01*
X010942Y003454D01*
X010805Y003295D01*
X010661Y003143D01*
X010509Y002999D01*
X010350Y002862D01*
X010185Y002733D01*
X010013Y002612D01*
X009836Y002500D01*
X009654Y002396D01*
X009467Y002302D01*
X009275Y002217D01*
X009079Y002142D01*
X008880Y002076D01*
X008678Y002020D01*
X008473Y001974D01*
X008267Y001938D01*
X008059Y001913D01*
X007850Y001897D01*
X007640Y001892D01*
X007430Y001897D01*
X007221Y001913D01*
X007013Y001938D01*
X006807Y001974D01*
X006602Y002020D01*
X006400Y002076D01*
X006201Y002142D01*
X006005Y002217D01*
X005813Y002302D01*
X005626Y002396D01*
X005444Y002500D01*
X005267Y002612D01*
X005095Y002733D01*
X004930Y002862D01*
X004771Y002999D01*
X004619Y003143D01*
X004475Y003295D01*
X004338Y003454D01*
X004209Y003619D01*
X004088Y003791D01*
X003976Y003968D01*
X003872Y004150D01*
X003778Y004337D01*
X003693Y004529D01*
X003618Y004725D01*
X003552Y004924D01*
X003496Y005126D01*
X003450Y005331D01*
X003414Y005537D01*
X003389Y005745D01*
X003373Y005954D01*
X003368Y006164D01*
X002424Y006987D02*
X001227Y006987D01*
X001227Y002991D01*
X002412Y002991D01*
X002424Y000652D02*
X002424Y006987D01*
X002424Y008329D01*
X012857Y008329D01*
X012857Y006991D01*
X014034Y006991D01*
X014034Y001991D01*
X012861Y001991D01*
X013746Y001357D02*
X013748Y001396D01*
X013754Y001435D01*
X013764Y001473D01*
X013777Y001510D01*
X013794Y001545D01*
X013814Y001579D01*
X013838Y001610D01*
X013865Y001639D01*
X013894Y001665D01*
X013926Y001688D01*
X013960Y001708D01*
X013996Y001724D01*
X014033Y001736D01*
X014072Y001745D01*
X014111Y001750D01*
X014150Y001751D01*
X014189Y001748D01*
X014228Y001741D01*
X014265Y001730D01*
X014302Y001716D01*
X014337Y001698D01*
X014370Y001677D01*
X014401Y001652D01*
X014429Y001625D01*
X014454Y001595D01*
X014476Y001562D01*
X014495Y001528D01*
X014510Y001492D01*
X014522Y001454D01*
X014530Y001416D01*
X014534Y001377D01*
X014534Y001337D01*
X014530Y001298D01*
X014522Y001260D01*
X014510Y001222D01*
X014495Y001186D01*
X014476Y001152D01*
X014454Y001119D01*
X014429Y001089D01*
X014401Y001062D01*
X014370Y001037D01*
X014337Y001016D01*
X014302Y000998D01*
X014265Y000984D01*
X014228Y000973D01*
X014189Y000966D01*
X014150Y000963D01*
X014111Y000964D01*
X014072Y000969D01*
X014033Y000978D01*
X013996Y000990D01*
X013960Y001006D01*
X013926Y001026D01*
X013894Y001049D01*
X013865Y001075D01*
X013838Y001104D01*
X013814Y001135D01*
X013794Y001169D01*
X013777Y001204D01*
X013764Y001241D01*
X013754Y001279D01*
X013748Y001318D01*
X013746Y001357D01*
X012857Y000652D02*
X012857Y006991D01*
X014140Y010412D02*
X010203Y010412D01*
X010203Y013168D01*
X014140Y013168D01*
X014140Y010412D01*
X013550Y011003D02*
X013550Y012577D01*
X010794Y012577D01*
X010794Y011003D01*
X013550Y011003D01*
X013550Y013758D02*
X009613Y013758D01*
X009613Y014152D01*
X007644Y014152D02*
X007644Y013365D01*
X001739Y013365D01*
X001739Y014152D01*
X000754Y013168D02*
X000756Y013207D01*
X000762Y013246D01*
X000772Y013284D01*
X000785Y013321D01*
X000802Y013356D01*
X000822Y013390D01*
X000846Y013421D01*
X000873Y013450D01*
X000902Y013476D01*
X000934Y013499D01*
X000968Y013519D01*
X001004Y013535D01*
X001041Y013547D01*
X001080Y013556D01*
X001119Y013561D01*
X001158Y013562D01*
X001197Y013559D01*
X001236Y013552D01*
X001273Y013541D01*
X001310Y013527D01*
X001345Y013509D01*
X001378Y013488D01*
X001409Y013463D01*
X001437Y013436D01*
X001462Y013406D01*
X001484Y013373D01*
X001503Y013339D01*
X001518Y013303D01*
X001530Y013265D01*
X001538Y013227D01*
X001542Y013188D01*
X001542Y013148D01*
X001538Y013109D01*
X001530Y013071D01*
X001518Y013033D01*
X001503Y012997D01*
X001484Y012963D01*
X001462Y012930D01*
X001437Y012900D01*
X001409Y012873D01*
X001378Y012848D01*
X001345Y012827D01*
X001310Y012809D01*
X001273Y012795D01*
X001236Y012784D01*
X001197Y012777D01*
X001158Y012774D01*
X001119Y012775D01*
X001080Y012780D01*
X001041Y012789D01*
X001004Y012801D01*
X000968Y012817D01*
X000934Y012837D01*
X000902Y012860D01*
X000873Y012886D01*
X000846Y012915D01*
X000822Y012946D01*
X000802Y012980D01*
X000785Y013015D01*
X000772Y013052D01*
X000762Y013090D01*
X000756Y013129D01*
X000754Y013168D01*
X000164Y014152D02*
X000164Y000373D01*
X015125Y000373D01*
X015125Y014152D01*
X007644Y014152D01*
X000164Y014152D01*
X007390Y010414D02*
X007392Y010384D01*
X007397Y010354D01*
X007406Y010325D01*
X007419Y010298D01*
X007434Y010272D01*
X007453Y010248D01*
X007474Y010227D01*
X007498Y010208D01*
X007524Y010193D01*
X007551Y010180D01*
X007580Y010171D01*
X007610Y010166D01*
X007640Y010164D01*
X007670Y010166D01*
X007700Y010171D01*
X007729Y010180D01*
X007756Y010193D01*
X007782Y010208D01*
X007806Y010227D01*
X007827Y010248D01*
X007846Y010272D01*
X007861Y010298D01*
X007874Y010325D01*
X007883Y010354D01*
X007888Y010384D01*
X007890Y010414D01*
X003053Y006164D02*
X003059Y006389D01*
X003075Y006614D01*
X003103Y006837D01*
X003141Y007059D01*
X003190Y007279D01*
X003251Y007496D01*
X003321Y007709D01*
X003402Y007919D01*
X003493Y008125D01*
X003595Y008326D01*
X003706Y008522D01*
X003826Y008712D01*
X003956Y008896D01*
X004094Y009074D01*
X004241Y009244D01*
X004397Y009407D01*
X004560Y009563D01*
X004730Y009710D01*
X004908Y009848D01*
X005092Y009978D01*
X005282Y010098D01*
X005478Y010209D01*
X005679Y010311D01*
X005885Y010402D01*
X006095Y010483D01*
X006308Y010553D01*
X006525Y010614D01*
X006745Y010663D01*
X006967Y010701D01*
X007190Y010729D01*
X007415Y010745D01*
X007640Y010751D01*
X007865Y010745D01*
X008090Y010729D01*
X008313Y010701D01*
X008535Y010663D01*
X008755Y010614D01*
X008972Y010553D01*
X009185Y010483D01*
X009395Y010402D01*
X009601Y010311D01*
X009802Y010209D01*
X009998Y010098D01*
X010188Y009978D01*
X010372Y009848D01*
X010550Y009710D01*
X010720Y009563D01*
X010883Y009407D01*
X011039Y009244D01*
X011186Y009074D01*
X011324Y008896D01*
X011454Y008712D01*
X011574Y008522D01*
X011685Y008326D01*
X011787Y008125D01*
X011878Y007919D01*
X011959Y007709D01*
X012029Y007496D01*
X012090Y007279D01*
X012139Y007059D01*
X012177Y006837D01*
X012205Y006614D01*
X012221Y006389D01*
X012227Y006164D01*
X012221Y005939D01*
X012205Y005714D01*
X012177Y005491D01*
X012139Y005269D01*
X012090Y005049D01*
X012029Y004832D01*
X011959Y004619D01*
X011878Y004409D01*
X011787Y004203D01*
X011685Y004002D01*
X011574Y003806D01*
X011454Y003616D01*
X011324Y003432D01*
X011186Y003254D01*
X011039Y003084D01*
X010883Y002921D01*
X010720Y002765D01*
X010550Y002618D01*
X010372Y002480D01*
X010188Y002350D01*
X009998Y002230D01*
X009802Y002119D01*
X009601Y002017D01*
X009395Y001926D01*
X009185Y001845D01*
X008972Y001775D01*
X008755Y001714D01*
X008535Y001665D01*
X008313Y001627D01*
X008090Y001599D01*
X007865Y001583D01*
X007640Y001577D01*
X007415Y001583D01*
X007190Y001599D01*
X006967Y001627D01*
X006745Y001665D01*
X006525Y001714D01*
X006308Y001775D01*
X006095Y001845D01*
X005885Y001926D01*
X005679Y002017D01*
X005478Y002119D01*
X005282Y002230D01*
X005092Y002350D01*
X004908Y002480D01*
X004730Y002618D01*
X004560Y002765D01*
X004397Y002921D01*
X004241Y003084D01*
X004094Y003254D01*
X003956Y003432D01*
X003826Y003616D01*
X003706Y003806D01*
X003595Y004002D01*
X003493Y004203D01*
X003402Y004409D01*
X003321Y004619D01*
X003251Y004832D01*
X003190Y005049D01*
X003141Y005269D01*
X003103Y005491D01*
X003075Y005714D01*
X003059Y005939D01*
X003053Y006164D01*
X002424Y000652D02*
X012857Y000652D01*
X013550Y013758D02*
X013550Y014152D01*
D13*
X013943Y012971D02*
X013943Y010609D01*
X010400Y010609D01*
X010400Y012971D01*
X013943Y012971D01*
D14*
X011085Y002719D03*
D15*
X005672Y008132D03*
D16*
X005846Y007626D02*
X005908Y007626D01*
X006031Y007503D01*
X006031Y007626D02*
X006031Y007379D01*
X006153Y007379D02*
X006277Y007379D01*
X006300Y007360D02*
X006252Y007408D01*
X006252Y007602D01*
X006300Y007650D01*
X006445Y007650D01*
X006445Y007360D01*
X006300Y007360D01*
X006215Y007379D02*
X006215Y007626D01*
X006277Y007626D01*
X006398Y007564D02*
X006398Y007379D01*
X006583Y007379D01*
X006645Y007441D01*
X006583Y007503D01*
X006398Y007503D01*
X006398Y007564D02*
X006460Y007626D01*
X006583Y007626D01*
X006547Y007650D02*
X006547Y007360D01*
X006740Y007650D01*
X006740Y007360D01*
X006841Y007408D02*
X006841Y007505D01*
X006938Y007505D01*
X006841Y007408D02*
X006890Y007360D01*
X006986Y007360D01*
X007035Y007408D01*
X007035Y007602D01*
X006986Y007650D01*
X006890Y007650D01*
X006841Y007602D01*
X006215Y007750D02*
X006215Y007811D01*
X005356Y007626D02*
X005232Y007379D01*
X005109Y007626D01*
X004987Y007564D02*
X004926Y007626D01*
X004802Y007626D01*
X004741Y007564D01*
X004741Y007503D01*
X004987Y007503D01*
X004987Y007564D02*
X004987Y007441D01*
X004926Y007379D01*
X004802Y007379D01*
X004619Y007379D02*
X004619Y007626D01*
X004434Y007626D01*
X004372Y007564D01*
X004372Y007379D01*
X004189Y007441D02*
X004127Y007379D01*
X004189Y007441D02*
X004189Y007688D01*
X004251Y007626D02*
X004127Y007626D01*
X006153Y004894D02*
X006153Y004701D01*
X006250Y004604D01*
X006346Y004701D01*
X006346Y004894D01*
X006448Y004894D02*
X006641Y004894D01*
X006641Y004749D01*
X006544Y004798D01*
X006496Y004798D01*
X006448Y004749D01*
X006448Y004653D01*
X006496Y004604D01*
X006593Y004604D01*
X006641Y004653D01*
X007458Y004718D02*
X007458Y004815D01*
X007507Y004864D01*
X007604Y004864D01*
X007604Y004767D01*
X007700Y004864D02*
X007749Y004815D01*
X007749Y004718D01*
X007700Y004670D01*
X007507Y004670D01*
X007458Y004718D01*
X007458Y004570D02*
X007458Y004474D01*
X007458Y004522D02*
X007749Y004522D01*
X007749Y004474D02*
X007749Y004570D01*
X007700Y004372D02*
X007749Y004324D01*
X007749Y004227D01*
X007700Y004179D01*
X007652Y004179D01*
X007604Y004227D01*
X007604Y004324D01*
X007555Y004372D01*
X007507Y004372D01*
X007458Y004324D01*
X007458Y004227D01*
X007507Y004179D01*
X008712Y004604D02*
X008905Y004894D01*
X009007Y004846D02*
X009007Y004749D01*
X009055Y004701D01*
X009200Y004701D01*
X009103Y004701D02*
X009007Y004604D01*
X008905Y004604D02*
X008712Y004894D01*
X009007Y004846D02*
X009055Y004894D01*
X009200Y004894D01*
X009200Y004604D01*
X009132Y003907D02*
X009132Y003784D01*
X009194Y003846D02*
X008947Y003846D01*
X008885Y003907D01*
X008885Y003662D02*
X009070Y003662D01*
X009132Y003601D01*
X009132Y003415D01*
X008885Y003415D01*
X009009Y003294D02*
X009009Y003047D01*
X009070Y003047D02*
X008947Y003047D01*
X008885Y003109D01*
X008885Y003232D01*
X009009Y003294D02*
X009070Y003294D01*
X009132Y003232D01*
X009132Y003109D01*
X009070Y003047D01*
X009132Y002926D02*
X008885Y002802D01*
X009132Y002679D01*
X009132Y002189D02*
X009132Y002127D01*
X009009Y002004D01*
X009132Y002004D02*
X008885Y002004D01*
X008885Y001881D02*
X008885Y001758D01*
X008885Y001820D02*
X009132Y001820D01*
X009132Y001758D01*
X009070Y001637D02*
X008885Y001637D01*
X008885Y001451D01*
X008947Y001390D01*
X009009Y001451D01*
X009009Y001637D01*
X009070Y001637D02*
X009132Y001575D01*
X009132Y001451D01*
X009256Y001820D02*
X009317Y001820D01*
X009103Y007360D02*
X009103Y007650D01*
X009007Y007650D02*
X009200Y007650D01*
X008905Y007650D02*
X008712Y007360D01*
X008905Y007360D02*
X008712Y007650D01*
D17*
X008673Y007635D02*
X009023Y007635D01*
X009140Y007751D01*
X009140Y007868D01*
X009023Y007985D01*
X008790Y007985D01*
X008673Y007868D01*
X008673Y007401D01*
X008790Y007284D01*
X009023Y007284D01*
X009140Y007401D01*
X009373Y007284D02*
X009840Y007284D01*
X009606Y007284D02*
X009606Y007985D01*
X009840Y007751D01*
X010072Y007868D02*
X010072Y007985D01*
X010539Y007985D01*
X010772Y007635D02*
X011239Y007635D01*
X011472Y007635D02*
X011939Y007635D01*
X011939Y007985D02*
X011939Y007284D01*
X012172Y007284D02*
X012172Y007985D01*
X012405Y007751D01*
X012639Y007985D01*
X012639Y007284D01*
X011472Y007284D02*
X011472Y007985D01*
X010539Y007401D02*
X010539Y007284D01*
X010072Y007284D01*
X010539Y007401D02*
X010072Y007868D01*
X008440Y007985D02*
X008440Y007284D01*
X008090Y007284D01*
X007973Y007401D01*
X007973Y007518D01*
X008090Y007635D01*
X008440Y007635D01*
X008440Y007985D02*
X008090Y007985D01*
X007973Y007868D01*
X007973Y007751D01*
X008090Y007635D01*
D18*
X004687Y006164D02*
X004691Y006309D01*
X004701Y006453D01*
X004719Y006597D01*
X004744Y006740D01*
X004775Y006882D01*
X004814Y007021D01*
X004860Y007159D01*
X004912Y007294D01*
X004971Y007427D01*
X005036Y007556D01*
X005107Y007682D01*
X005185Y007805D01*
X005268Y007923D01*
X005357Y008037D01*
X005452Y008147D01*
X005552Y008252D01*
X005657Y008352D01*
X005767Y008447D01*
X005881Y008536D01*
X005999Y008619D01*
X006122Y008697D01*
X006248Y008768D01*
X006377Y008833D01*
X006510Y008892D01*
X006645Y008944D01*
X006783Y008990D01*
X006922Y009029D01*
X007064Y009060D01*
X007207Y009085D01*
X007351Y009103D01*
X007495Y009113D01*
X007640Y009117D01*
X007785Y009113D01*
X007929Y009103D01*
X008073Y009085D01*
X008216Y009060D01*
X008358Y009029D01*
X008497Y008990D01*
X008635Y008944D01*
X008770Y008892D01*
X008903Y008833D01*
X009032Y008768D01*
X009158Y008697D01*
X009281Y008619D01*
X009399Y008536D01*
X009513Y008447D01*
X009623Y008352D01*
X009728Y008252D01*
X009828Y008147D01*
X009923Y008037D01*
X010012Y007923D01*
X010095Y007805D01*
X010173Y007682D01*
X010244Y007556D01*
X010309Y007427D01*
X010368Y007294D01*
X010420Y007159D01*
X010466Y007021D01*
X010505Y006882D01*
X010536Y006740D01*
X010561Y006597D01*
X010579Y006453D01*
X010589Y006309D01*
X010593Y006164D01*
X010589Y006019D01*
X010579Y005875D01*
X010561Y005731D01*
X010536Y005588D01*
X010505Y005446D01*
X010466Y005307D01*
X010420Y005169D01*
X010368Y005034D01*
X010309Y004901D01*
X010244Y004772D01*
X010173Y004646D01*
X010095Y004523D01*
X010012Y004405D01*
X009923Y004291D01*
X009828Y004181D01*
X009728Y004076D01*
X009623Y003976D01*
X009513Y003881D01*
X009399Y003792D01*
X009281Y003709D01*
X009158Y003631D01*
X009032Y003560D01*
X008903Y003495D01*
X008770Y003436D01*
X008635Y003384D01*
X008497Y003338D01*
X008358Y003299D01*
X008216Y003268D01*
X008073Y003243D01*
X007929Y003225D01*
X007785Y003215D01*
X007640Y003211D01*
X007495Y003215D01*
X007351Y003225D01*
X007207Y003243D01*
X007064Y003268D01*
X006922Y003299D01*
X006783Y003338D01*
X006645Y003384D01*
X006510Y003436D01*
X006377Y003495D01*
X006248Y003560D01*
X006122Y003631D01*
X005999Y003709D01*
X005881Y003792D01*
X005767Y003881D01*
X005657Y003976D01*
X005552Y004076D01*
X005452Y004181D01*
X005357Y004291D01*
X005268Y004405D01*
X005185Y004523D01*
X005107Y004646D01*
X005036Y004772D01*
X004971Y004901D01*
X004912Y005034D01*
X004860Y005169D01*
X004814Y005307D01*
X004775Y005446D01*
X004744Y005588D01*
X004719Y005731D01*
X004701Y005875D01*
X004691Y006019D01*
X004687Y006164D01*
M02*
