G75*
%MOIN*%
%OFA0B0*%
%FSLAX25Y25*%
%IPPOS*%
%LPD*%
%AMOC8*
5,1,8,0,0,1.08239X$1,22.5*
%
%ADD10C,0.10643*%
%ADD11C,0.07400*%
%ADD12R,0.03400X0.06706*%
%ADD13C,0.07800*%
%ADD14C,0.15824*%
%ADD15C,0.08200*%
%ADD16C,0.03187*%
D10*
X0012458Y0012589D03*
X0010507Y0130686D03*
X0140410Y0012589D03*
D11*
X0121246Y0032771D03*
X0113805Y0025222D03*
X0121246Y0042771D03*
X0121246Y0052771D03*
X0121246Y0062771D03*
X0121246Y0072771D03*
X0121246Y0082771D03*
X0121246Y0092771D03*
X0121246Y0102771D03*
X0037033Y0111836D03*
X0031246Y0102771D03*
X0031246Y0092771D03*
X0031246Y0082771D03*
X0031246Y0072771D03*
X0031246Y0062771D03*
X0031246Y0052771D03*
X0031246Y0042771D03*
X0031246Y0032771D03*
X0039002Y0025222D03*
D12*
X0111561Y0110852D03*
X0116561Y0110852D03*
X0121561Y0110852D03*
X0126561Y0110852D03*
X0131561Y0110852D03*
X0131561Y0124927D03*
X0126561Y0124927D03*
X0121561Y0124927D03*
X0116561Y0124927D03*
X0111561Y0124927D03*
D13*
X0134474Y0064868D03*
X0134474Y0054907D03*
X0134474Y0044907D03*
X0134474Y0034868D03*
X0134435Y0024868D03*
X0018175Y0034868D03*
X0018175Y0044907D03*
X0018175Y0054868D03*
X0018135Y0064907D03*
D14*
X0050813Y0076403D03*
X0050813Y0046876D03*
X0076403Y0032112D03*
X0101994Y0046876D03*
X0101994Y0076403D03*
D15*
X0101403Y0009021D03*
X0091403Y0009021D03*
X0081403Y0009021D03*
X0071403Y0009021D03*
X0061403Y0009021D03*
X0051403Y0009021D03*
D16*
X0066561Y0052781D03*
X0076403Y0060655D03*
X0079356Y0064592D03*
X0069513Y0064592D03*
X0065576Y0064592D03*
X0057702Y0064592D03*
X0083293Y0052781D03*
X0084277Y0094120D03*
X0076403Y0101994D03*
X0095104Y0109868D03*
X0105931Y0109868D03*
X0105931Y0102978D03*
X0126561Y0117709D03*
X0053765Y0098057D03*
M02*
