G75*
%MOIN*%
%OFA0B0*%
%FSLAX25Y25*%
%IPPOS*%
%LPD*%
%AMOC8*
5,1,8,0,0,1.08239X$1,22.5*
%
%ADD10C,0.10643*%
%ADD11C,0.07400*%
%ADD12R,0.05131X0.04737*%
%ADD13C,0.07800*%
%ADD14C,0.15824*%
%ADD15C,0.08200*%
%ADD16R,0.02375X0.02375*%
%ADD17R,0.02769X0.03359*%
%ADD18R,0.03950X0.02375*%
%ADD19R,0.03162X0.02769*%
%ADD20C,0.03187*%
D10*
X0012458Y0012589D03*
X0010507Y0130686D03*
X0140410Y0012589D03*
D11*
X0121246Y0032771D03*
X0113805Y0025222D03*
X0121246Y0042771D03*
X0121246Y0052771D03*
X0121246Y0062771D03*
X0121246Y0072771D03*
X0121246Y0082771D03*
X0121246Y0092771D03*
X0121246Y0102771D03*
X0037033Y0111836D03*
X0031246Y0102771D03*
X0031246Y0092771D03*
X0031246Y0082771D03*
X0031246Y0072771D03*
X0031246Y0062771D03*
X0031246Y0052771D03*
X0031246Y0042771D03*
X0031246Y0032771D03*
X0039002Y0025222D03*
D12*
X0067545Y0084868D03*
X0067545Y0091561D03*
X0067545Y0097663D03*
X0067545Y0104356D03*
X0138017Y0117742D03*
X0144710Y0117742D03*
D13*
X0134474Y0064868D03*
X0134474Y0054907D03*
X0134474Y0044907D03*
X0134474Y0034868D03*
X0134435Y0024868D03*
X0018175Y0034868D03*
X0018175Y0044907D03*
X0018175Y0054868D03*
X0018135Y0064907D03*
D14*
X0050813Y0076403D03*
X0050813Y0046876D03*
X0076403Y0032112D03*
X0101994Y0046876D03*
X0101994Y0076403D03*
D15*
X0101403Y0009021D03*
X0091403Y0009021D03*
X0081403Y0009021D03*
X0071403Y0009021D03*
X0061403Y0009021D03*
X0051403Y0009021D03*
D16*
X0136246Y0123647D03*
X0136246Y0127584D03*
X0136246Y0131521D03*
X0146482Y0131521D03*
X0146482Y0127584D03*
X0146482Y0123647D03*
D17*
X0081128Y0072958D03*
X0077978Y0072958D03*
X0074828Y0072958D03*
X0071679Y0072958D03*
X0071679Y0068037D03*
X0074828Y0068037D03*
X0077978Y0068037D03*
X0081128Y0068037D03*
D18*
X0082112Y0061246D03*
X0082112Y0058687D03*
X0082112Y0056128D03*
X0088411Y0056128D03*
X0088411Y0058687D03*
X0088411Y0061246D03*
X0071679Y0061246D03*
X0071679Y0058687D03*
X0071679Y0056128D03*
X0065380Y0056128D03*
X0065380Y0058687D03*
X0065380Y0061246D03*
D19*
X0139513Y0089277D03*
X0143057Y0089277D03*
X0143057Y0094789D03*
X0139513Y0094789D03*
D20*
X0126561Y0117709D03*
X0105931Y0109868D03*
X0105931Y0102978D03*
X0095104Y0109868D03*
X0084277Y0094120D03*
X0076403Y0101994D03*
X0053765Y0098057D03*
X0057702Y0064592D03*
X0065576Y0064592D03*
X0069513Y0064592D03*
X0076403Y0060655D03*
X0079356Y0064592D03*
X0083293Y0052781D03*
X0066561Y0052781D03*
M02*
