%
M48
M72
T01C0.00787
T02C0.03543
T03C0.03937
T04C0.04000
T05C0.09843
T06C0.11024
%
T01
X66561Y52781
X76403Y60655
X79356Y64592
X69513Y64592
X65576Y64592
X57702Y64592
X83293Y52781
X84277Y94120
X76403Y101994
X95104Y109868
X105931Y109868
X105931Y102978
X126561Y117709
X53765Y98057
T02
X18135Y64907
X18175Y54868
X18175Y44907
X18175Y34868
X134474Y34868
X134435Y24868
X134474Y44907
X134474Y54907
X134474Y64868
T03
X113805Y25222
X39002Y25222
X37033Y111836
T04
X31246Y102771
X31246Y92771
X31246Y82771
X31246Y72771
X31246Y62771
X31246Y52771
X31246Y42771
X31246Y32771
X51403Y9021
X61403Y9021
X71403Y9021
X81403Y9021
X91403Y9021
X101403Y9021
X121246Y32771
X121246Y42771
X121246Y52771
X121246Y62771
X121246Y72771
X121246Y82771
X121246Y92771
X121246Y102771
T05
X12458Y12589
X10507Y130686
X140410Y12589
T06
X101994Y46876
X76403Y32112
X50813Y46876
X50813Y76403
X101994Y76403
M30
