G75*
%MOIN*%
%OFA0B0*%
%FSLAX25Y25*%
%IPPOS*%
%LPD*%
%AMOC8*
5,1,8,0,0,1.08239X$1,22.5*
%
%ADD10C,0.00000*%
D10*
X0009474Y0001600D02*
X0143332Y0001600D01*
X0143522Y0001602D01*
X0143712Y0001609D01*
X0143902Y0001621D01*
X0144092Y0001637D01*
X0144281Y0001657D01*
X0144470Y0001683D01*
X0144658Y0001712D01*
X0144845Y0001747D01*
X0145031Y0001786D01*
X0145216Y0001829D01*
X0145401Y0001877D01*
X0145584Y0001929D01*
X0145765Y0001985D01*
X0145945Y0002046D01*
X0146124Y0002112D01*
X0146301Y0002181D01*
X0146477Y0002255D01*
X0146650Y0002333D01*
X0146822Y0002416D01*
X0146991Y0002502D01*
X0147159Y0002592D01*
X0147324Y0002687D01*
X0147487Y0002785D01*
X0147647Y0002888D01*
X0147805Y0002994D01*
X0147960Y0003104D01*
X0148113Y0003217D01*
X0148263Y0003335D01*
X0148409Y0003456D01*
X0148553Y0003580D01*
X0148694Y0003708D01*
X0148832Y0003839D01*
X0148967Y0003974D01*
X0149098Y0004112D01*
X0149226Y0004253D01*
X0149350Y0004397D01*
X0149471Y0004543D01*
X0149589Y0004693D01*
X0149702Y0004846D01*
X0149812Y0005001D01*
X0149918Y0005159D01*
X0150021Y0005319D01*
X0150119Y0005482D01*
X0150214Y0005647D01*
X0150304Y0005815D01*
X0150390Y0005984D01*
X0150473Y0006156D01*
X0150551Y0006329D01*
X0150625Y0006505D01*
X0150694Y0006682D01*
X0150760Y0006861D01*
X0150821Y0007041D01*
X0150877Y0007222D01*
X0150929Y0007405D01*
X0150977Y0007590D01*
X0151020Y0007775D01*
X0151059Y0007961D01*
X0151094Y0008148D01*
X0151123Y0008336D01*
X0151149Y0008525D01*
X0151169Y0008714D01*
X0151185Y0008904D01*
X0151197Y0009094D01*
X0151204Y0009284D01*
X0151206Y0009474D01*
X0151206Y0133490D01*
X0151204Y0133680D01*
X0151197Y0133870D01*
X0151185Y0134060D01*
X0151169Y0134250D01*
X0151149Y0134439D01*
X0151123Y0134628D01*
X0151094Y0134816D01*
X0151059Y0135003D01*
X0151020Y0135189D01*
X0150977Y0135374D01*
X0150929Y0135559D01*
X0150877Y0135742D01*
X0150821Y0135923D01*
X0150760Y0136103D01*
X0150694Y0136282D01*
X0150625Y0136459D01*
X0150551Y0136635D01*
X0150473Y0136808D01*
X0150390Y0136980D01*
X0150304Y0137149D01*
X0150214Y0137317D01*
X0150119Y0137482D01*
X0150021Y0137645D01*
X0149918Y0137805D01*
X0149812Y0137963D01*
X0149702Y0138118D01*
X0149589Y0138271D01*
X0149471Y0138421D01*
X0149350Y0138567D01*
X0149226Y0138711D01*
X0149098Y0138852D01*
X0148967Y0138990D01*
X0148832Y0139125D01*
X0148694Y0139256D01*
X0148553Y0139384D01*
X0148409Y0139508D01*
X0148263Y0139629D01*
X0148113Y0139747D01*
X0147960Y0139860D01*
X0147805Y0139970D01*
X0147647Y0140076D01*
X0147487Y0140179D01*
X0147324Y0140277D01*
X0147159Y0140372D01*
X0146991Y0140462D01*
X0146822Y0140548D01*
X0146650Y0140631D01*
X0146477Y0140709D01*
X0146301Y0140783D01*
X0146124Y0140852D01*
X0145945Y0140918D01*
X0145765Y0140979D01*
X0145584Y0141035D01*
X0145401Y0141087D01*
X0145216Y0141135D01*
X0145031Y0141178D01*
X0144845Y0141217D01*
X0144658Y0141252D01*
X0144470Y0141281D01*
X0144281Y0141307D01*
X0144092Y0141327D01*
X0143902Y0141343D01*
X0143712Y0141355D01*
X0143522Y0141362D01*
X0143332Y0141364D01*
X0009474Y0141364D01*
X0009284Y0141362D01*
X0009094Y0141355D01*
X0008904Y0141343D01*
X0008714Y0141327D01*
X0008525Y0141307D01*
X0008336Y0141281D01*
X0008148Y0141252D01*
X0007961Y0141217D01*
X0007775Y0141178D01*
X0007590Y0141135D01*
X0007405Y0141087D01*
X0007222Y0141035D01*
X0007041Y0140979D01*
X0006861Y0140918D01*
X0006682Y0140852D01*
X0006505Y0140783D01*
X0006329Y0140709D01*
X0006156Y0140631D01*
X0005984Y0140548D01*
X0005815Y0140462D01*
X0005647Y0140372D01*
X0005482Y0140277D01*
X0005319Y0140179D01*
X0005159Y0140076D01*
X0005001Y0139970D01*
X0004846Y0139860D01*
X0004693Y0139747D01*
X0004543Y0139629D01*
X0004397Y0139508D01*
X0004253Y0139384D01*
X0004112Y0139256D01*
X0003974Y0139125D01*
X0003839Y0138990D01*
X0003708Y0138852D01*
X0003580Y0138711D01*
X0003456Y0138567D01*
X0003335Y0138421D01*
X0003217Y0138271D01*
X0003104Y0138118D01*
X0002994Y0137963D01*
X0002888Y0137805D01*
X0002785Y0137645D01*
X0002687Y0137482D01*
X0002592Y0137317D01*
X0002502Y0137149D01*
X0002416Y0136980D01*
X0002333Y0136808D01*
X0002255Y0136635D01*
X0002181Y0136459D01*
X0002112Y0136282D01*
X0002046Y0136103D01*
X0001985Y0135923D01*
X0001929Y0135742D01*
X0001877Y0135559D01*
X0001829Y0135374D01*
X0001786Y0135189D01*
X0001747Y0135003D01*
X0001712Y0134816D01*
X0001683Y0134628D01*
X0001657Y0134439D01*
X0001637Y0134250D01*
X0001621Y0134060D01*
X0001609Y0133870D01*
X0001602Y0133680D01*
X0001600Y0133490D01*
X0001600Y0009474D01*
X0001602Y0009284D01*
X0001609Y0009094D01*
X0001621Y0008904D01*
X0001637Y0008714D01*
X0001657Y0008525D01*
X0001683Y0008336D01*
X0001712Y0008148D01*
X0001747Y0007961D01*
X0001786Y0007775D01*
X0001829Y0007590D01*
X0001877Y0007405D01*
X0001929Y0007222D01*
X0001985Y0007041D01*
X0002046Y0006861D01*
X0002112Y0006682D01*
X0002181Y0006505D01*
X0002255Y0006329D01*
X0002333Y0006156D01*
X0002416Y0005984D01*
X0002502Y0005815D01*
X0002592Y0005647D01*
X0002687Y0005482D01*
X0002785Y0005319D01*
X0002888Y0005159D01*
X0002994Y0005001D01*
X0003104Y0004846D01*
X0003217Y0004693D01*
X0003335Y0004543D01*
X0003456Y0004397D01*
X0003580Y0004253D01*
X0003708Y0004112D01*
X0003839Y0003974D01*
X0003974Y0003839D01*
X0004112Y0003708D01*
X0004253Y0003580D01*
X0004397Y0003456D01*
X0004543Y0003335D01*
X0004693Y0003217D01*
X0004846Y0003104D01*
X0005001Y0002994D01*
X0005159Y0002888D01*
X0005319Y0002785D01*
X0005482Y0002687D01*
X0005647Y0002592D01*
X0005815Y0002502D01*
X0005984Y0002416D01*
X0006156Y0002333D01*
X0006329Y0002255D01*
X0006505Y0002181D01*
X0006682Y0002112D01*
X0006861Y0002046D01*
X0007041Y0001985D01*
X0007222Y0001929D01*
X0007405Y0001877D01*
X0007590Y0001829D01*
X0007775Y0001786D01*
X0007961Y0001747D01*
X0008148Y0001712D01*
X0008336Y0001683D01*
X0008525Y0001657D01*
X0008714Y0001637D01*
X0008904Y0001621D01*
X0009094Y0001609D01*
X0009284Y0001602D01*
X0009474Y0001600D01*
X0009284Y0001602D01*
X0009094Y0001609D01*
X0008904Y0001621D01*
X0008714Y0001637D01*
X0008525Y0001657D01*
X0008336Y0001683D01*
X0008148Y0001712D01*
X0007961Y0001747D01*
X0007775Y0001786D01*
X0007590Y0001829D01*
X0007405Y0001877D01*
X0007222Y0001929D01*
X0007041Y0001985D01*
X0006861Y0002046D01*
X0006682Y0002112D01*
X0006505Y0002181D01*
X0006329Y0002255D01*
X0006156Y0002333D01*
X0005984Y0002416D01*
X0005815Y0002502D01*
X0005647Y0002592D01*
X0005482Y0002687D01*
X0005319Y0002785D01*
X0005159Y0002888D01*
X0005001Y0002994D01*
X0004846Y0003104D01*
X0004693Y0003217D01*
X0004543Y0003335D01*
X0004397Y0003456D01*
X0004253Y0003580D01*
X0004112Y0003708D01*
X0003974Y0003839D01*
X0003839Y0003974D01*
X0003708Y0004112D01*
X0003580Y0004253D01*
X0003456Y0004397D01*
X0003335Y0004543D01*
X0003217Y0004693D01*
X0003104Y0004846D01*
X0002994Y0005001D01*
X0002888Y0005159D01*
X0002785Y0005319D01*
X0002687Y0005482D01*
X0002592Y0005647D01*
X0002502Y0005815D01*
X0002416Y0005984D01*
X0002333Y0006156D01*
X0002255Y0006329D01*
X0002181Y0006505D01*
X0002112Y0006682D01*
X0002046Y0006861D01*
X0001985Y0007041D01*
X0001929Y0007222D01*
X0001877Y0007405D01*
X0001829Y0007590D01*
X0001786Y0007775D01*
X0001747Y0007961D01*
X0001712Y0008148D01*
X0001683Y0008336D01*
X0001657Y0008525D01*
X0001637Y0008714D01*
X0001621Y0008904D01*
X0001609Y0009094D01*
X0001602Y0009284D01*
X0001600Y0009474D01*
X0128569Y0100025D02*
X0128569Y0103962D01*
X0148254Y0103962D01*
X0148254Y0100025D01*
X0128569Y0100025D01*
X0126246Y0137771D02*
X0126246Y0141521D01*
X0026246Y0141521D01*
X0026246Y0137771D01*
X0126246Y0137771D01*
X0009474Y0141364D02*
X0009284Y0141362D01*
X0009094Y0141355D01*
X0008904Y0141343D01*
X0008714Y0141327D01*
X0008525Y0141307D01*
X0008336Y0141281D01*
X0008148Y0141252D01*
X0007961Y0141217D01*
X0007775Y0141178D01*
X0007590Y0141135D01*
X0007405Y0141087D01*
X0007222Y0141035D01*
X0007041Y0140979D01*
X0006861Y0140918D01*
X0006682Y0140852D01*
X0006505Y0140783D01*
X0006329Y0140709D01*
X0006156Y0140631D01*
X0005984Y0140548D01*
X0005815Y0140462D01*
X0005647Y0140372D01*
X0005482Y0140277D01*
X0005319Y0140179D01*
X0005159Y0140076D01*
X0005001Y0139970D01*
X0004846Y0139860D01*
X0004693Y0139747D01*
X0004543Y0139629D01*
X0004397Y0139508D01*
X0004253Y0139384D01*
X0004112Y0139256D01*
X0003974Y0139125D01*
X0003839Y0138990D01*
X0003708Y0138852D01*
X0003580Y0138711D01*
X0003456Y0138567D01*
X0003335Y0138421D01*
X0003217Y0138271D01*
X0003104Y0138118D01*
X0002994Y0137963D01*
X0002888Y0137805D01*
X0002785Y0137645D01*
X0002687Y0137482D01*
X0002592Y0137317D01*
X0002502Y0137149D01*
X0002416Y0136980D01*
X0002333Y0136808D01*
X0002255Y0136635D01*
X0002181Y0136459D01*
X0002112Y0136282D01*
X0002046Y0136103D01*
X0001985Y0135923D01*
X0001929Y0135742D01*
X0001877Y0135559D01*
X0001829Y0135374D01*
X0001786Y0135189D01*
X0001747Y0135003D01*
X0001712Y0134816D01*
X0001683Y0134628D01*
X0001657Y0134439D01*
X0001637Y0134250D01*
X0001621Y0134060D01*
X0001609Y0133870D01*
X0001602Y0133680D01*
X0001600Y0133490D01*
X0143332Y0001600D02*
X0143522Y0001602D01*
X0143712Y0001609D01*
X0143902Y0001621D01*
X0144092Y0001637D01*
X0144281Y0001657D01*
X0144470Y0001683D01*
X0144658Y0001712D01*
X0144845Y0001747D01*
X0145031Y0001786D01*
X0145216Y0001829D01*
X0145401Y0001877D01*
X0145584Y0001929D01*
X0145765Y0001985D01*
X0145945Y0002046D01*
X0146124Y0002112D01*
X0146301Y0002181D01*
X0146477Y0002255D01*
X0146650Y0002333D01*
X0146822Y0002416D01*
X0146991Y0002502D01*
X0147159Y0002592D01*
X0147324Y0002687D01*
X0147487Y0002785D01*
X0147647Y0002888D01*
X0147805Y0002994D01*
X0147960Y0003104D01*
X0148113Y0003217D01*
X0148263Y0003335D01*
X0148409Y0003456D01*
X0148553Y0003580D01*
X0148694Y0003708D01*
X0148832Y0003839D01*
X0148967Y0003974D01*
X0149098Y0004112D01*
X0149226Y0004253D01*
X0149350Y0004397D01*
X0149471Y0004543D01*
X0149589Y0004693D01*
X0149702Y0004846D01*
X0149812Y0005001D01*
X0149918Y0005159D01*
X0150021Y0005319D01*
X0150119Y0005482D01*
X0150214Y0005647D01*
X0150304Y0005815D01*
X0150390Y0005984D01*
X0150473Y0006156D01*
X0150551Y0006329D01*
X0150625Y0006505D01*
X0150694Y0006682D01*
X0150760Y0006861D01*
X0150821Y0007041D01*
X0150877Y0007222D01*
X0150929Y0007405D01*
X0150977Y0007590D01*
X0151020Y0007775D01*
X0151059Y0007961D01*
X0151094Y0008148D01*
X0151123Y0008336D01*
X0151149Y0008525D01*
X0151169Y0008714D01*
X0151185Y0008904D01*
X0151197Y0009094D01*
X0151204Y0009284D01*
X0151206Y0009474D01*
M02*
