G75*
%MOIN*%
%OFA0B0*%
%FSLAX25Y25*%
%IPPOS*%
%LPD*%
%AMOC8*
5,1,8,0,0,1.08239X$1,22.5*
%
%ADD10C,0.00000*%
%ADD11C,0.00200*%
%ADD12C,0.00500*%
%ADD13C,0.02362*%
%ADD14R,0.31496X0.25591*%
%ADD15R,0.33465X0.03937*%
%ADD16C,0.00300*%
%ADD17C,0.00600*%
%ADD18C,0.00394*%
D10*
X0009474Y0001600D02*
X0143332Y0001600D01*
X0143522Y0001602D01*
X0143712Y0001609D01*
X0143902Y0001621D01*
X0144092Y0001637D01*
X0144281Y0001657D01*
X0144470Y0001683D01*
X0144658Y0001712D01*
X0144845Y0001747D01*
X0145031Y0001786D01*
X0145216Y0001829D01*
X0145401Y0001877D01*
X0145584Y0001929D01*
X0145765Y0001985D01*
X0145945Y0002046D01*
X0146124Y0002112D01*
X0146301Y0002181D01*
X0146477Y0002255D01*
X0146650Y0002333D01*
X0146822Y0002416D01*
X0146991Y0002502D01*
X0147159Y0002592D01*
X0147324Y0002687D01*
X0147487Y0002785D01*
X0147647Y0002888D01*
X0147805Y0002994D01*
X0147960Y0003104D01*
X0148113Y0003217D01*
X0148263Y0003335D01*
X0148409Y0003456D01*
X0148553Y0003580D01*
X0148694Y0003708D01*
X0148832Y0003839D01*
X0148967Y0003974D01*
X0149098Y0004112D01*
X0149226Y0004253D01*
X0149350Y0004397D01*
X0149471Y0004543D01*
X0149589Y0004693D01*
X0149702Y0004846D01*
X0149812Y0005001D01*
X0149918Y0005159D01*
X0150021Y0005319D01*
X0150119Y0005482D01*
X0150214Y0005647D01*
X0150304Y0005815D01*
X0150390Y0005984D01*
X0150473Y0006156D01*
X0150551Y0006329D01*
X0150625Y0006505D01*
X0150694Y0006682D01*
X0150760Y0006861D01*
X0150821Y0007041D01*
X0150877Y0007222D01*
X0150929Y0007405D01*
X0150977Y0007590D01*
X0151020Y0007775D01*
X0151059Y0007961D01*
X0151094Y0008148D01*
X0151123Y0008336D01*
X0151149Y0008525D01*
X0151169Y0008714D01*
X0151185Y0008904D01*
X0151197Y0009094D01*
X0151204Y0009284D01*
X0151206Y0009474D01*
X0151206Y0133490D01*
X0151204Y0133680D01*
X0151197Y0133870D01*
X0151185Y0134060D01*
X0151169Y0134250D01*
X0151149Y0134439D01*
X0151123Y0134628D01*
X0151094Y0134816D01*
X0151059Y0135003D01*
X0151020Y0135189D01*
X0150977Y0135374D01*
X0150929Y0135559D01*
X0150877Y0135742D01*
X0150821Y0135923D01*
X0150760Y0136103D01*
X0150694Y0136282D01*
X0150625Y0136459D01*
X0150551Y0136635D01*
X0150473Y0136808D01*
X0150390Y0136980D01*
X0150304Y0137149D01*
X0150214Y0137317D01*
X0150119Y0137482D01*
X0150021Y0137645D01*
X0149918Y0137805D01*
X0149812Y0137963D01*
X0149702Y0138118D01*
X0149589Y0138271D01*
X0149471Y0138421D01*
X0149350Y0138567D01*
X0149226Y0138711D01*
X0149098Y0138852D01*
X0148967Y0138990D01*
X0148832Y0139125D01*
X0148694Y0139256D01*
X0148553Y0139384D01*
X0148409Y0139508D01*
X0148263Y0139629D01*
X0148113Y0139747D01*
X0147960Y0139860D01*
X0147805Y0139970D01*
X0147647Y0140076D01*
X0147487Y0140179D01*
X0147324Y0140277D01*
X0147159Y0140372D01*
X0146991Y0140462D01*
X0146822Y0140548D01*
X0146650Y0140631D01*
X0146477Y0140709D01*
X0146301Y0140783D01*
X0146124Y0140852D01*
X0145945Y0140918D01*
X0145765Y0140979D01*
X0145584Y0141035D01*
X0145401Y0141087D01*
X0145216Y0141135D01*
X0145031Y0141178D01*
X0144845Y0141217D01*
X0144658Y0141252D01*
X0144470Y0141281D01*
X0144281Y0141307D01*
X0144092Y0141327D01*
X0143902Y0141343D01*
X0143712Y0141355D01*
X0143522Y0141362D01*
X0143332Y0141364D01*
X0009474Y0141364D01*
X0009284Y0141362D01*
X0009094Y0141355D01*
X0008904Y0141343D01*
X0008714Y0141327D01*
X0008525Y0141307D01*
X0008336Y0141281D01*
X0008148Y0141252D01*
X0007961Y0141217D01*
X0007775Y0141178D01*
X0007590Y0141135D01*
X0007405Y0141087D01*
X0007222Y0141035D01*
X0007041Y0140979D01*
X0006861Y0140918D01*
X0006682Y0140852D01*
X0006505Y0140783D01*
X0006329Y0140709D01*
X0006156Y0140631D01*
X0005984Y0140548D01*
X0005815Y0140462D01*
X0005647Y0140372D01*
X0005482Y0140277D01*
X0005319Y0140179D01*
X0005159Y0140076D01*
X0005001Y0139970D01*
X0004846Y0139860D01*
X0004693Y0139747D01*
X0004543Y0139629D01*
X0004397Y0139508D01*
X0004253Y0139384D01*
X0004112Y0139256D01*
X0003974Y0139125D01*
X0003839Y0138990D01*
X0003708Y0138852D01*
X0003580Y0138711D01*
X0003456Y0138567D01*
X0003335Y0138421D01*
X0003217Y0138271D01*
X0003104Y0138118D01*
X0002994Y0137963D01*
X0002888Y0137805D01*
X0002785Y0137645D01*
X0002687Y0137482D01*
X0002592Y0137317D01*
X0002502Y0137149D01*
X0002416Y0136980D01*
X0002333Y0136808D01*
X0002255Y0136635D01*
X0002181Y0136459D01*
X0002112Y0136282D01*
X0002046Y0136103D01*
X0001985Y0135923D01*
X0001929Y0135742D01*
X0001877Y0135559D01*
X0001829Y0135374D01*
X0001786Y0135189D01*
X0001747Y0135003D01*
X0001712Y0134816D01*
X0001683Y0134628D01*
X0001657Y0134439D01*
X0001637Y0134250D01*
X0001621Y0134060D01*
X0001609Y0133870D01*
X0001602Y0133680D01*
X0001600Y0133490D01*
X0001600Y0009474D01*
X0001602Y0009284D01*
X0001609Y0009094D01*
X0001621Y0008904D01*
X0001637Y0008714D01*
X0001657Y0008525D01*
X0001683Y0008336D01*
X0001712Y0008148D01*
X0001747Y0007961D01*
X0001786Y0007775D01*
X0001829Y0007590D01*
X0001877Y0007405D01*
X0001929Y0007222D01*
X0001985Y0007041D01*
X0002046Y0006861D01*
X0002112Y0006682D01*
X0002181Y0006505D01*
X0002255Y0006329D01*
X0002333Y0006156D01*
X0002416Y0005984D01*
X0002502Y0005815D01*
X0002592Y0005647D01*
X0002687Y0005482D01*
X0002785Y0005319D01*
X0002888Y0005159D01*
X0002994Y0005001D01*
X0003104Y0004846D01*
X0003217Y0004693D01*
X0003335Y0004543D01*
X0003456Y0004397D01*
X0003580Y0004253D01*
X0003708Y0004112D01*
X0003839Y0003974D01*
X0003974Y0003839D01*
X0004112Y0003708D01*
X0004253Y0003580D01*
X0004397Y0003456D01*
X0004543Y0003335D01*
X0004693Y0003217D01*
X0004846Y0003104D01*
X0005001Y0002994D01*
X0005159Y0002888D01*
X0005319Y0002785D01*
X0005482Y0002687D01*
X0005647Y0002592D01*
X0005815Y0002502D01*
X0005984Y0002416D01*
X0006156Y0002333D01*
X0006329Y0002255D01*
X0006505Y0002181D01*
X0006682Y0002112D01*
X0006861Y0002046D01*
X0007041Y0001985D01*
X0007222Y0001929D01*
X0007405Y0001877D01*
X0007590Y0001829D01*
X0007775Y0001786D01*
X0007961Y0001747D01*
X0008148Y0001712D01*
X0008336Y0001683D01*
X0008525Y0001657D01*
X0008714Y0001637D01*
X0008904Y0001621D01*
X0009094Y0001609D01*
X0009284Y0001602D01*
X0009474Y0001600D01*
X0007537Y0012589D02*
X0007539Y0012729D01*
X0007545Y0012869D01*
X0007555Y0013008D01*
X0007569Y0013147D01*
X0007587Y0013286D01*
X0007608Y0013424D01*
X0007634Y0013562D01*
X0007664Y0013699D01*
X0007697Y0013834D01*
X0007735Y0013969D01*
X0007776Y0014103D01*
X0007821Y0014236D01*
X0007869Y0014367D01*
X0007922Y0014496D01*
X0007978Y0014625D01*
X0008037Y0014751D01*
X0008101Y0014876D01*
X0008167Y0014999D01*
X0008238Y0015120D01*
X0008311Y0015239D01*
X0008388Y0015356D01*
X0008469Y0015470D01*
X0008552Y0015582D01*
X0008639Y0015692D01*
X0008729Y0015800D01*
X0008821Y0015904D01*
X0008917Y0016006D01*
X0009016Y0016106D01*
X0009117Y0016202D01*
X0009221Y0016296D01*
X0009328Y0016386D01*
X0009437Y0016473D01*
X0009549Y0016558D01*
X0009663Y0016639D01*
X0009779Y0016717D01*
X0009897Y0016791D01*
X0010018Y0016862D01*
X0010140Y0016930D01*
X0010265Y0016994D01*
X0010391Y0017055D01*
X0010518Y0017112D01*
X0010648Y0017165D01*
X0010779Y0017215D01*
X0010911Y0017260D01*
X0011044Y0017303D01*
X0011179Y0017341D01*
X0011314Y0017375D01*
X0011451Y0017406D01*
X0011588Y0017433D01*
X0011726Y0017455D01*
X0011865Y0017474D01*
X0012004Y0017489D01*
X0012143Y0017500D01*
X0012283Y0017507D01*
X0012423Y0017510D01*
X0012563Y0017509D01*
X0012703Y0017504D01*
X0012842Y0017495D01*
X0012982Y0017482D01*
X0013121Y0017465D01*
X0013259Y0017444D01*
X0013397Y0017420D01*
X0013534Y0017391D01*
X0013670Y0017359D01*
X0013805Y0017322D01*
X0013939Y0017282D01*
X0014072Y0017238D01*
X0014203Y0017190D01*
X0014333Y0017139D01*
X0014462Y0017084D01*
X0014589Y0017025D01*
X0014714Y0016962D01*
X0014837Y0016897D01*
X0014959Y0016827D01*
X0015078Y0016754D01*
X0015196Y0016678D01*
X0015311Y0016599D01*
X0015424Y0016516D01*
X0015534Y0016430D01*
X0015642Y0016341D01*
X0015747Y0016249D01*
X0015850Y0016154D01*
X0015950Y0016056D01*
X0016047Y0015956D01*
X0016141Y0015852D01*
X0016233Y0015746D01*
X0016321Y0015638D01*
X0016406Y0015527D01*
X0016488Y0015413D01*
X0016567Y0015297D01*
X0016642Y0015180D01*
X0016714Y0015060D01*
X0016782Y0014938D01*
X0016847Y0014814D01*
X0016909Y0014688D01*
X0016967Y0014561D01*
X0017021Y0014432D01*
X0017072Y0014301D01*
X0017118Y0014169D01*
X0017161Y0014036D01*
X0017201Y0013902D01*
X0017236Y0013767D01*
X0017268Y0013630D01*
X0017295Y0013493D01*
X0017319Y0013355D01*
X0017339Y0013217D01*
X0017355Y0013078D01*
X0017367Y0012938D01*
X0017375Y0012799D01*
X0017379Y0012659D01*
X0017379Y0012519D01*
X0017375Y0012379D01*
X0017367Y0012240D01*
X0017355Y0012100D01*
X0017339Y0011961D01*
X0017319Y0011823D01*
X0017295Y0011685D01*
X0017268Y0011548D01*
X0017236Y0011411D01*
X0017201Y0011276D01*
X0017161Y0011142D01*
X0017118Y0011009D01*
X0017072Y0010877D01*
X0017021Y0010746D01*
X0016967Y0010617D01*
X0016909Y0010490D01*
X0016847Y0010364D01*
X0016782Y0010240D01*
X0016714Y0010118D01*
X0016642Y0009998D01*
X0016567Y0009881D01*
X0016488Y0009765D01*
X0016406Y0009651D01*
X0016321Y0009540D01*
X0016233Y0009432D01*
X0016141Y0009326D01*
X0016047Y0009222D01*
X0015950Y0009122D01*
X0015850Y0009024D01*
X0015747Y0008929D01*
X0015642Y0008837D01*
X0015534Y0008748D01*
X0015424Y0008662D01*
X0015311Y0008579D01*
X0015196Y0008500D01*
X0015078Y0008424D01*
X0014959Y0008351D01*
X0014837Y0008281D01*
X0014714Y0008216D01*
X0014589Y0008153D01*
X0014462Y0008094D01*
X0014333Y0008039D01*
X0014203Y0007988D01*
X0014072Y0007940D01*
X0013939Y0007896D01*
X0013805Y0007856D01*
X0013670Y0007819D01*
X0013534Y0007787D01*
X0013397Y0007758D01*
X0013259Y0007734D01*
X0013121Y0007713D01*
X0012982Y0007696D01*
X0012842Y0007683D01*
X0012703Y0007674D01*
X0012563Y0007669D01*
X0012423Y0007668D01*
X0012283Y0007671D01*
X0012143Y0007678D01*
X0012004Y0007689D01*
X0011865Y0007704D01*
X0011726Y0007723D01*
X0011588Y0007745D01*
X0011451Y0007772D01*
X0011314Y0007803D01*
X0011179Y0007837D01*
X0011044Y0007875D01*
X0010911Y0007918D01*
X0010779Y0007963D01*
X0010648Y0008013D01*
X0010518Y0008066D01*
X0010391Y0008123D01*
X0010265Y0008184D01*
X0010140Y0008248D01*
X0010018Y0008316D01*
X0009897Y0008387D01*
X0009779Y0008461D01*
X0009663Y0008539D01*
X0009549Y0008620D01*
X0009437Y0008705D01*
X0009328Y0008792D01*
X0009221Y0008882D01*
X0009117Y0008976D01*
X0009016Y0009072D01*
X0008917Y0009172D01*
X0008821Y0009274D01*
X0008729Y0009378D01*
X0008639Y0009486D01*
X0008552Y0009596D01*
X0008469Y0009708D01*
X0008388Y0009822D01*
X0008311Y0009939D01*
X0008238Y0010058D01*
X0008167Y0010179D01*
X0008101Y0010302D01*
X0008037Y0010427D01*
X0007978Y0010553D01*
X0007922Y0010682D01*
X0007869Y0010811D01*
X0007821Y0010942D01*
X0007776Y0011075D01*
X0007735Y0011209D01*
X0007697Y0011344D01*
X0007664Y0011479D01*
X0007634Y0011616D01*
X0007608Y0011754D01*
X0007587Y0011892D01*
X0007569Y0012031D01*
X0007555Y0012170D01*
X0007545Y0012309D01*
X0007539Y0012449D01*
X0007537Y0012589D01*
X0005586Y0130686D02*
X0005588Y0130826D01*
X0005594Y0130966D01*
X0005604Y0131105D01*
X0005618Y0131244D01*
X0005636Y0131383D01*
X0005657Y0131521D01*
X0005683Y0131659D01*
X0005713Y0131796D01*
X0005746Y0131931D01*
X0005784Y0132066D01*
X0005825Y0132200D01*
X0005870Y0132333D01*
X0005918Y0132464D01*
X0005971Y0132593D01*
X0006027Y0132722D01*
X0006086Y0132848D01*
X0006150Y0132973D01*
X0006216Y0133096D01*
X0006287Y0133217D01*
X0006360Y0133336D01*
X0006437Y0133453D01*
X0006518Y0133567D01*
X0006601Y0133679D01*
X0006688Y0133789D01*
X0006778Y0133897D01*
X0006870Y0134001D01*
X0006966Y0134103D01*
X0007065Y0134203D01*
X0007166Y0134299D01*
X0007270Y0134393D01*
X0007377Y0134483D01*
X0007486Y0134570D01*
X0007598Y0134655D01*
X0007712Y0134736D01*
X0007828Y0134814D01*
X0007946Y0134888D01*
X0008067Y0134959D01*
X0008189Y0135027D01*
X0008314Y0135091D01*
X0008440Y0135152D01*
X0008567Y0135209D01*
X0008697Y0135262D01*
X0008828Y0135312D01*
X0008960Y0135357D01*
X0009093Y0135400D01*
X0009228Y0135438D01*
X0009363Y0135472D01*
X0009500Y0135503D01*
X0009637Y0135530D01*
X0009775Y0135552D01*
X0009914Y0135571D01*
X0010053Y0135586D01*
X0010192Y0135597D01*
X0010332Y0135604D01*
X0010472Y0135607D01*
X0010612Y0135606D01*
X0010752Y0135601D01*
X0010891Y0135592D01*
X0011031Y0135579D01*
X0011170Y0135562D01*
X0011308Y0135541D01*
X0011446Y0135517D01*
X0011583Y0135488D01*
X0011719Y0135456D01*
X0011854Y0135419D01*
X0011988Y0135379D01*
X0012121Y0135335D01*
X0012252Y0135287D01*
X0012382Y0135236D01*
X0012511Y0135181D01*
X0012638Y0135122D01*
X0012763Y0135059D01*
X0012886Y0134994D01*
X0013008Y0134924D01*
X0013127Y0134851D01*
X0013245Y0134775D01*
X0013360Y0134696D01*
X0013473Y0134613D01*
X0013583Y0134527D01*
X0013691Y0134438D01*
X0013796Y0134346D01*
X0013899Y0134251D01*
X0013999Y0134153D01*
X0014096Y0134053D01*
X0014190Y0133949D01*
X0014282Y0133843D01*
X0014370Y0133735D01*
X0014455Y0133624D01*
X0014537Y0133510D01*
X0014616Y0133394D01*
X0014691Y0133277D01*
X0014763Y0133157D01*
X0014831Y0133035D01*
X0014896Y0132911D01*
X0014958Y0132785D01*
X0015016Y0132658D01*
X0015070Y0132529D01*
X0015121Y0132398D01*
X0015167Y0132266D01*
X0015210Y0132133D01*
X0015250Y0131999D01*
X0015285Y0131864D01*
X0015317Y0131727D01*
X0015344Y0131590D01*
X0015368Y0131452D01*
X0015388Y0131314D01*
X0015404Y0131175D01*
X0015416Y0131035D01*
X0015424Y0130896D01*
X0015428Y0130756D01*
X0015428Y0130616D01*
X0015424Y0130476D01*
X0015416Y0130337D01*
X0015404Y0130197D01*
X0015388Y0130058D01*
X0015368Y0129920D01*
X0015344Y0129782D01*
X0015317Y0129645D01*
X0015285Y0129508D01*
X0015250Y0129373D01*
X0015210Y0129239D01*
X0015167Y0129106D01*
X0015121Y0128974D01*
X0015070Y0128843D01*
X0015016Y0128714D01*
X0014958Y0128587D01*
X0014896Y0128461D01*
X0014831Y0128337D01*
X0014763Y0128215D01*
X0014691Y0128095D01*
X0014616Y0127978D01*
X0014537Y0127862D01*
X0014455Y0127748D01*
X0014370Y0127637D01*
X0014282Y0127529D01*
X0014190Y0127423D01*
X0014096Y0127319D01*
X0013999Y0127219D01*
X0013899Y0127121D01*
X0013796Y0127026D01*
X0013691Y0126934D01*
X0013583Y0126845D01*
X0013473Y0126759D01*
X0013360Y0126676D01*
X0013245Y0126597D01*
X0013127Y0126521D01*
X0013008Y0126448D01*
X0012886Y0126378D01*
X0012763Y0126313D01*
X0012638Y0126250D01*
X0012511Y0126191D01*
X0012382Y0126136D01*
X0012252Y0126085D01*
X0012121Y0126037D01*
X0011988Y0125993D01*
X0011854Y0125953D01*
X0011719Y0125916D01*
X0011583Y0125884D01*
X0011446Y0125855D01*
X0011308Y0125831D01*
X0011170Y0125810D01*
X0011031Y0125793D01*
X0010891Y0125780D01*
X0010752Y0125771D01*
X0010612Y0125766D01*
X0010472Y0125765D01*
X0010332Y0125768D01*
X0010192Y0125775D01*
X0010053Y0125786D01*
X0009914Y0125801D01*
X0009775Y0125820D01*
X0009637Y0125842D01*
X0009500Y0125869D01*
X0009363Y0125900D01*
X0009228Y0125934D01*
X0009093Y0125972D01*
X0008960Y0126015D01*
X0008828Y0126060D01*
X0008697Y0126110D01*
X0008567Y0126163D01*
X0008440Y0126220D01*
X0008314Y0126281D01*
X0008189Y0126345D01*
X0008067Y0126413D01*
X0007946Y0126484D01*
X0007828Y0126558D01*
X0007712Y0126636D01*
X0007598Y0126717D01*
X0007486Y0126802D01*
X0007377Y0126889D01*
X0007270Y0126979D01*
X0007166Y0127073D01*
X0007065Y0127169D01*
X0006966Y0127269D01*
X0006870Y0127371D01*
X0006778Y0127475D01*
X0006688Y0127583D01*
X0006601Y0127693D01*
X0006518Y0127805D01*
X0006437Y0127919D01*
X0006360Y0128036D01*
X0006287Y0128155D01*
X0006216Y0128276D01*
X0006150Y0128399D01*
X0006086Y0128524D01*
X0006027Y0128650D01*
X0005971Y0128779D01*
X0005918Y0128908D01*
X0005870Y0129039D01*
X0005825Y0129172D01*
X0005784Y0129306D01*
X0005746Y0129441D01*
X0005713Y0129576D01*
X0005683Y0129713D01*
X0005657Y0129851D01*
X0005636Y0129989D01*
X0005618Y0130128D01*
X0005604Y0130267D01*
X0005594Y0130406D01*
X0005588Y0130546D01*
X0005586Y0130686D01*
X0135489Y0012589D02*
X0135491Y0012729D01*
X0135497Y0012869D01*
X0135507Y0013008D01*
X0135521Y0013147D01*
X0135539Y0013286D01*
X0135560Y0013424D01*
X0135586Y0013562D01*
X0135616Y0013699D01*
X0135649Y0013834D01*
X0135687Y0013969D01*
X0135728Y0014103D01*
X0135773Y0014236D01*
X0135821Y0014367D01*
X0135874Y0014496D01*
X0135930Y0014625D01*
X0135989Y0014751D01*
X0136053Y0014876D01*
X0136119Y0014999D01*
X0136190Y0015120D01*
X0136263Y0015239D01*
X0136340Y0015356D01*
X0136421Y0015470D01*
X0136504Y0015582D01*
X0136591Y0015692D01*
X0136681Y0015800D01*
X0136773Y0015904D01*
X0136869Y0016006D01*
X0136968Y0016106D01*
X0137069Y0016202D01*
X0137173Y0016296D01*
X0137280Y0016386D01*
X0137389Y0016473D01*
X0137501Y0016558D01*
X0137615Y0016639D01*
X0137731Y0016717D01*
X0137849Y0016791D01*
X0137970Y0016862D01*
X0138092Y0016930D01*
X0138217Y0016994D01*
X0138343Y0017055D01*
X0138470Y0017112D01*
X0138600Y0017165D01*
X0138731Y0017215D01*
X0138863Y0017260D01*
X0138996Y0017303D01*
X0139131Y0017341D01*
X0139266Y0017375D01*
X0139403Y0017406D01*
X0139540Y0017433D01*
X0139678Y0017455D01*
X0139817Y0017474D01*
X0139956Y0017489D01*
X0140095Y0017500D01*
X0140235Y0017507D01*
X0140375Y0017510D01*
X0140515Y0017509D01*
X0140655Y0017504D01*
X0140794Y0017495D01*
X0140934Y0017482D01*
X0141073Y0017465D01*
X0141211Y0017444D01*
X0141349Y0017420D01*
X0141486Y0017391D01*
X0141622Y0017359D01*
X0141757Y0017322D01*
X0141891Y0017282D01*
X0142024Y0017238D01*
X0142155Y0017190D01*
X0142285Y0017139D01*
X0142414Y0017084D01*
X0142541Y0017025D01*
X0142666Y0016962D01*
X0142789Y0016897D01*
X0142911Y0016827D01*
X0143030Y0016754D01*
X0143148Y0016678D01*
X0143263Y0016599D01*
X0143376Y0016516D01*
X0143486Y0016430D01*
X0143594Y0016341D01*
X0143699Y0016249D01*
X0143802Y0016154D01*
X0143902Y0016056D01*
X0143999Y0015956D01*
X0144093Y0015852D01*
X0144185Y0015746D01*
X0144273Y0015638D01*
X0144358Y0015527D01*
X0144440Y0015413D01*
X0144519Y0015297D01*
X0144594Y0015180D01*
X0144666Y0015060D01*
X0144734Y0014938D01*
X0144799Y0014814D01*
X0144861Y0014688D01*
X0144919Y0014561D01*
X0144973Y0014432D01*
X0145024Y0014301D01*
X0145070Y0014169D01*
X0145113Y0014036D01*
X0145153Y0013902D01*
X0145188Y0013767D01*
X0145220Y0013630D01*
X0145247Y0013493D01*
X0145271Y0013355D01*
X0145291Y0013217D01*
X0145307Y0013078D01*
X0145319Y0012938D01*
X0145327Y0012799D01*
X0145331Y0012659D01*
X0145331Y0012519D01*
X0145327Y0012379D01*
X0145319Y0012240D01*
X0145307Y0012100D01*
X0145291Y0011961D01*
X0145271Y0011823D01*
X0145247Y0011685D01*
X0145220Y0011548D01*
X0145188Y0011411D01*
X0145153Y0011276D01*
X0145113Y0011142D01*
X0145070Y0011009D01*
X0145024Y0010877D01*
X0144973Y0010746D01*
X0144919Y0010617D01*
X0144861Y0010490D01*
X0144799Y0010364D01*
X0144734Y0010240D01*
X0144666Y0010118D01*
X0144594Y0009998D01*
X0144519Y0009881D01*
X0144440Y0009765D01*
X0144358Y0009651D01*
X0144273Y0009540D01*
X0144185Y0009432D01*
X0144093Y0009326D01*
X0143999Y0009222D01*
X0143902Y0009122D01*
X0143802Y0009024D01*
X0143699Y0008929D01*
X0143594Y0008837D01*
X0143486Y0008748D01*
X0143376Y0008662D01*
X0143263Y0008579D01*
X0143148Y0008500D01*
X0143030Y0008424D01*
X0142911Y0008351D01*
X0142789Y0008281D01*
X0142666Y0008216D01*
X0142541Y0008153D01*
X0142414Y0008094D01*
X0142285Y0008039D01*
X0142155Y0007988D01*
X0142024Y0007940D01*
X0141891Y0007896D01*
X0141757Y0007856D01*
X0141622Y0007819D01*
X0141486Y0007787D01*
X0141349Y0007758D01*
X0141211Y0007734D01*
X0141073Y0007713D01*
X0140934Y0007696D01*
X0140794Y0007683D01*
X0140655Y0007674D01*
X0140515Y0007669D01*
X0140375Y0007668D01*
X0140235Y0007671D01*
X0140095Y0007678D01*
X0139956Y0007689D01*
X0139817Y0007704D01*
X0139678Y0007723D01*
X0139540Y0007745D01*
X0139403Y0007772D01*
X0139266Y0007803D01*
X0139131Y0007837D01*
X0138996Y0007875D01*
X0138863Y0007918D01*
X0138731Y0007963D01*
X0138600Y0008013D01*
X0138470Y0008066D01*
X0138343Y0008123D01*
X0138217Y0008184D01*
X0138092Y0008248D01*
X0137970Y0008316D01*
X0137849Y0008387D01*
X0137731Y0008461D01*
X0137615Y0008539D01*
X0137501Y0008620D01*
X0137389Y0008705D01*
X0137280Y0008792D01*
X0137173Y0008882D01*
X0137069Y0008976D01*
X0136968Y0009072D01*
X0136869Y0009172D01*
X0136773Y0009274D01*
X0136681Y0009378D01*
X0136591Y0009486D01*
X0136504Y0009596D01*
X0136421Y0009708D01*
X0136340Y0009822D01*
X0136263Y0009939D01*
X0136190Y0010058D01*
X0136119Y0010179D01*
X0136053Y0010302D01*
X0135989Y0010427D01*
X0135930Y0010553D01*
X0135874Y0010682D01*
X0135821Y0010811D01*
X0135773Y0010942D01*
X0135728Y0011075D01*
X0135687Y0011209D01*
X0135649Y0011344D01*
X0135616Y0011479D01*
X0135586Y0011616D01*
X0135560Y0011754D01*
X0135539Y0011892D01*
X0135521Y0012031D01*
X0135507Y0012170D01*
X0135497Y0012309D01*
X0135491Y0012449D01*
X0135489Y0012589D01*
D11*
X0142815Y0022369D02*
X0142448Y0022736D01*
X0142448Y0023470D01*
X0142815Y0023837D01*
X0143182Y0023837D01*
X0143549Y0023470D01*
X0143549Y0022736D01*
X0143916Y0022369D01*
X0144283Y0022369D01*
X0144650Y0022736D01*
X0144650Y0023470D01*
X0144283Y0023837D01*
X0144650Y0024579D02*
X0142448Y0024579D01*
X0142448Y0026047D01*
X0142448Y0026789D02*
X0144650Y0026789D01*
X0142448Y0028257D01*
X0144650Y0028257D01*
X0144283Y0028999D02*
X0143916Y0028999D01*
X0143549Y0029366D01*
X0143549Y0030100D01*
X0143182Y0030467D01*
X0142815Y0030467D01*
X0142448Y0030100D01*
X0142448Y0029366D01*
X0142815Y0028999D01*
X0144283Y0028999D02*
X0144650Y0029366D01*
X0144650Y0030100D01*
X0144283Y0030467D01*
X0144283Y0031209D02*
X0142815Y0031209D01*
X0142448Y0031576D01*
X0142448Y0032310D01*
X0142815Y0032677D01*
X0144283Y0032677D01*
X0144650Y0032310D01*
X0144650Y0031576D01*
X0144283Y0031209D01*
X0144650Y0033419D02*
X0142448Y0033419D01*
X0143182Y0033419D02*
X0143182Y0034520D01*
X0143549Y0034887D01*
X0144283Y0034887D01*
X0144650Y0034520D01*
X0144650Y0033419D01*
X0143182Y0034153D02*
X0142448Y0034887D01*
X0142815Y0035629D02*
X0142448Y0035996D01*
X0142448Y0036730D01*
X0142815Y0037096D01*
X0143182Y0037096D01*
X0143549Y0036730D01*
X0143549Y0036363D01*
X0143549Y0036730D02*
X0143916Y0037096D01*
X0144283Y0037096D01*
X0144650Y0036730D01*
X0144650Y0035996D01*
X0144283Y0035629D01*
X0144650Y0026047D02*
X0144650Y0024579D01*
X0143549Y0024579D02*
X0143549Y0025313D01*
X0111235Y0007407D02*
X0109767Y0007407D01*
X0110501Y0007407D02*
X0110501Y0005206D01*
X0109025Y0005206D02*
X0107557Y0007407D01*
X0109025Y0007407D02*
X0107557Y0005206D01*
X0093035Y0014495D02*
X0093035Y0016697D01*
X0091934Y0016697D01*
X0091568Y0016330D01*
X0091568Y0015596D01*
X0091934Y0015229D01*
X0093035Y0015229D01*
X0092301Y0015229D02*
X0091568Y0014495D01*
X0090826Y0014495D02*
X0089358Y0016697D01*
X0090826Y0016697D02*
X0089358Y0014495D01*
X0083193Y0014495D02*
X0083193Y0015963D01*
X0082459Y0016697D01*
X0081725Y0015963D01*
X0081725Y0014495D01*
X0080983Y0014862D02*
X0079515Y0016330D01*
X0079515Y0014862D01*
X0079882Y0014495D01*
X0080616Y0014495D01*
X0080983Y0014862D01*
X0080983Y0016330D01*
X0080616Y0016697D01*
X0079882Y0016697D01*
X0079515Y0016330D01*
X0081725Y0015596D02*
X0083193Y0015596D01*
X0073350Y0014495D02*
X0072249Y0014495D01*
X0071882Y0014862D01*
X0071882Y0016330D01*
X0072249Y0016697D01*
X0073350Y0016697D01*
X0073350Y0014495D01*
X0071141Y0015596D02*
X0070040Y0016697D01*
X0070040Y0014495D01*
X0069673Y0015596D02*
X0071141Y0015596D01*
X0063508Y0015596D02*
X0062774Y0015963D01*
X0062407Y0015963D01*
X0062040Y0015596D01*
X0062040Y0014862D01*
X0062407Y0014495D01*
X0063141Y0014495D01*
X0063508Y0014862D01*
X0063508Y0015596D02*
X0063508Y0016697D01*
X0062040Y0016697D01*
X0061298Y0016697D02*
X0061298Y0015229D01*
X0060564Y0014495D01*
X0059830Y0015229D01*
X0059830Y0016697D01*
X0044809Y0011418D02*
X0044809Y0010317D01*
X0042607Y0010317D01*
X0042607Y0011418D01*
X0042974Y0011785D01*
X0044442Y0011785D01*
X0044809Y0011418D01*
X0044809Y0009575D02*
X0042607Y0009575D01*
X0044809Y0008107D01*
X0042607Y0008107D01*
X0042974Y0007365D02*
X0042607Y0006998D01*
X0042607Y0006264D01*
X0042974Y0005897D01*
X0044442Y0005897D01*
X0044809Y0006264D01*
X0044809Y0006998D01*
X0044442Y0007365D01*
X0043708Y0007365D02*
X0043708Y0006631D01*
X0043708Y0007365D02*
X0042974Y0007365D01*
D12*
X0001639Y0003726D02*
X0151246Y0003726D01*
X0151246Y0141521D01*
X0076443Y0141521D01*
X0076443Y0133647D01*
X0017387Y0133647D01*
X0017387Y0141521D01*
X0007545Y0131679D02*
X0007547Y0131804D01*
X0007553Y0131929D01*
X0007563Y0132053D01*
X0007577Y0132177D01*
X0007594Y0132301D01*
X0007616Y0132424D01*
X0007642Y0132546D01*
X0007671Y0132668D01*
X0007704Y0132788D01*
X0007742Y0132907D01*
X0007782Y0133026D01*
X0007827Y0133142D01*
X0007875Y0133257D01*
X0007927Y0133371D01*
X0007983Y0133483D01*
X0008042Y0133593D01*
X0008104Y0133701D01*
X0008170Y0133808D01*
X0008239Y0133912D01*
X0008312Y0134013D01*
X0008387Y0134113D01*
X0008466Y0134210D01*
X0008548Y0134304D01*
X0008633Y0134396D01*
X0008720Y0134485D01*
X0008811Y0134571D01*
X0008904Y0134654D01*
X0009000Y0134735D01*
X0009098Y0134812D01*
X0009198Y0134886D01*
X0009301Y0134957D01*
X0009406Y0135024D01*
X0009514Y0135089D01*
X0009623Y0135149D01*
X0009734Y0135207D01*
X0009847Y0135260D01*
X0009961Y0135310D01*
X0010077Y0135357D01*
X0010194Y0135399D01*
X0010313Y0135438D01*
X0010433Y0135474D01*
X0010554Y0135505D01*
X0010676Y0135533D01*
X0010798Y0135556D01*
X0010922Y0135576D01*
X0011046Y0135592D01*
X0011170Y0135604D01*
X0011295Y0135612D01*
X0011420Y0135616D01*
X0011544Y0135616D01*
X0011669Y0135612D01*
X0011794Y0135604D01*
X0011918Y0135592D01*
X0012042Y0135576D01*
X0012166Y0135556D01*
X0012288Y0135533D01*
X0012410Y0135505D01*
X0012531Y0135474D01*
X0012651Y0135438D01*
X0012770Y0135399D01*
X0012887Y0135357D01*
X0013003Y0135310D01*
X0013117Y0135260D01*
X0013230Y0135207D01*
X0013341Y0135149D01*
X0013451Y0135089D01*
X0013558Y0135024D01*
X0013663Y0134957D01*
X0013766Y0134886D01*
X0013866Y0134812D01*
X0013964Y0134735D01*
X0014060Y0134654D01*
X0014153Y0134571D01*
X0014244Y0134485D01*
X0014331Y0134396D01*
X0014416Y0134304D01*
X0014498Y0134210D01*
X0014577Y0134113D01*
X0014652Y0134013D01*
X0014725Y0133912D01*
X0014794Y0133808D01*
X0014860Y0133701D01*
X0014922Y0133593D01*
X0014981Y0133483D01*
X0015037Y0133371D01*
X0015089Y0133257D01*
X0015137Y0133142D01*
X0015182Y0133026D01*
X0015222Y0132907D01*
X0015260Y0132788D01*
X0015293Y0132668D01*
X0015322Y0132546D01*
X0015348Y0132424D01*
X0015370Y0132301D01*
X0015387Y0132177D01*
X0015401Y0132053D01*
X0015411Y0131929D01*
X0015417Y0131804D01*
X0015419Y0131679D01*
X0015417Y0131554D01*
X0015411Y0131429D01*
X0015401Y0131305D01*
X0015387Y0131181D01*
X0015370Y0131057D01*
X0015348Y0130934D01*
X0015322Y0130812D01*
X0015293Y0130690D01*
X0015260Y0130570D01*
X0015222Y0130451D01*
X0015182Y0130332D01*
X0015137Y0130216D01*
X0015089Y0130101D01*
X0015037Y0129987D01*
X0014981Y0129875D01*
X0014922Y0129765D01*
X0014860Y0129657D01*
X0014794Y0129550D01*
X0014725Y0129446D01*
X0014652Y0129345D01*
X0014577Y0129245D01*
X0014498Y0129148D01*
X0014416Y0129054D01*
X0014331Y0128962D01*
X0014244Y0128873D01*
X0014153Y0128787D01*
X0014060Y0128704D01*
X0013964Y0128623D01*
X0013866Y0128546D01*
X0013766Y0128472D01*
X0013663Y0128401D01*
X0013558Y0128334D01*
X0013450Y0128269D01*
X0013341Y0128209D01*
X0013230Y0128151D01*
X0013117Y0128098D01*
X0013003Y0128048D01*
X0012887Y0128001D01*
X0012770Y0127959D01*
X0012651Y0127920D01*
X0012531Y0127884D01*
X0012410Y0127853D01*
X0012288Y0127825D01*
X0012166Y0127802D01*
X0012042Y0127782D01*
X0011918Y0127766D01*
X0011794Y0127754D01*
X0011669Y0127746D01*
X0011544Y0127742D01*
X0011420Y0127742D01*
X0011295Y0127746D01*
X0011170Y0127754D01*
X0011046Y0127766D01*
X0010922Y0127782D01*
X0010798Y0127802D01*
X0010676Y0127825D01*
X0010554Y0127853D01*
X0010433Y0127884D01*
X0010313Y0127920D01*
X0010194Y0127959D01*
X0010077Y0128001D01*
X0009961Y0128048D01*
X0009847Y0128098D01*
X0009734Y0128151D01*
X0009623Y0128209D01*
X0009513Y0128269D01*
X0009406Y0128334D01*
X0009301Y0128401D01*
X0009198Y0128472D01*
X0009098Y0128546D01*
X0009000Y0128623D01*
X0008904Y0128704D01*
X0008811Y0128787D01*
X0008720Y0128873D01*
X0008633Y0128962D01*
X0008548Y0129054D01*
X0008466Y0129148D01*
X0008387Y0129245D01*
X0008312Y0129345D01*
X0008239Y0129446D01*
X0008170Y0129550D01*
X0008104Y0129657D01*
X0008042Y0129765D01*
X0007983Y0129875D01*
X0007927Y0129987D01*
X0007875Y0130101D01*
X0007827Y0130216D01*
X0007782Y0130332D01*
X0007742Y0130451D01*
X0007704Y0130570D01*
X0007671Y0130690D01*
X0007642Y0130812D01*
X0007616Y0130934D01*
X0007594Y0131057D01*
X0007577Y0131181D01*
X0007563Y0131305D01*
X0007553Y0131429D01*
X0007547Y0131554D01*
X0007545Y0131679D01*
X0001639Y0141521D02*
X0001639Y0003726D01*
X0024238Y0006521D02*
X0024238Y0069868D01*
X0012269Y0069868D01*
X0012269Y0029907D01*
X0024120Y0029907D01*
X0024238Y0006521D02*
X0128569Y0006521D01*
X0128569Y0069907D01*
X0140340Y0069907D01*
X0140340Y0019907D01*
X0128608Y0019907D01*
X0137466Y0013569D02*
X0137468Y0013694D01*
X0137474Y0013819D01*
X0137484Y0013943D01*
X0137498Y0014067D01*
X0137515Y0014191D01*
X0137537Y0014314D01*
X0137563Y0014436D01*
X0137592Y0014558D01*
X0137625Y0014678D01*
X0137663Y0014797D01*
X0137703Y0014916D01*
X0137748Y0015032D01*
X0137796Y0015147D01*
X0137848Y0015261D01*
X0137904Y0015373D01*
X0137963Y0015483D01*
X0138025Y0015591D01*
X0138091Y0015698D01*
X0138160Y0015802D01*
X0138233Y0015903D01*
X0138308Y0016003D01*
X0138387Y0016100D01*
X0138469Y0016194D01*
X0138554Y0016286D01*
X0138641Y0016375D01*
X0138732Y0016461D01*
X0138825Y0016544D01*
X0138921Y0016625D01*
X0139019Y0016702D01*
X0139119Y0016776D01*
X0139222Y0016847D01*
X0139327Y0016914D01*
X0139435Y0016979D01*
X0139544Y0017039D01*
X0139655Y0017097D01*
X0139768Y0017150D01*
X0139882Y0017200D01*
X0139998Y0017247D01*
X0140115Y0017289D01*
X0140234Y0017328D01*
X0140354Y0017364D01*
X0140475Y0017395D01*
X0140597Y0017423D01*
X0140719Y0017446D01*
X0140843Y0017466D01*
X0140967Y0017482D01*
X0141091Y0017494D01*
X0141216Y0017502D01*
X0141341Y0017506D01*
X0141465Y0017506D01*
X0141590Y0017502D01*
X0141715Y0017494D01*
X0141839Y0017482D01*
X0141963Y0017466D01*
X0142087Y0017446D01*
X0142209Y0017423D01*
X0142331Y0017395D01*
X0142452Y0017364D01*
X0142572Y0017328D01*
X0142691Y0017289D01*
X0142808Y0017247D01*
X0142924Y0017200D01*
X0143038Y0017150D01*
X0143151Y0017097D01*
X0143262Y0017039D01*
X0143372Y0016979D01*
X0143479Y0016914D01*
X0143584Y0016847D01*
X0143687Y0016776D01*
X0143787Y0016702D01*
X0143885Y0016625D01*
X0143981Y0016544D01*
X0144074Y0016461D01*
X0144165Y0016375D01*
X0144252Y0016286D01*
X0144337Y0016194D01*
X0144419Y0016100D01*
X0144498Y0016003D01*
X0144573Y0015903D01*
X0144646Y0015802D01*
X0144715Y0015698D01*
X0144781Y0015591D01*
X0144843Y0015483D01*
X0144902Y0015373D01*
X0144958Y0015261D01*
X0145010Y0015147D01*
X0145058Y0015032D01*
X0145103Y0014916D01*
X0145143Y0014797D01*
X0145181Y0014678D01*
X0145214Y0014558D01*
X0145243Y0014436D01*
X0145269Y0014314D01*
X0145291Y0014191D01*
X0145308Y0014067D01*
X0145322Y0013943D01*
X0145332Y0013819D01*
X0145338Y0013694D01*
X0145340Y0013569D01*
X0145338Y0013444D01*
X0145332Y0013319D01*
X0145322Y0013195D01*
X0145308Y0013071D01*
X0145291Y0012947D01*
X0145269Y0012824D01*
X0145243Y0012702D01*
X0145214Y0012580D01*
X0145181Y0012460D01*
X0145143Y0012341D01*
X0145103Y0012222D01*
X0145058Y0012106D01*
X0145010Y0011991D01*
X0144958Y0011877D01*
X0144902Y0011765D01*
X0144843Y0011655D01*
X0144781Y0011547D01*
X0144715Y0011440D01*
X0144646Y0011336D01*
X0144573Y0011235D01*
X0144498Y0011135D01*
X0144419Y0011038D01*
X0144337Y0010944D01*
X0144252Y0010852D01*
X0144165Y0010763D01*
X0144074Y0010677D01*
X0143981Y0010594D01*
X0143885Y0010513D01*
X0143787Y0010436D01*
X0143687Y0010362D01*
X0143584Y0010291D01*
X0143479Y0010224D01*
X0143371Y0010159D01*
X0143262Y0010099D01*
X0143151Y0010041D01*
X0143038Y0009988D01*
X0142924Y0009938D01*
X0142808Y0009891D01*
X0142691Y0009849D01*
X0142572Y0009810D01*
X0142452Y0009774D01*
X0142331Y0009743D01*
X0142209Y0009715D01*
X0142087Y0009692D01*
X0141963Y0009672D01*
X0141839Y0009656D01*
X0141715Y0009644D01*
X0141590Y0009636D01*
X0141465Y0009632D01*
X0141341Y0009632D01*
X0141216Y0009636D01*
X0141091Y0009644D01*
X0140967Y0009656D01*
X0140843Y0009672D01*
X0140719Y0009692D01*
X0140597Y0009715D01*
X0140475Y0009743D01*
X0140354Y0009774D01*
X0140234Y0009810D01*
X0140115Y0009849D01*
X0139998Y0009891D01*
X0139882Y0009938D01*
X0139768Y0009988D01*
X0139655Y0010041D01*
X0139544Y0010099D01*
X0139434Y0010159D01*
X0139327Y0010224D01*
X0139222Y0010291D01*
X0139119Y0010362D01*
X0139019Y0010436D01*
X0138921Y0010513D01*
X0138825Y0010594D01*
X0138732Y0010677D01*
X0138641Y0010763D01*
X0138554Y0010852D01*
X0138469Y0010944D01*
X0138387Y0011038D01*
X0138308Y0011135D01*
X0138233Y0011235D01*
X0138160Y0011336D01*
X0138091Y0011440D01*
X0138025Y0011547D01*
X0137963Y0011655D01*
X0137904Y0011765D01*
X0137848Y0011877D01*
X0137796Y0011991D01*
X0137748Y0012106D01*
X0137703Y0012222D01*
X0137663Y0012341D01*
X0137625Y0012460D01*
X0137592Y0012580D01*
X0137563Y0012702D01*
X0137537Y0012824D01*
X0137515Y0012947D01*
X0137498Y0013071D01*
X0137484Y0013195D01*
X0137474Y0013319D01*
X0137468Y0013444D01*
X0137466Y0013569D01*
X0128569Y0069907D02*
X0128569Y0083293D01*
X0024238Y0083293D01*
X0024238Y0069868D01*
X0033686Y0061639D02*
X0033699Y0062687D01*
X0033737Y0063735D01*
X0033802Y0064781D01*
X0033892Y0065826D01*
X0034007Y0066868D01*
X0034148Y0067907D01*
X0034315Y0068942D01*
X0034507Y0069973D01*
X0034724Y0070998D01*
X0034966Y0072018D01*
X0035233Y0073032D01*
X0035525Y0074039D01*
X0035842Y0075039D01*
X0036183Y0076030D01*
X0036548Y0077013D01*
X0036938Y0077986D01*
X0037351Y0078950D01*
X0037787Y0079903D01*
X0038247Y0080845D01*
X0038730Y0081776D01*
X0039235Y0082694D01*
X0039763Y0083600D01*
X0040313Y0084492D01*
X0040885Y0085371D01*
X0041478Y0086236D01*
X0042092Y0087085D01*
X0042727Y0087920D01*
X0043382Y0088738D01*
X0044057Y0089541D01*
X0044752Y0090326D01*
X0045465Y0091094D01*
X0046198Y0091844D01*
X0046948Y0092577D01*
X0047716Y0093290D01*
X0048501Y0093985D01*
X0049304Y0094660D01*
X0050122Y0095315D01*
X0050957Y0095950D01*
X0051806Y0096564D01*
X0052671Y0097157D01*
X0053550Y0097729D01*
X0054442Y0098279D01*
X0055348Y0098807D01*
X0056266Y0099312D01*
X0057197Y0099795D01*
X0058139Y0100255D01*
X0059092Y0100691D01*
X0060056Y0101104D01*
X0061029Y0101494D01*
X0062012Y0101859D01*
X0063003Y0102200D01*
X0064003Y0102517D01*
X0065010Y0102809D01*
X0066024Y0103076D01*
X0067044Y0103318D01*
X0068069Y0103535D01*
X0069100Y0103727D01*
X0070135Y0103894D01*
X0071174Y0104035D01*
X0072216Y0104150D01*
X0073261Y0104240D01*
X0074307Y0104305D01*
X0075355Y0104343D01*
X0076403Y0104356D01*
X0077451Y0104343D01*
X0078499Y0104305D01*
X0079545Y0104240D01*
X0080590Y0104150D01*
X0081632Y0104035D01*
X0082671Y0103894D01*
X0083706Y0103727D01*
X0084737Y0103535D01*
X0085762Y0103318D01*
X0086782Y0103076D01*
X0087796Y0102809D01*
X0088803Y0102517D01*
X0089803Y0102200D01*
X0090794Y0101859D01*
X0091777Y0101494D01*
X0092750Y0101104D01*
X0093714Y0100691D01*
X0094667Y0100255D01*
X0095609Y0099795D01*
X0096540Y0099312D01*
X0097458Y0098807D01*
X0098364Y0098279D01*
X0099256Y0097729D01*
X0100135Y0097157D01*
X0101000Y0096564D01*
X0101849Y0095950D01*
X0102684Y0095315D01*
X0103502Y0094660D01*
X0104305Y0093985D01*
X0105090Y0093290D01*
X0105858Y0092577D01*
X0106608Y0091844D01*
X0107341Y0091094D01*
X0108054Y0090326D01*
X0108749Y0089541D01*
X0109424Y0088738D01*
X0110079Y0087920D01*
X0110714Y0087085D01*
X0111328Y0086236D01*
X0111921Y0085371D01*
X0112493Y0084492D01*
X0113043Y0083600D01*
X0113571Y0082694D01*
X0114076Y0081776D01*
X0114559Y0080845D01*
X0115019Y0079903D01*
X0115455Y0078950D01*
X0115868Y0077986D01*
X0116258Y0077013D01*
X0116623Y0076030D01*
X0116964Y0075039D01*
X0117281Y0074039D01*
X0117573Y0073032D01*
X0117840Y0072018D01*
X0118082Y0070998D01*
X0118299Y0069973D01*
X0118491Y0068942D01*
X0118658Y0067907D01*
X0118799Y0066868D01*
X0118914Y0065826D01*
X0119004Y0064781D01*
X0119069Y0063735D01*
X0119107Y0062687D01*
X0119120Y0061639D01*
X0119107Y0060591D01*
X0119069Y0059543D01*
X0119004Y0058497D01*
X0118914Y0057452D01*
X0118799Y0056410D01*
X0118658Y0055371D01*
X0118491Y0054336D01*
X0118299Y0053305D01*
X0118082Y0052280D01*
X0117840Y0051260D01*
X0117573Y0050246D01*
X0117281Y0049239D01*
X0116964Y0048239D01*
X0116623Y0047248D01*
X0116258Y0046265D01*
X0115868Y0045292D01*
X0115455Y0044328D01*
X0115019Y0043375D01*
X0114559Y0042433D01*
X0114076Y0041502D01*
X0113571Y0040584D01*
X0113043Y0039678D01*
X0112493Y0038786D01*
X0111921Y0037907D01*
X0111328Y0037042D01*
X0110714Y0036193D01*
X0110079Y0035358D01*
X0109424Y0034540D01*
X0108749Y0033737D01*
X0108054Y0032952D01*
X0107341Y0032184D01*
X0106608Y0031434D01*
X0105858Y0030701D01*
X0105090Y0029988D01*
X0104305Y0029293D01*
X0103502Y0028618D01*
X0102684Y0027963D01*
X0101849Y0027328D01*
X0101000Y0026714D01*
X0100135Y0026121D01*
X0099256Y0025549D01*
X0098364Y0024999D01*
X0097458Y0024471D01*
X0096540Y0023966D01*
X0095609Y0023483D01*
X0094667Y0023023D01*
X0093714Y0022587D01*
X0092750Y0022174D01*
X0091777Y0021784D01*
X0090794Y0021419D01*
X0089803Y0021078D01*
X0088803Y0020761D01*
X0087796Y0020469D01*
X0086782Y0020202D01*
X0085762Y0019960D01*
X0084737Y0019743D01*
X0083706Y0019551D01*
X0082671Y0019384D01*
X0081632Y0019243D01*
X0080590Y0019128D01*
X0079545Y0019038D01*
X0078499Y0018973D01*
X0077451Y0018935D01*
X0076403Y0018922D01*
X0075355Y0018935D01*
X0074307Y0018973D01*
X0073261Y0019038D01*
X0072216Y0019128D01*
X0071174Y0019243D01*
X0070135Y0019384D01*
X0069100Y0019551D01*
X0068069Y0019743D01*
X0067044Y0019960D01*
X0066024Y0020202D01*
X0065010Y0020469D01*
X0064003Y0020761D01*
X0063003Y0021078D01*
X0062012Y0021419D01*
X0061029Y0021784D01*
X0060056Y0022174D01*
X0059092Y0022587D01*
X0058139Y0023023D01*
X0057197Y0023483D01*
X0056266Y0023966D01*
X0055348Y0024471D01*
X0054442Y0024999D01*
X0053550Y0025549D01*
X0052671Y0026121D01*
X0051806Y0026714D01*
X0050957Y0027328D01*
X0050122Y0027963D01*
X0049304Y0028618D01*
X0048501Y0029293D01*
X0047716Y0029988D01*
X0046948Y0030701D01*
X0046198Y0031434D01*
X0045465Y0032184D01*
X0044752Y0032952D01*
X0044057Y0033737D01*
X0043382Y0034540D01*
X0042727Y0035358D01*
X0042092Y0036193D01*
X0041478Y0037042D01*
X0040885Y0037907D01*
X0040313Y0038786D01*
X0039763Y0039678D01*
X0039235Y0040584D01*
X0038730Y0041502D01*
X0038247Y0042433D01*
X0037787Y0043375D01*
X0037351Y0044328D01*
X0036938Y0045292D01*
X0036548Y0046265D01*
X0036183Y0047248D01*
X0035842Y0048239D01*
X0035525Y0049239D01*
X0035233Y0050246D01*
X0034966Y0051260D01*
X0034724Y0052280D01*
X0034507Y0053305D01*
X0034315Y0054336D01*
X0034148Y0055371D01*
X0034007Y0056410D01*
X0033892Y0057452D01*
X0033802Y0058497D01*
X0033737Y0059543D01*
X0033699Y0060591D01*
X0033686Y0061639D01*
X0030537Y0061639D02*
X0030551Y0062765D01*
X0030592Y0063890D01*
X0030661Y0065013D01*
X0030758Y0066135D01*
X0030882Y0067253D01*
X0031033Y0068369D01*
X0031212Y0069480D01*
X0031418Y0070587D01*
X0031651Y0071688D01*
X0031912Y0072784D01*
X0032198Y0073872D01*
X0032512Y0074953D01*
X0032852Y0076026D01*
X0033218Y0077091D01*
X0033610Y0078146D01*
X0034028Y0079191D01*
X0034472Y0080226D01*
X0034941Y0081249D01*
X0035434Y0082261D01*
X0035953Y0083260D01*
X0036496Y0084246D01*
X0037062Y0085219D01*
X0037653Y0086177D01*
X0038267Y0087121D01*
X0038904Y0088049D01*
X0039563Y0088961D01*
X0040245Y0089857D01*
X0040948Y0090736D01*
X0041673Y0091597D01*
X0042419Y0092441D01*
X0043185Y0093265D01*
X0043971Y0094071D01*
X0044777Y0094857D01*
X0045601Y0095623D01*
X0046445Y0096369D01*
X0047306Y0097094D01*
X0048185Y0097797D01*
X0049081Y0098479D01*
X0049993Y0099138D01*
X0050921Y0099775D01*
X0051865Y0100389D01*
X0052823Y0100980D01*
X0053796Y0101546D01*
X0054782Y0102089D01*
X0055781Y0102608D01*
X0056793Y0103101D01*
X0057816Y0103570D01*
X0058851Y0104014D01*
X0059896Y0104432D01*
X0060951Y0104824D01*
X0062016Y0105190D01*
X0063089Y0105530D01*
X0064170Y0105844D01*
X0065258Y0106130D01*
X0066354Y0106391D01*
X0067455Y0106624D01*
X0068562Y0106830D01*
X0069673Y0107009D01*
X0070789Y0107160D01*
X0071907Y0107284D01*
X0073029Y0107381D01*
X0074152Y0107450D01*
X0075277Y0107491D01*
X0076403Y0107505D01*
X0077529Y0107491D01*
X0078654Y0107450D01*
X0079777Y0107381D01*
X0080899Y0107284D01*
X0082017Y0107160D01*
X0083133Y0107009D01*
X0084244Y0106830D01*
X0085351Y0106624D01*
X0086452Y0106391D01*
X0087548Y0106130D01*
X0088636Y0105844D01*
X0089717Y0105530D01*
X0090790Y0105190D01*
X0091855Y0104824D01*
X0092910Y0104432D01*
X0093955Y0104014D01*
X0094990Y0103570D01*
X0096013Y0103101D01*
X0097025Y0102608D01*
X0098024Y0102089D01*
X0099010Y0101546D01*
X0099983Y0100980D01*
X0100941Y0100389D01*
X0101885Y0099775D01*
X0102813Y0099138D01*
X0103725Y0098479D01*
X0104621Y0097797D01*
X0105500Y0097094D01*
X0106361Y0096369D01*
X0107205Y0095623D01*
X0108029Y0094857D01*
X0108835Y0094071D01*
X0109621Y0093265D01*
X0110387Y0092441D01*
X0111133Y0091597D01*
X0111858Y0090736D01*
X0112561Y0089857D01*
X0113243Y0088961D01*
X0113902Y0088049D01*
X0114539Y0087121D01*
X0115153Y0086177D01*
X0115744Y0085219D01*
X0116310Y0084246D01*
X0116853Y0083260D01*
X0117372Y0082261D01*
X0117865Y0081249D01*
X0118334Y0080226D01*
X0118778Y0079191D01*
X0119196Y0078146D01*
X0119588Y0077091D01*
X0119954Y0076026D01*
X0120294Y0074953D01*
X0120608Y0073872D01*
X0120894Y0072784D01*
X0121155Y0071688D01*
X0121388Y0070587D01*
X0121594Y0069480D01*
X0121773Y0068369D01*
X0121924Y0067253D01*
X0122048Y0066135D01*
X0122145Y0065013D01*
X0122214Y0063890D01*
X0122255Y0062765D01*
X0122269Y0061639D01*
X0122255Y0060513D01*
X0122214Y0059388D01*
X0122145Y0058265D01*
X0122048Y0057143D01*
X0121924Y0056025D01*
X0121773Y0054909D01*
X0121594Y0053798D01*
X0121388Y0052691D01*
X0121155Y0051590D01*
X0120894Y0050494D01*
X0120608Y0049406D01*
X0120294Y0048325D01*
X0119954Y0047252D01*
X0119588Y0046187D01*
X0119196Y0045132D01*
X0118778Y0044087D01*
X0118334Y0043052D01*
X0117865Y0042029D01*
X0117372Y0041017D01*
X0116853Y0040018D01*
X0116310Y0039032D01*
X0115744Y0038059D01*
X0115153Y0037101D01*
X0114539Y0036157D01*
X0113902Y0035229D01*
X0113243Y0034317D01*
X0112561Y0033421D01*
X0111858Y0032542D01*
X0111133Y0031681D01*
X0110387Y0030837D01*
X0109621Y0030013D01*
X0108835Y0029207D01*
X0108029Y0028421D01*
X0107205Y0027655D01*
X0106361Y0026909D01*
X0105500Y0026184D01*
X0104621Y0025481D01*
X0103725Y0024799D01*
X0102813Y0024140D01*
X0101885Y0023503D01*
X0100941Y0022889D01*
X0099983Y0022298D01*
X0099010Y0021732D01*
X0098024Y0021189D01*
X0097025Y0020670D01*
X0096013Y0020177D01*
X0094990Y0019708D01*
X0093955Y0019264D01*
X0092910Y0018846D01*
X0091855Y0018454D01*
X0090790Y0018088D01*
X0089717Y0017748D01*
X0088636Y0017434D01*
X0087548Y0017148D01*
X0086452Y0016887D01*
X0085351Y0016654D01*
X0084244Y0016448D01*
X0083133Y0016269D01*
X0082017Y0016118D01*
X0080899Y0015994D01*
X0079777Y0015897D01*
X0078654Y0015828D01*
X0077529Y0015787D01*
X0076403Y0015773D01*
X0075277Y0015787D01*
X0074152Y0015828D01*
X0073029Y0015897D01*
X0071907Y0015994D01*
X0070789Y0016118D01*
X0069673Y0016269D01*
X0068562Y0016448D01*
X0067455Y0016654D01*
X0066354Y0016887D01*
X0065258Y0017148D01*
X0064170Y0017434D01*
X0063089Y0017748D01*
X0062016Y0018088D01*
X0060951Y0018454D01*
X0059896Y0018846D01*
X0058851Y0019264D01*
X0057816Y0019708D01*
X0056793Y0020177D01*
X0055781Y0020670D01*
X0054782Y0021189D01*
X0053796Y0021732D01*
X0052823Y0022298D01*
X0051865Y0022889D01*
X0050921Y0023503D01*
X0049993Y0024140D01*
X0049081Y0024799D01*
X0048185Y0025481D01*
X0047306Y0026184D01*
X0046445Y0026909D01*
X0045601Y0027655D01*
X0044777Y0028421D01*
X0043971Y0029207D01*
X0043185Y0030013D01*
X0042419Y0030837D01*
X0041673Y0031681D01*
X0040948Y0032542D01*
X0040245Y0033421D01*
X0039563Y0034317D01*
X0038904Y0035229D01*
X0038267Y0036157D01*
X0037653Y0037101D01*
X0037062Y0038059D01*
X0036496Y0039032D01*
X0035953Y0040018D01*
X0035434Y0041017D01*
X0034941Y0042029D01*
X0034472Y0043052D01*
X0034028Y0044087D01*
X0033610Y0045132D01*
X0033218Y0046187D01*
X0032852Y0047252D01*
X0032512Y0048325D01*
X0032198Y0049406D01*
X0031912Y0050494D01*
X0031651Y0051590D01*
X0031418Y0052691D01*
X0031212Y0053798D01*
X0031033Y0054909D01*
X0030882Y0056025D01*
X0030758Y0057143D01*
X0030661Y0058265D01*
X0030592Y0059388D01*
X0030551Y0060513D01*
X0030537Y0061639D01*
X0073903Y0104139D02*
X0073905Y0104041D01*
X0073911Y0103943D01*
X0073920Y0103845D01*
X0073934Y0103748D01*
X0073951Y0103651D01*
X0073972Y0103555D01*
X0073997Y0103460D01*
X0074025Y0103366D01*
X0074058Y0103274D01*
X0074093Y0103182D01*
X0074133Y0103092D01*
X0074175Y0103004D01*
X0074222Y0102917D01*
X0074271Y0102833D01*
X0074324Y0102750D01*
X0074380Y0102670D01*
X0074440Y0102591D01*
X0074502Y0102515D01*
X0074567Y0102442D01*
X0074635Y0102371D01*
X0074706Y0102303D01*
X0074779Y0102238D01*
X0074855Y0102176D01*
X0074934Y0102116D01*
X0075014Y0102060D01*
X0075097Y0102007D01*
X0075181Y0101958D01*
X0075268Y0101911D01*
X0075356Y0101869D01*
X0075446Y0101829D01*
X0075538Y0101794D01*
X0075630Y0101761D01*
X0075724Y0101733D01*
X0075819Y0101708D01*
X0075915Y0101687D01*
X0076012Y0101670D01*
X0076109Y0101656D01*
X0076207Y0101647D01*
X0076305Y0101641D01*
X0076403Y0101639D01*
X0076501Y0101641D01*
X0076599Y0101647D01*
X0076697Y0101656D01*
X0076794Y0101670D01*
X0076891Y0101687D01*
X0076987Y0101708D01*
X0077082Y0101733D01*
X0077176Y0101761D01*
X0077268Y0101794D01*
X0077360Y0101829D01*
X0077450Y0101869D01*
X0077538Y0101911D01*
X0077625Y0101958D01*
X0077709Y0102007D01*
X0077792Y0102060D01*
X0077872Y0102116D01*
X0077951Y0102176D01*
X0078027Y0102238D01*
X0078100Y0102303D01*
X0078171Y0102371D01*
X0078239Y0102442D01*
X0078304Y0102515D01*
X0078366Y0102591D01*
X0078426Y0102670D01*
X0078482Y0102750D01*
X0078535Y0102833D01*
X0078584Y0102917D01*
X0078631Y0103004D01*
X0078673Y0103092D01*
X0078713Y0103182D01*
X0078748Y0103274D01*
X0078781Y0103366D01*
X0078809Y0103460D01*
X0078834Y0103555D01*
X0078855Y0103651D01*
X0078872Y0103748D01*
X0078886Y0103845D01*
X0078895Y0103943D01*
X0078901Y0104041D01*
X0078903Y0104139D01*
X0102033Y0104120D02*
X0102033Y0131679D01*
X0141403Y0131679D01*
X0141403Y0104120D01*
X0102033Y0104120D01*
X0107939Y0110025D02*
X0107939Y0125773D01*
X0135498Y0125773D01*
X0135498Y0110025D01*
X0107939Y0110025D01*
X0096128Y0137584D02*
X0096128Y0141521D01*
X0096128Y0137584D02*
X0135498Y0137584D01*
X0135498Y0141521D01*
X0076443Y0141521D02*
X0001639Y0141521D01*
D13*
X0104002Y0129710D02*
X0104002Y0106088D01*
X0139435Y0106088D01*
X0139435Y0129710D01*
X0104002Y0129710D01*
D14*
X0110852Y0027191D03*
D15*
X0056718Y0081324D03*
D16*
X0058458Y0076262D02*
X0059075Y0076262D01*
X0060310Y0075028D01*
X0060310Y0076262D02*
X0060310Y0073793D01*
X0061531Y0073793D02*
X0062765Y0073793D01*
X0063003Y0073600D02*
X0062520Y0074084D01*
X0062520Y0076019D01*
X0063003Y0076503D01*
X0064455Y0076503D01*
X0064455Y0073600D01*
X0063003Y0073600D01*
X0062148Y0073793D02*
X0062148Y0076262D01*
X0062765Y0076262D01*
X0063979Y0075645D02*
X0063979Y0073793D01*
X0065831Y0073793D01*
X0066448Y0074410D01*
X0065831Y0075028D01*
X0063979Y0075028D01*
X0063979Y0075645D02*
X0064597Y0076262D01*
X0065831Y0076262D01*
X0065466Y0076503D02*
X0065466Y0073600D01*
X0067401Y0076503D01*
X0067401Y0073600D01*
X0068413Y0074084D02*
X0068413Y0075052D01*
X0069380Y0075052D01*
X0068413Y0076019D02*
X0068896Y0076503D01*
X0069864Y0076503D01*
X0070348Y0076019D01*
X0070348Y0074084D01*
X0069864Y0073600D01*
X0068896Y0073600D01*
X0068413Y0074084D01*
X0062148Y0077496D02*
X0062148Y0078114D01*
X0053557Y0076262D02*
X0052323Y0073793D01*
X0051088Y0076262D01*
X0049874Y0075645D02*
X0049257Y0076262D01*
X0048023Y0076262D01*
X0047405Y0075645D01*
X0047405Y0075028D01*
X0049874Y0075028D01*
X0049874Y0075645D02*
X0049874Y0074410D01*
X0049257Y0073793D01*
X0048023Y0073793D01*
X0046191Y0073793D02*
X0046191Y0076262D01*
X0044339Y0076262D01*
X0043722Y0075645D01*
X0043722Y0073793D01*
X0041891Y0074410D02*
X0041273Y0073793D01*
X0041891Y0074410D02*
X0041891Y0076879D01*
X0042508Y0076262D02*
X0041273Y0076262D01*
X0061529Y0048944D02*
X0061529Y0047009D01*
X0062497Y0046041D01*
X0063464Y0047009D01*
X0063464Y0048944D01*
X0064476Y0048944D02*
X0066411Y0048944D01*
X0066411Y0047493D01*
X0065443Y0047976D01*
X0064959Y0047976D01*
X0064476Y0047493D01*
X0064476Y0046525D01*
X0064959Y0046041D01*
X0065927Y0046041D01*
X0066411Y0046525D01*
X0074585Y0047184D02*
X0075068Y0046700D01*
X0077003Y0046700D01*
X0077487Y0047184D01*
X0077487Y0048151D01*
X0077003Y0048635D01*
X0076036Y0048635D02*
X0076036Y0047668D01*
X0076036Y0048635D02*
X0075068Y0048635D01*
X0074585Y0048151D01*
X0074585Y0047184D01*
X0074585Y0045703D02*
X0074585Y0044736D01*
X0074585Y0045220D02*
X0077487Y0045220D01*
X0077487Y0045703D02*
X0077487Y0044736D01*
X0077003Y0043724D02*
X0077487Y0043241D01*
X0077487Y0042273D01*
X0077003Y0041789D01*
X0076520Y0041789D01*
X0076036Y0042273D01*
X0076036Y0043241D01*
X0075552Y0043724D01*
X0075068Y0043724D01*
X0074585Y0043241D01*
X0074585Y0042273D01*
X0075068Y0041789D01*
X0087120Y0046041D02*
X0089055Y0048944D01*
X0090066Y0048460D02*
X0090066Y0047493D01*
X0090550Y0047009D01*
X0092001Y0047009D01*
X0091034Y0047009D02*
X0090066Y0046041D01*
X0089055Y0046041D02*
X0087120Y0048944D01*
X0090066Y0048460D02*
X0090550Y0048944D01*
X0092001Y0048944D01*
X0092001Y0046041D01*
X0091321Y0039072D02*
X0091321Y0037838D01*
X0091938Y0038455D02*
X0089470Y0038455D01*
X0088852Y0039072D01*
X0088852Y0036623D02*
X0090704Y0036623D01*
X0091321Y0036006D01*
X0091321Y0034155D01*
X0088852Y0034155D01*
X0090087Y0032940D02*
X0090087Y0030472D01*
X0089470Y0030472D02*
X0090704Y0030472D01*
X0091321Y0031089D01*
X0091321Y0032323D01*
X0090704Y0032940D01*
X0090087Y0032940D01*
X0088852Y0032323D02*
X0088852Y0031089D01*
X0089470Y0030472D01*
X0091321Y0029257D02*
X0088852Y0028023D01*
X0091321Y0026788D01*
X0091321Y0021888D02*
X0091321Y0021270D01*
X0090087Y0020036D01*
X0091321Y0020036D02*
X0088852Y0020036D01*
X0088852Y0018815D02*
X0088852Y0017581D01*
X0088852Y0018198D02*
X0091321Y0018198D01*
X0091321Y0017581D01*
X0090704Y0016366D02*
X0088852Y0016366D01*
X0088852Y0014515D01*
X0089470Y0013897D01*
X0090087Y0014515D01*
X0090087Y0016366D01*
X0090704Y0016366D02*
X0091321Y0015749D01*
X0091321Y0014515D01*
X0092556Y0018198D02*
X0093173Y0018198D01*
X0091034Y0073600D02*
X0091034Y0076503D01*
X0092001Y0076503D02*
X0090066Y0076503D01*
X0089055Y0076503D02*
X0087120Y0073600D01*
X0089055Y0073600D02*
X0087120Y0076503D01*
D17*
X0086728Y0076346D02*
X0090231Y0076346D01*
X0091398Y0077514D01*
X0091398Y0078682D01*
X0090231Y0079849D01*
X0087895Y0079849D01*
X0086728Y0078682D01*
X0086728Y0074011D01*
X0087895Y0072843D01*
X0090231Y0072843D01*
X0091398Y0074011D01*
X0093726Y0072843D02*
X0098396Y0072843D01*
X0100724Y0072843D02*
X0105394Y0072843D01*
X0105394Y0074011D01*
X0100724Y0078682D01*
X0100724Y0079849D01*
X0105394Y0079849D01*
X0107722Y0076346D02*
X0112392Y0076346D01*
X0114720Y0076346D02*
X0119390Y0076346D01*
X0119390Y0072843D02*
X0119390Y0079849D01*
X0121718Y0079849D02*
X0121718Y0072843D01*
X0126388Y0072843D02*
X0126388Y0079849D01*
X0124053Y0077514D01*
X0121718Y0079849D01*
X0114720Y0079849D02*
X0114720Y0072843D01*
X0098396Y0077514D02*
X0096061Y0079849D01*
X0096061Y0072843D01*
X0084400Y0072843D02*
X0080897Y0072843D01*
X0079730Y0074011D01*
X0079730Y0075179D01*
X0080897Y0076346D01*
X0084400Y0076346D01*
X0080897Y0076346D02*
X0079730Y0077514D01*
X0079730Y0078682D01*
X0080897Y0079849D01*
X0084400Y0079849D01*
X0084400Y0072843D01*
D18*
X0046875Y0061639D02*
X0046884Y0062364D01*
X0046911Y0063088D01*
X0046955Y0063811D01*
X0047017Y0064533D01*
X0047097Y0065254D01*
X0047195Y0065972D01*
X0047310Y0066687D01*
X0047442Y0067400D01*
X0047592Y0068109D01*
X0047760Y0068814D01*
X0047945Y0069514D01*
X0048146Y0070211D01*
X0048365Y0070901D01*
X0048601Y0071587D01*
X0048854Y0072266D01*
X0049123Y0072939D01*
X0049408Y0073605D01*
X0049710Y0074264D01*
X0050028Y0074915D01*
X0050362Y0075558D01*
X0050711Y0076193D01*
X0051076Y0076819D01*
X0051456Y0077436D01*
X0051851Y0078044D01*
X0052261Y0078641D01*
X0052686Y0079229D01*
X0053125Y0079806D01*
X0053578Y0080371D01*
X0054044Y0080926D01*
X0054524Y0081469D01*
X0055017Y0082000D01*
X0055524Y0082518D01*
X0056042Y0083025D01*
X0056573Y0083518D01*
X0057116Y0083998D01*
X0057671Y0084464D01*
X0058236Y0084917D01*
X0058813Y0085356D01*
X0059401Y0085781D01*
X0059998Y0086191D01*
X0060606Y0086586D01*
X0061223Y0086966D01*
X0061849Y0087331D01*
X0062484Y0087680D01*
X0063127Y0088014D01*
X0063778Y0088332D01*
X0064437Y0088634D01*
X0065103Y0088919D01*
X0065776Y0089188D01*
X0066455Y0089441D01*
X0067141Y0089677D01*
X0067831Y0089896D01*
X0068528Y0090097D01*
X0069228Y0090282D01*
X0069933Y0090450D01*
X0070642Y0090600D01*
X0071355Y0090732D01*
X0072070Y0090847D01*
X0072788Y0090945D01*
X0073509Y0091025D01*
X0074231Y0091087D01*
X0074954Y0091131D01*
X0075678Y0091158D01*
X0076403Y0091167D01*
X0077128Y0091158D01*
X0077852Y0091131D01*
X0078575Y0091087D01*
X0079297Y0091025D01*
X0080018Y0090945D01*
X0080736Y0090847D01*
X0081451Y0090732D01*
X0082164Y0090600D01*
X0082873Y0090450D01*
X0083578Y0090282D01*
X0084278Y0090097D01*
X0084975Y0089896D01*
X0085665Y0089677D01*
X0086351Y0089441D01*
X0087030Y0089188D01*
X0087703Y0088919D01*
X0088369Y0088634D01*
X0089028Y0088332D01*
X0089679Y0088014D01*
X0090322Y0087680D01*
X0090957Y0087331D01*
X0091583Y0086966D01*
X0092200Y0086586D01*
X0092808Y0086191D01*
X0093405Y0085781D01*
X0093993Y0085356D01*
X0094570Y0084917D01*
X0095135Y0084464D01*
X0095690Y0083998D01*
X0096233Y0083518D01*
X0096764Y0083025D01*
X0097282Y0082518D01*
X0097789Y0082000D01*
X0098282Y0081469D01*
X0098762Y0080926D01*
X0099228Y0080371D01*
X0099681Y0079806D01*
X0100120Y0079229D01*
X0100545Y0078641D01*
X0100955Y0078044D01*
X0101350Y0077436D01*
X0101730Y0076819D01*
X0102095Y0076193D01*
X0102444Y0075558D01*
X0102778Y0074915D01*
X0103096Y0074264D01*
X0103398Y0073605D01*
X0103683Y0072939D01*
X0103952Y0072266D01*
X0104205Y0071587D01*
X0104441Y0070901D01*
X0104660Y0070211D01*
X0104861Y0069514D01*
X0105046Y0068814D01*
X0105214Y0068109D01*
X0105364Y0067400D01*
X0105496Y0066687D01*
X0105611Y0065972D01*
X0105709Y0065254D01*
X0105789Y0064533D01*
X0105851Y0063811D01*
X0105895Y0063088D01*
X0105922Y0062364D01*
X0105931Y0061639D01*
X0105922Y0060914D01*
X0105895Y0060190D01*
X0105851Y0059467D01*
X0105789Y0058745D01*
X0105709Y0058024D01*
X0105611Y0057306D01*
X0105496Y0056591D01*
X0105364Y0055878D01*
X0105214Y0055169D01*
X0105046Y0054464D01*
X0104861Y0053764D01*
X0104660Y0053067D01*
X0104441Y0052377D01*
X0104205Y0051691D01*
X0103952Y0051012D01*
X0103683Y0050339D01*
X0103398Y0049673D01*
X0103096Y0049014D01*
X0102778Y0048363D01*
X0102444Y0047720D01*
X0102095Y0047085D01*
X0101730Y0046459D01*
X0101350Y0045842D01*
X0100955Y0045234D01*
X0100545Y0044637D01*
X0100120Y0044049D01*
X0099681Y0043472D01*
X0099228Y0042907D01*
X0098762Y0042352D01*
X0098282Y0041809D01*
X0097789Y0041278D01*
X0097282Y0040760D01*
X0096764Y0040253D01*
X0096233Y0039760D01*
X0095690Y0039280D01*
X0095135Y0038814D01*
X0094570Y0038361D01*
X0093993Y0037922D01*
X0093405Y0037497D01*
X0092808Y0037087D01*
X0092200Y0036692D01*
X0091583Y0036312D01*
X0090957Y0035947D01*
X0090322Y0035598D01*
X0089679Y0035264D01*
X0089028Y0034946D01*
X0088369Y0034644D01*
X0087703Y0034359D01*
X0087030Y0034090D01*
X0086351Y0033837D01*
X0085665Y0033601D01*
X0084975Y0033382D01*
X0084278Y0033181D01*
X0083578Y0032996D01*
X0082873Y0032828D01*
X0082164Y0032678D01*
X0081451Y0032546D01*
X0080736Y0032431D01*
X0080018Y0032333D01*
X0079297Y0032253D01*
X0078575Y0032191D01*
X0077852Y0032147D01*
X0077128Y0032120D01*
X0076403Y0032111D01*
X0075678Y0032120D01*
X0074954Y0032147D01*
X0074231Y0032191D01*
X0073509Y0032253D01*
X0072788Y0032333D01*
X0072070Y0032431D01*
X0071355Y0032546D01*
X0070642Y0032678D01*
X0069933Y0032828D01*
X0069228Y0032996D01*
X0068528Y0033181D01*
X0067831Y0033382D01*
X0067141Y0033601D01*
X0066455Y0033837D01*
X0065776Y0034090D01*
X0065103Y0034359D01*
X0064437Y0034644D01*
X0063778Y0034946D01*
X0063127Y0035264D01*
X0062484Y0035598D01*
X0061849Y0035947D01*
X0061223Y0036312D01*
X0060606Y0036692D01*
X0059998Y0037087D01*
X0059401Y0037497D01*
X0058813Y0037922D01*
X0058236Y0038361D01*
X0057671Y0038814D01*
X0057116Y0039280D01*
X0056573Y0039760D01*
X0056042Y0040253D01*
X0055524Y0040760D01*
X0055017Y0041278D01*
X0054524Y0041809D01*
X0054044Y0042352D01*
X0053578Y0042907D01*
X0053125Y0043472D01*
X0052686Y0044049D01*
X0052261Y0044637D01*
X0051851Y0045234D01*
X0051456Y0045842D01*
X0051076Y0046459D01*
X0050711Y0047085D01*
X0050362Y0047720D01*
X0050028Y0048363D01*
X0049710Y0049014D01*
X0049408Y0049673D01*
X0049123Y0050339D01*
X0048854Y0051012D01*
X0048601Y0051691D01*
X0048365Y0052377D01*
X0048146Y0053067D01*
X0047945Y0053764D01*
X0047760Y0054464D01*
X0047592Y0055169D01*
X0047442Y0055878D01*
X0047310Y0056591D01*
X0047195Y0057306D01*
X0047097Y0058024D01*
X0047017Y0058745D01*
X0046955Y0059467D01*
X0046911Y0060190D01*
X0046884Y0060914D01*
X0046875Y0061639D01*
M02*
