G75*
%MOIN*%
%OFA0B0*%
%FSLAX25Y25*%
%IPPOS*%
%LPD*%
%AMOC8*
5,1,8,0,0,1.08239X$1,22.5*
%
%ADD10C,0.06600*%
%ADD11R,0.02600X0.05906*%
%ADD12C,0.07000*%
%ADD13C,0.15024*%
%ADD14C,0.07400*%
%ADD15C,0.01600*%
%ADD16C,0.01200*%
%ADD17C,0.02387*%
D10*
X0031246Y0032771D03*
X0039002Y0025222D03*
X0031246Y0042771D03*
X0031246Y0052771D03*
X0031246Y0062771D03*
X0031246Y0072771D03*
X0031246Y0082771D03*
X0031246Y0092771D03*
X0031246Y0102771D03*
X0037033Y0111836D03*
X0121246Y0102771D03*
X0121246Y0092771D03*
X0121246Y0082771D03*
X0121246Y0072771D03*
X0121246Y0062771D03*
X0121246Y0052771D03*
X0121246Y0042771D03*
X0121246Y0032771D03*
X0113805Y0025222D03*
D11*
X0111561Y0110852D03*
X0116561Y0110852D03*
X0121561Y0110852D03*
X0126561Y0110852D03*
X0131561Y0110852D03*
X0131561Y0124927D03*
X0126561Y0124927D03*
X0121561Y0124927D03*
X0116561Y0124927D03*
X0111561Y0124927D03*
D12*
X0134474Y0064868D03*
X0134474Y0054907D03*
X0134474Y0044907D03*
X0134474Y0034868D03*
X0134435Y0024868D03*
X0018175Y0034868D03*
X0018175Y0044907D03*
X0018175Y0054868D03*
X0018135Y0064907D03*
D13*
X0050813Y0076403D03*
X0050813Y0046876D03*
X0076403Y0032112D03*
X0101994Y0046876D03*
X0101994Y0076403D03*
D14*
X0101403Y0009021D03*
X0091403Y0009021D03*
X0081403Y0009021D03*
X0071403Y0009021D03*
X0061403Y0009021D03*
X0051403Y0009021D03*
D15*
X0050813Y0015380D02*
X0050813Y0046876D01*
X0039986Y0053765D02*
X0031246Y0062506D01*
X0031246Y0062771D01*
X0025222Y0057820D02*
X0018135Y0064907D01*
X0025222Y0057820D02*
X0025222Y0023254D01*
X0033096Y0015380D01*
X0050813Y0015380D01*
X0058687Y0015380D01*
X0061403Y0012663D01*
X0061403Y0009021D01*
X0071403Y0009553D02*
X0061639Y0019317D01*
X0061639Y0109868D01*
X0061764Y0109743D01*
X0050813Y0098204D02*
X0043746Y0105271D01*
X0043746Y0120990D01*
X0054277Y0131521D01*
X0123647Y0131521D01*
X0123746Y0131521D01*
X0126561Y0128706D01*
X0126561Y0124927D01*
X0126561Y0120662D01*
X0126561Y0110852D01*
X0126561Y0107939D01*
X0129553Y0104946D01*
X0131561Y0110852D02*
X0131561Y0124927D01*
X0131561Y0128529D01*
X0125616Y0134474D01*
X0051856Y0134474D01*
X0051777Y0134553D01*
X0031246Y0114021D01*
X0031246Y0102771D01*
X0030921Y0102771D01*
X0031246Y0092771D02*
X0043746Y0105271D01*
X0050813Y0098204D02*
X0050813Y0076403D01*
X0098746Y0082328D02*
X0098746Y0115271D01*
X0108401Y0124927D01*
X0111561Y0124927D01*
X0116561Y0124927D02*
X0116561Y0120861D01*
X0113844Y0118144D01*
X0106618Y0118144D01*
X0102496Y0114021D01*
X0102496Y0095586D01*
X0105931Y0092151D01*
X0120626Y0092151D01*
X0121246Y0092771D01*
X0121246Y0092584D01*
X0140380Y0073450D01*
X0140380Y0060655D01*
X0134474Y0054750D01*
X0134474Y0054907D01*
X0127584Y0049828D02*
X0127584Y0076403D01*
X0121246Y0082742D01*
X0121246Y0082771D02*
X0105685Y0082771D01*
X0101994Y0079080D01*
X0098746Y0082328D01*
X0101994Y0079080D02*
X0101994Y0076403D01*
X0121246Y0102771D02*
X0121039Y0102978D01*
X0111561Y0110852D02*
X0110576Y0109868D01*
X0105931Y0109868D01*
X0127584Y0049828D02*
X0132013Y0045399D01*
X0127584Y0040970D01*
X0127584Y0019317D01*
X0117289Y0009021D01*
X0101403Y0009021D01*
X0081403Y0009021D02*
X0081403Y0010380D01*
X0076403Y0015380D01*
X0076403Y0031694D01*
X0076821Y0032112D01*
X0076403Y0032112D01*
X0076821Y0032112D02*
X0110586Y0032112D01*
X0121246Y0042771D01*
X0132506Y0044907D02*
X0134474Y0044907D01*
D16*
X0020529Y0007196D02*
X0019533Y0006200D01*
X0041954Y0006200D01*
X0041954Y0012380D01*
X0032499Y0012380D01*
X0031397Y0012836D01*
X0023523Y0020710D01*
X0022679Y0021554D01*
X0022222Y0022657D01*
X0022222Y0030854D01*
X0021404Y0030035D01*
X0019309Y0029168D01*
X0017041Y0029168D01*
X0014946Y0030035D01*
X0013343Y0031639D01*
X0012475Y0033734D01*
X0012475Y0036002D01*
X0013343Y0038097D01*
X0014946Y0039700D01*
X0015399Y0039887D01*
X0014946Y0040075D01*
X0013343Y0041678D01*
X0012475Y0043773D01*
X0012475Y0046041D01*
X0013343Y0048136D01*
X0014946Y0049739D01*
X0016082Y0050210D01*
X0015502Y0050506D01*
X0014852Y0050978D01*
X0014285Y0051545D01*
X0013813Y0052195D01*
X0013448Y0052910D01*
X0013200Y0053673D01*
X0013075Y0054466D01*
X0013075Y0054582D01*
X0017889Y0054582D01*
X0017889Y0055154D01*
X0013075Y0055154D01*
X0013075Y0055269D01*
X0013200Y0056062D01*
X0013448Y0056825D01*
X0013813Y0057541D01*
X0014285Y0058190D01*
X0014852Y0058758D01*
X0015502Y0059230D01*
X0016150Y0059560D01*
X0014907Y0060075D01*
X0013303Y0061678D01*
X0012435Y0063773D01*
X0012435Y0066041D01*
X0013303Y0068136D01*
X0014907Y0069739D01*
X0017002Y0070607D01*
X0019269Y0070607D01*
X0021364Y0069739D01*
X0022968Y0068136D01*
X0023835Y0066041D01*
X0023835Y0063773D01*
X0023741Y0063544D01*
X0025843Y0061442D01*
X0025746Y0061677D01*
X0025746Y0063865D01*
X0026583Y0065887D01*
X0028130Y0067434D01*
X0028945Y0067771D01*
X0028130Y0068109D01*
X0026583Y0069656D01*
X0025746Y0071677D01*
X0025746Y0073865D01*
X0026583Y0075887D01*
X0028130Y0077434D01*
X0028945Y0077771D01*
X0028130Y0078109D01*
X0026583Y0079656D01*
X0025746Y0081677D01*
X0025746Y0083865D01*
X0026583Y0085887D01*
X0028130Y0087434D01*
X0029750Y0088105D01*
X0029365Y0088230D01*
X0028677Y0088580D01*
X0028054Y0089034D01*
X0027508Y0089579D01*
X0027055Y0090203D01*
X0026705Y0090890D01*
X0026466Y0091624D01*
X0026348Y0092371D01*
X0030846Y0092371D01*
X0030846Y0093171D01*
X0026348Y0093171D01*
X0026466Y0093919D01*
X0026705Y0094652D01*
X0027055Y0095339D01*
X0027508Y0095963D01*
X0028054Y0096509D01*
X0028677Y0096962D01*
X0029365Y0097312D01*
X0029750Y0097438D01*
X0028130Y0098109D01*
X0026583Y0099656D01*
X0025746Y0101677D01*
X0025746Y0103865D01*
X0026583Y0105887D01*
X0028130Y0107434D01*
X0028246Y0107482D01*
X0028246Y0114618D01*
X0028702Y0115721D01*
X0029546Y0116565D01*
X0029546Y0116565D01*
X0049234Y0136252D01*
X0049234Y0136252D01*
X0049746Y0136764D01*
X0017895Y0136764D01*
X0018579Y0136080D01*
X0020028Y0132580D01*
X0020028Y0128793D01*
X0018579Y0125293D01*
X0015901Y0122615D01*
X0012401Y0121165D01*
X0008613Y0121165D01*
X0006200Y0122165D01*
X0006200Y0019797D01*
X0007064Y0020661D01*
X0010564Y0022111D01*
X0014351Y0022111D01*
X0017851Y0020661D01*
X0020529Y0017983D01*
X0021979Y0014483D01*
X0021979Y0010695D01*
X0020529Y0007196D01*
X0020599Y0007365D02*
X0041954Y0007365D01*
X0041954Y0008563D02*
X0021096Y0008563D01*
X0021592Y0009762D02*
X0041954Y0009762D01*
X0041954Y0010960D02*
X0021979Y0010960D01*
X0021979Y0012159D02*
X0041954Y0012159D01*
X0041954Y0018380D02*
X0041954Y0020492D01*
X0040096Y0019722D01*
X0037908Y0019722D01*
X0035886Y0020559D01*
X0034339Y0022107D01*
X0033502Y0024128D01*
X0033502Y0026316D01*
X0034220Y0028050D01*
X0032340Y0027271D01*
X0030152Y0027271D01*
X0028222Y0028071D01*
X0028222Y0024496D01*
X0034339Y0018380D01*
X0041954Y0018380D01*
X0041954Y0019350D02*
X0033368Y0019350D01*
X0032170Y0020549D02*
X0035912Y0020549D01*
X0034698Y0021747D02*
X0030971Y0021747D01*
X0029773Y0022946D02*
X0033991Y0022946D01*
X0033502Y0024144D02*
X0028574Y0024144D01*
X0028222Y0025343D02*
X0033502Y0025343D01*
X0033595Y0026541D02*
X0028222Y0026541D01*
X0028222Y0027740D02*
X0029021Y0027740D01*
X0033470Y0027740D02*
X0034091Y0027740D01*
X0036027Y0029943D02*
X0036746Y0031677D01*
X0036746Y0033865D01*
X0035908Y0035887D01*
X0034361Y0037434D01*
X0033547Y0037771D01*
X0034361Y0038109D01*
X0035908Y0039656D01*
X0036746Y0041677D01*
X0036746Y0043865D01*
X0035908Y0045887D01*
X0034361Y0047434D01*
X0033547Y0047771D01*
X0034361Y0048109D01*
X0035908Y0049656D01*
X0036746Y0051677D01*
X0036746Y0052720D01*
X0037109Y0051843D01*
X0038063Y0050888D01*
X0039311Y0050372D01*
X0040661Y0050372D01*
X0041908Y0050888D01*
X0042001Y0050981D01*
X0041101Y0048807D01*
X0041101Y0044944D01*
X0042579Y0041374D01*
X0045311Y0038642D01*
X0047813Y0037606D01*
X0047813Y0028175D01*
X0043732Y0028175D01*
X0043664Y0028338D01*
X0042117Y0029885D01*
X0040096Y0030722D01*
X0037908Y0030722D01*
X0036027Y0029943D01*
X0036108Y0030137D02*
X0036494Y0030137D01*
X0036604Y0031335D02*
X0047813Y0031335D01*
X0047813Y0030137D02*
X0041509Y0030137D01*
X0043064Y0028938D02*
X0047813Y0028938D01*
X0047813Y0032534D02*
X0036746Y0032534D01*
X0036746Y0033732D02*
X0047813Y0033732D01*
X0047813Y0034931D02*
X0036304Y0034931D01*
X0035666Y0036129D02*
X0047813Y0036129D01*
X0047813Y0037328D02*
X0034467Y0037328D01*
X0034779Y0038526D02*
X0045591Y0038526D01*
X0044229Y0039725D02*
X0035937Y0039725D01*
X0036433Y0040923D02*
X0043030Y0040923D01*
X0042270Y0042122D02*
X0036746Y0042122D01*
X0036746Y0043320D02*
X0041773Y0043320D01*
X0041277Y0044519D02*
X0036475Y0044519D01*
X0035979Y0045717D02*
X0041101Y0045717D01*
X0041101Y0046916D02*
X0034879Y0046916D01*
X0034367Y0048114D02*
X0041101Y0048114D01*
X0041310Y0049313D02*
X0035565Y0049313D01*
X0036263Y0050511D02*
X0038973Y0050511D01*
X0040998Y0050511D02*
X0041807Y0050511D01*
X0043380Y0053177D02*
X0043380Y0054440D01*
X0042863Y0055688D01*
X0041908Y0056642D01*
X0040958Y0057036D01*
X0036620Y0061374D01*
X0036746Y0061677D01*
X0036746Y0063865D01*
X0035908Y0065887D01*
X0034361Y0067434D01*
X0033547Y0067771D01*
X0034361Y0068109D01*
X0035908Y0069656D01*
X0036746Y0071677D01*
X0036746Y0073865D01*
X0035908Y0075887D01*
X0034361Y0077434D01*
X0033547Y0077771D01*
X0034361Y0078109D01*
X0035908Y0079656D01*
X0036746Y0081677D01*
X0036746Y0083865D01*
X0035908Y0085887D01*
X0034361Y0087434D01*
X0032741Y0088105D01*
X0033127Y0088230D01*
X0033814Y0088580D01*
X0034438Y0089034D01*
X0034983Y0089579D01*
X0035437Y0090203D01*
X0035787Y0090890D01*
X0036025Y0091624D01*
X0036143Y0092371D01*
X0031646Y0092371D01*
X0031646Y0093171D01*
X0036143Y0093171D01*
X0036025Y0093919D01*
X0035787Y0094652D01*
X0035437Y0095339D01*
X0034983Y0095963D01*
X0034438Y0096509D01*
X0033814Y0096962D01*
X0033127Y0097312D01*
X0032741Y0097438D01*
X0034361Y0098109D01*
X0035908Y0099656D01*
X0036746Y0101677D01*
X0036746Y0103865D01*
X0035908Y0105887D01*
X0035119Y0106676D01*
X0035939Y0106336D01*
X0038127Y0106336D01*
X0040149Y0107174D01*
X0041696Y0108721D01*
X0042533Y0110742D01*
X0042533Y0112930D01*
X0041696Y0114952D01*
X0040149Y0116499D01*
X0038605Y0117138D01*
X0052941Y0131474D01*
X0124373Y0131474D01*
X0126368Y0129480D01*
X0125050Y0129480D01*
X0124643Y0129370D01*
X0124540Y0129311D01*
X0123772Y0130080D01*
X0119349Y0130080D01*
X0119061Y0129791D01*
X0118772Y0130080D01*
X0114349Y0130080D01*
X0114061Y0129791D01*
X0113772Y0130080D01*
X0109349Y0130080D01*
X0108061Y0128791D01*
X0108061Y0127927D01*
X0107804Y0127927D01*
X0106702Y0127470D01*
X0096202Y0116971D01*
X0095746Y0115868D01*
X0095746Y0083890D01*
X0093760Y0081904D01*
X0092282Y0078335D01*
X0092282Y0074471D01*
X0093760Y0070902D01*
X0096492Y0068170D01*
X0100062Y0066691D01*
X0103925Y0066691D01*
X0107495Y0068170D01*
X0110227Y0070902D01*
X0111705Y0074471D01*
X0111705Y0078335D01*
X0111111Y0079771D01*
X0116535Y0079771D01*
X0116583Y0079656D01*
X0118130Y0078109D01*
X0118945Y0077771D01*
X0118130Y0077434D01*
X0116583Y0075887D01*
X0115746Y0073865D01*
X0115746Y0071677D01*
X0116583Y0069656D01*
X0118130Y0068109D01*
X0118945Y0067771D01*
X0118130Y0067434D01*
X0116583Y0065887D01*
X0115746Y0063865D01*
X0115746Y0061677D01*
X0116583Y0059656D01*
X0118130Y0058109D01*
X0118945Y0057771D01*
X0118130Y0057434D01*
X0116583Y0055887D01*
X0115746Y0053865D01*
X0115746Y0051677D01*
X0116583Y0049656D01*
X0118130Y0048109D01*
X0118945Y0047771D01*
X0118130Y0047434D01*
X0116583Y0045887D01*
X0115746Y0043865D01*
X0115746Y0041677D01*
X0115794Y0041562D01*
X0109344Y0035112D01*
X0085672Y0035112D01*
X0084636Y0037613D01*
X0081904Y0040345D01*
X0078335Y0041824D01*
X0074471Y0041824D01*
X0070902Y0040345D01*
X0068170Y0037613D01*
X0066691Y0034044D01*
X0066691Y0030180D01*
X0067522Y0028175D01*
X0064639Y0028175D01*
X0064639Y0108242D01*
X0065033Y0109193D01*
X0065033Y0110543D01*
X0064516Y0111790D01*
X0063562Y0112745D01*
X0062314Y0113261D01*
X0060964Y0113261D01*
X0059717Y0112745D01*
X0058762Y0111790D01*
X0058246Y0110543D01*
X0058246Y0109193D01*
X0058639Y0108242D01*
X0058639Y0081070D01*
X0058405Y0081476D01*
X0057678Y0082424D01*
X0056833Y0083268D01*
X0055886Y0083996D01*
X0054851Y0084593D01*
X0053748Y0085050D01*
X0052594Y0085359D01*
X0051413Y0085515D01*
X0051413Y0077003D01*
X0050213Y0077003D01*
X0050213Y0085515D01*
X0049031Y0085359D01*
X0047877Y0085050D01*
X0046774Y0084593D01*
X0045739Y0083996D01*
X0044792Y0083268D01*
X0043947Y0082424D01*
X0043220Y0081476D01*
X0042623Y0080442D01*
X0042166Y0079338D01*
X0041857Y0078185D01*
X0041701Y0077003D01*
X0050213Y0077003D01*
X0050213Y0075803D01*
X0051413Y0075803D01*
X0051413Y0067292D01*
X0052594Y0067447D01*
X0053748Y0067756D01*
X0054851Y0068213D01*
X0055886Y0068811D01*
X0056833Y0069538D01*
X0057678Y0070382D01*
X0058405Y0071330D01*
X0058639Y0071736D01*
X0058639Y0052783D01*
X0056314Y0055109D01*
X0052744Y0056587D01*
X0048881Y0056587D01*
X0045311Y0055109D01*
X0043380Y0053177D01*
X0043380Y0054107D02*
X0044309Y0054107D01*
X0043021Y0055305D02*
X0045786Y0055305D01*
X0048679Y0056504D02*
X0042047Y0056504D01*
X0040291Y0057702D02*
X0058639Y0057702D01*
X0058639Y0056504D02*
X0052946Y0056504D01*
X0055839Y0055305D02*
X0058639Y0055305D01*
X0058639Y0054107D02*
X0057316Y0054107D01*
X0058514Y0052908D02*
X0058639Y0052908D01*
X0064639Y0052908D02*
X0094292Y0052908D01*
X0093760Y0052377D02*
X0092282Y0048807D01*
X0092282Y0044944D01*
X0093760Y0041374D01*
X0096492Y0038642D01*
X0100062Y0037164D01*
X0103925Y0037164D01*
X0107495Y0038642D01*
X0110227Y0041374D01*
X0111705Y0044944D01*
X0111705Y0048807D01*
X0110227Y0052377D01*
X0107495Y0055109D01*
X0103925Y0056587D01*
X0100062Y0056587D01*
X0096492Y0055109D01*
X0093760Y0052377D01*
X0093484Y0051710D02*
X0064639Y0051710D01*
X0064639Y0050511D02*
X0092988Y0050511D01*
X0092491Y0049313D02*
X0064639Y0049313D01*
X0064639Y0048114D02*
X0092282Y0048114D01*
X0092282Y0046916D02*
X0064639Y0046916D01*
X0064639Y0045717D02*
X0092282Y0045717D01*
X0092458Y0044519D02*
X0064639Y0044519D01*
X0064639Y0043320D02*
X0092954Y0043320D01*
X0093451Y0042122D02*
X0064639Y0042122D01*
X0064639Y0040923D02*
X0072298Y0040923D01*
X0070282Y0039725D02*
X0064639Y0039725D01*
X0064639Y0038526D02*
X0069083Y0038526D01*
X0068052Y0037328D02*
X0064639Y0037328D01*
X0064639Y0036129D02*
X0067555Y0036129D01*
X0067059Y0034931D02*
X0064639Y0034931D01*
X0064639Y0033732D02*
X0066691Y0033732D01*
X0066691Y0032534D02*
X0064639Y0032534D01*
X0064639Y0031335D02*
X0066691Y0031335D01*
X0066709Y0030137D02*
X0064639Y0030137D01*
X0064639Y0028938D02*
X0067206Y0028938D01*
X0058639Y0028938D02*
X0053813Y0028938D01*
X0053813Y0028175D02*
X0058639Y0028175D01*
X0058639Y0040968D01*
X0056314Y0038642D01*
X0053813Y0037606D01*
X0053813Y0028175D01*
X0053813Y0030137D02*
X0058639Y0030137D01*
X0058639Y0031335D02*
X0053813Y0031335D01*
X0053813Y0032534D02*
X0058639Y0032534D01*
X0058639Y0033732D02*
X0053813Y0033732D01*
X0053813Y0034931D02*
X0058639Y0034931D01*
X0058639Y0036129D02*
X0053813Y0036129D01*
X0053813Y0037328D02*
X0058639Y0037328D01*
X0058639Y0038526D02*
X0056034Y0038526D01*
X0057396Y0039725D02*
X0058639Y0039725D01*
X0058595Y0040923D02*
X0058639Y0040923D01*
X0064639Y0054107D02*
X0095490Y0054107D01*
X0096967Y0055305D02*
X0064639Y0055305D01*
X0064639Y0056504D02*
X0099860Y0056504D01*
X0104127Y0056504D02*
X0117200Y0056504D01*
X0116342Y0055305D02*
X0107020Y0055305D01*
X0108497Y0054107D02*
X0115846Y0054107D01*
X0115746Y0052908D02*
X0109695Y0052908D01*
X0110503Y0051710D02*
X0115746Y0051710D01*
X0116229Y0050511D02*
X0111000Y0050511D01*
X0111496Y0049313D02*
X0116926Y0049313D01*
X0118124Y0048114D02*
X0111705Y0048114D01*
X0111705Y0046916D02*
X0117612Y0046916D01*
X0116513Y0045717D02*
X0111705Y0045717D01*
X0111529Y0044519D02*
X0116016Y0044519D01*
X0115746Y0043320D02*
X0111033Y0043320D01*
X0110537Y0042122D02*
X0115746Y0042122D01*
X0115155Y0040923D02*
X0109776Y0040923D01*
X0108577Y0039725D02*
X0113957Y0039725D01*
X0112758Y0038526D02*
X0107215Y0038526D01*
X0104321Y0037328D02*
X0111560Y0037328D01*
X0110361Y0036129D02*
X0085251Y0036129D01*
X0084755Y0037328D02*
X0099666Y0037328D01*
X0096773Y0038526D02*
X0083723Y0038526D01*
X0082525Y0039725D02*
X0095410Y0039725D01*
X0094211Y0040923D02*
X0080509Y0040923D01*
X0085672Y0029112D02*
X0085284Y0028175D01*
X0109075Y0028175D01*
X0109142Y0028338D01*
X0109916Y0029112D01*
X0085672Y0029112D01*
X0085601Y0028938D02*
X0109743Y0028938D01*
X0113439Y0030722D02*
X0115746Y0033029D01*
X0115746Y0031677D01*
X0116399Y0030101D01*
X0114899Y0030722D01*
X0113439Y0030722D01*
X0114052Y0031335D02*
X0115887Y0031335D01*
X0115746Y0032534D02*
X0115251Y0032534D01*
X0116312Y0030137D02*
X0116384Y0030137D01*
X0118652Y0027893D02*
X0120152Y0027271D01*
X0122340Y0027271D01*
X0124361Y0028109D01*
X0124584Y0028332D01*
X0124584Y0020559D01*
X0116046Y0012021D01*
X0111836Y0012021D01*
X0111836Y0020084D01*
X0112711Y0019722D01*
X0114899Y0019722D01*
X0116920Y0020559D01*
X0118467Y0022107D01*
X0119305Y0024128D01*
X0119305Y0026316D01*
X0118652Y0027893D01*
X0118715Y0027740D02*
X0119021Y0027740D01*
X0119211Y0026541D02*
X0124584Y0026541D01*
X0124584Y0025343D02*
X0119305Y0025343D01*
X0119305Y0024144D02*
X0124584Y0024144D01*
X0124584Y0022946D02*
X0118815Y0022946D01*
X0118108Y0021747D02*
X0124584Y0021747D01*
X0124574Y0020549D02*
X0116894Y0020549D01*
X0111836Y0019350D02*
X0123375Y0019350D01*
X0122177Y0018152D02*
X0111836Y0018152D01*
X0111836Y0016953D02*
X0120978Y0016953D01*
X0119780Y0015755D02*
X0111836Y0015755D01*
X0111836Y0014556D02*
X0118581Y0014556D01*
X0117383Y0013358D02*
X0111836Y0013358D01*
X0111836Y0012159D02*
X0116184Y0012159D01*
X0121074Y0008563D02*
X0131772Y0008563D01*
X0132269Y0007365D02*
X0119875Y0007365D01*
X0119832Y0007322D02*
X0129284Y0016773D01*
X0130128Y0017617D01*
X0130584Y0018720D01*
X0130584Y0020657D01*
X0131206Y0020035D01*
X0133301Y0019168D01*
X0133524Y0019168D01*
X0132339Y0017983D01*
X0130889Y0014483D01*
X0130889Y0010695D01*
X0132339Y0007196D01*
X0133335Y0006200D01*
X0118317Y0006200D01*
X0118988Y0006478D01*
X0119832Y0007322D01*
X0122272Y0009762D02*
X0131276Y0009762D01*
X0130889Y0010960D02*
X0123471Y0010960D01*
X0124669Y0012159D02*
X0130889Y0012159D01*
X0130889Y0013358D02*
X0125868Y0013358D01*
X0127066Y0014556D02*
X0130919Y0014556D01*
X0131416Y0015755D02*
X0128265Y0015755D01*
X0129463Y0016953D02*
X0131912Y0016953D01*
X0132507Y0018152D02*
X0130349Y0018152D01*
X0130584Y0019350D02*
X0132861Y0019350D01*
X0130693Y0020549D02*
X0130584Y0020549D01*
X0124584Y0027740D02*
X0123470Y0027740D01*
X0130584Y0029078D02*
X0130584Y0030696D01*
X0131245Y0030035D01*
X0131631Y0029876D01*
X0131206Y0029700D01*
X0130584Y0029078D01*
X0130584Y0030137D02*
X0131144Y0030137D01*
X0137278Y0029860D02*
X0137703Y0030035D01*
X0139306Y0031639D01*
X0140174Y0033734D01*
X0140174Y0036002D01*
X0139306Y0038097D01*
X0137703Y0039700D01*
X0137250Y0039887D01*
X0137703Y0040075D01*
X0139306Y0041678D01*
X0140174Y0043773D01*
X0140174Y0045234D01*
X0140426Y0044983D01*
X0141673Y0044466D01*
X0143023Y0044466D01*
X0144270Y0044983D01*
X0145225Y0045937D01*
X0145742Y0047185D01*
X0145742Y0047294D01*
X0146606Y0048158D01*
X0146606Y0019858D01*
X0145804Y0020661D01*
X0142304Y0022111D01*
X0139462Y0022111D01*
X0140135Y0023734D01*
X0140135Y0026002D01*
X0139267Y0028097D01*
X0137663Y0029700D01*
X0137278Y0029860D01*
X0137804Y0030137D02*
X0146606Y0030137D01*
X0146606Y0031335D02*
X0139002Y0031335D01*
X0139677Y0032534D02*
X0146606Y0032534D01*
X0146606Y0033732D02*
X0140173Y0033732D01*
X0140174Y0034931D02*
X0146606Y0034931D01*
X0146606Y0036129D02*
X0140121Y0036129D01*
X0139625Y0037328D02*
X0146606Y0037328D01*
X0146606Y0038526D02*
X0138877Y0038526D01*
X0137643Y0039725D02*
X0146606Y0039725D01*
X0146606Y0040923D02*
X0138551Y0040923D01*
X0139490Y0042122D02*
X0146606Y0042122D01*
X0146606Y0043320D02*
X0139986Y0043320D01*
X0140174Y0044519D02*
X0141546Y0044519D01*
X0143150Y0044519D02*
X0146606Y0044519D01*
X0146606Y0045717D02*
X0145005Y0045717D01*
X0145630Y0046916D02*
X0146606Y0046916D01*
X0146562Y0048114D02*
X0146606Y0048114D01*
X0146285Y0051797D02*
X0142348Y0047860D01*
X0139277Y0049313D02*
X0138129Y0049313D01*
X0137703Y0049739D02*
X0137298Y0049907D01*
X0137703Y0050075D01*
X0139306Y0051678D01*
X0140174Y0053773D01*
X0140174Y0055077D01*
X0140426Y0054825D01*
X0141673Y0054309D01*
X0143023Y0054309D01*
X0143485Y0054500D01*
X0143485Y0052957D01*
X0141782Y0051254D01*
X0141673Y0051254D01*
X0140426Y0050737D01*
X0139471Y0049782D01*
X0138954Y0048535D01*
X0138954Y0048488D01*
X0137703Y0049739D01*
X0138139Y0050511D02*
X0140200Y0050511D01*
X0139319Y0051710D02*
X0142238Y0051710D01*
X0143437Y0052908D02*
X0139816Y0052908D01*
X0140174Y0054107D02*
X0143485Y0054107D01*
X0146285Y0051797D02*
X0146285Y0081324D01*
X0141364Y0086246D01*
X0141364Y0101994D01*
X0141364Y0130537D01*
X0138411Y0133490D01*
X0134474Y0133490D01*
X0134159Y0130096D02*
X0135149Y0130096D01*
X0136396Y0130613D01*
X0136473Y0130690D01*
X0137251Y0130690D01*
X0138564Y0129377D01*
X0138564Y0103993D01*
X0138487Y0103916D01*
X0137970Y0102669D01*
X0137970Y0101319D01*
X0138487Y0100071D01*
X0138564Y0099994D01*
X0138564Y0089068D01*
X0126514Y0101118D01*
X0126746Y0101677D01*
X0126746Y0103865D01*
X0125908Y0105887D01*
X0125496Y0106299D01*
X0126511Y0106299D01*
X0126511Y0110802D01*
X0126611Y0110802D01*
X0126611Y0106299D01*
X0128071Y0106299D01*
X0128478Y0106408D01*
X0128581Y0106468D01*
X0129349Y0105699D01*
X0133772Y0105699D01*
X0135061Y0106988D01*
X0135061Y0114716D01*
X0134561Y0115216D01*
X0134561Y0120563D01*
X0135061Y0121063D01*
X0135061Y0128791D01*
X0134444Y0129407D01*
X0134159Y0130096D01*
X0134359Y0129613D02*
X0138328Y0129613D01*
X0138564Y0128415D02*
X0135061Y0128415D01*
X0135061Y0127216D02*
X0138564Y0127216D01*
X0138564Y0126018D02*
X0135061Y0126018D01*
X0135061Y0124819D02*
X0138564Y0124819D01*
X0138564Y0123621D02*
X0135061Y0123621D01*
X0135061Y0122422D02*
X0138564Y0122422D01*
X0138564Y0121224D02*
X0135061Y0121224D01*
X0134561Y0120025D02*
X0138564Y0120025D01*
X0138564Y0118827D02*
X0134561Y0118827D01*
X0134561Y0117628D02*
X0138564Y0117628D01*
X0138564Y0116429D02*
X0134561Y0116429D01*
X0134561Y0115231D02*
X0138564Y0115231D01*
X0138564Y0114032D02*
X0135061Y0114032D01*
X0135061Y0112834D02*
X0138564Y0112834D01*
X0138564Y0111635D02*
X0135061Y0111635D01*
X0135061Y0110437D02*
X0138564Y0110437D01*
X0138564Y0109238D02*
X0135061Y0109238D01*
X0135061Y0108040D02*
X0138564Y0108040D01*
X0138564Y0106841D02*
X0134914Y0106841D01*
X0138564Y0105643D02*
X0126009Y0105643D01*
X0126506Y0104444D02*
X0138564Y0104444D01*
X0138209Y0103246D02*
X0126746Y0103246D01*
X0126746Y0102047D02*
X0137970Y0102047D01*
X0138165Y0100849D02*
X0126783Y0100849D01*
X0127982Y0099650D02*
X0138564Y0099650D01*
X0138564Y0098452D02*
X0129180Y0098452D01*
X0130379Y0097253D02*
X0138564Y0097253D01*
X0138564Y0096055D02*
X0131577Y0096055D01*
X0132776Y0094856D02*
X0138564Y0094856D01*
X0138564Y0093658D02*
X0133974Y0093658D01*
X0135173Y0092459D02*
X0138564Y0092459D01*
X0138564Y0091261D02*
X0136371Y0091261D01*
X0137570Y0090062D02*
X0138564Y0090062D01*
X0133246Y0086467D02*
X0131606Y0086467D01*
X0132047Y0087665D02*
X0130407Y0087665D01*
X0130849Y0088864D02*
X0129209Y0088864D01*
X0129650Y0090062D02*
X0128010Y0090062D01*
X0128452Y0091261D02*
X0126812Y0091261D01*
X0126643Y0091430D02*
X0126746Y0091677D01*
X0126746Y0092967D01*
X0140532Y0079180D01*
X0140532Y0077540D01*
X0126643Y0091430D01*
X0126746Y0092459D02*
X0127253Y0092459D01*
X0132804Y0085268D02*
X0134444Y0085268D01*
X0134003Y0084070D02*
X0135643Y0084070D01*
X0135201Y0082871D02*
X0136841Y0082871D01*
X0136400Y0081673D02*
X0138040Y0081673D01*
X0137598Y0080474D02*
X0139239Y0080474D01*
X0138797Y0079276D02*
X0140437Y0079276D01*
X0140532Y0078077D02*
X0139995Y0078077D01*
X0143332Y0080340D02*
X0143332Y0058687D01*
X0142348Y0057702D01*
X0149238Y0067545D02*
X0149238Y0082309D01*
X0148254Y0083293D01*
X0148254Y0104946D01*
X0145313Y0107887D01*
X0145313Y0134486D01*
X0142791Y0136764D02*
X0142435Y0136408D01*
X0141919Y0135161D01*
X0141919Y0133942D01*
X0139997Y0135863D01*
X0138968Y0136290D01*
X0136473Y0136290D01*
X0136396Y0136367D01*
X0135438Y0136764D01*
X0142791Y0136764D01*
X0142103Y0135606D02*
X0140255Y0135606D01*
X0141453Y0134407D02*
X0141919Y0134407D01*
X0133510Y0136764D02*
X0132552Y0136367D01*
X0131597Y0135412D01*
X0131080Y0134165D01*
X0131080Y0133252D01*
X0128159Y0136173D01*
X0127569Y0136764D01*
X0133510Y0136764D01*
X0131791Y0135606D02*
X0128727Y0135606D01*
X0129925Y0134407D02*
X0131181Y0134407D01*
X0125035Y0130812D02*
X0052279Y0130812D01*
X0051080Y0129613D02*
X0108883Y0129613D01*
X0108061Y0128415D02*
X0049882Y0128415D01*
X0048683Y0127216D02*
X0106448Y0127216D01*
X0105249Y0126018D02*
X0047485Y0126018D01*
X0046286Y0124819D02*
X0104051Y0124819D01*
X0102852Y0123621D02*
X0045088Y0123621D01*
X0043889Y0122422D02*
X0101654Y0122422D01*
X0100455Y0121224D02*
X0042691Y0121224D01*
X0041492Y0120025D02*
X0099257Y0120025D01*
X0098058Y0118827D02*
X0040294Y0118827D01*
X0039095Y0117628D02*
X0096860Y0117628D01*
X0095978Y0116429D02*
X0040218Y0116429D01*
X0041416Y0115231D02*
X0095746Y0115231D01*
X0095746Y0114032D02*
X0042077Y0114032D01*
X0042533Y0112834D02*
X0059932Y0112834D01*
X0058698Y0111635D02*
X0042533Y0111635D01*
X0042407Y0110437D02*
X0058246Y0110437D01*
X0058246Y0109238D02*
X0041910Y0109238D01*
X0041015Y0108040D02*
X0058639Y0108040D01*
X0058639Y0106841D02*
X0039347Y0106841D01*
X0036009Y0105643D02*
X0058639Y0105643D01*
X0058639Y0104444D02*
X0036506Y0104444D01*
X0036746Y0103246D02*
X0058639Y0103246D01*
X0058639Y0102047D02*
X0036746Y0102047D01*
X0036403Y0100849D02*
X0058639Y0100849D01*
X0058639Y0099650D02*
X0035903Y0099650D01*
X0034704Y0098452D02*
X0058639Y0098452D01*
X0058639Y0097253D02*
X0033242Y0097253D01*
X0034892Y0096055D02*
X0058639Y0096055D01*
X0058639Y0094856D02*
X0035683Y0094856D01*
X0036066Y0093658D02*
X0058639Y0093658D01*
X0058639Y0092459D02*
X0031646Y0092459D01*
X0030846Y0092459D02*
X0006200Y0092459D01*
X0006200Y0091261D02*
X0026584Y0091261D01*
X0027157Y0090062D02*
X0006200Y0090062D01*
X0006200Y0088864D02*
X0028288Y0088864D01*
X0028689Y0087665D02*
X0006200Y0087665D01*
X0006200Y0086467D02*
X0027163Y0086467D01*
X0026327Y0085268D02*
X0006200Y0085268D01*
X0006200Y0084070D02*
X0025830Y0084070D01*
X0025746Y0082871D02*
X0006200Y0082871D01*
X0006200Y0081673D02*
X0025748Y0081673D01*
X0026244Y0080474D02*
X0006200Y0080474D01*
X0006200Y0079276D02*
X0026963Y0079276D01*
X0028206Y0078077D02*
X0006200Y0078077D01*
X0006200Y0076879D02*
X0027575Y0076879D01*
X0026497Y0075680D02*
X0006200Y0075680D01*
X0006200Y0074482D02*
X0026001Y0074482D01*
X0025746Y0073283D02*
X0006200Y0073283D01*
X0006200Y0072085D02*
X0025746Y0072085D01*
X0026073Y0070886D02*
X0006200Y0070886D01*
X0006200Y0069688D02*
X0014855Y0069688D01*
X0013656Y0068489D02*
X0006200Y0068489D01*
X0006200Y0067291D02*
X0012953Y0067291D01*
X0012457Y0066092D02*
X0006200Y0066092D01*
X0006200Y0064893D02*
X0012435Y0064893D01*
X0012468Y0063695D02*
X0006200Y0063695D01*
X0006200Y0062496D02*
X0012964Y0062496D01*
X0013684Y0061298D02*
X0006200Y0061298D01*
X0006200Y0060099D02*
X0014882Y0060099D01*
X0015049Y0058901D02*
X0006200Y0058901D01*
X0006200Y0057702D02*
X0013930Y0057702D01*
X0013344Y0056504D02*
X0006200Y0056504D01*
X0006200Y0055305D02*
X0013081Y0055305D01*
X0013132Y0054107D02*
X0006200Y0054107D01*
X0006200Y0052908D02*
X0013449Y0052908D01*
X0014165Y0051710D02*
X0006200Y0051710D01*
X0006200Y0050511D02*
X0015494Y0050511D01*
X0014520Y0049313D02*
X0006200Y0049313D01*
X0006200Y0048114D02*
X0013334Y0048114D01*
X0012837Y0046916D02*
X0006200Y0046916D01*
X0006200Y0045717D02*
X0012475Y0045717D01*
X0012475Y0044519D02*
X0006200Y0044519D01*
X0006200Y0043320D02*
X0012662Y0043320D01*
X0013159Y0042122D02*
X0006200Y0042122D01*
X0006200Y0040923D02*
X0014098Y0040923D01*
X0015006Y0039725D02*
X0006200Y0039725D01*
X0006200Y0038526D02*
X0013772Y0038526D01*
X0013024Y0037328D02*
X0006200Y0037328D01*
X0006200Y0036129D02*
X0012528Y0036129D01*
X0012475Y0034931D02*
X0006200Y0034931D01*
X0006200Y0033732D02*
X0012476Y0033732D01*
X0012972Y0032534D02*
X0006200Y0032534D01*
X0006200Y0031335D02*
X0013646Y0031335D01*
X0014845Y0030137D02*
X0006200Y0030137D01*
X0006200Y0028938D02*
X0022222Y0028938D01*
X0022222Y0027740D02*
X0006200Y0027740D01*
X0006200Y0026541D02*
X0022222Y0026541D01*
X0022222Y0025343D02*
X0006200Y0025343D01*
X0006200Y0024144D02*
X0022222Y0024144D01*
X0022222Y0022946D02*
X0006200Y0022946D01*
X0006200Y0021747D02*
X0009686Y0021747D01*
X0006952Y0020549D02*
X0006200Y0020549D01*
X0015229Y0021747D02*
X0022599Y0021747D01*
X0023684Y0020549D02*
X0017963Y0020549D01*
X0019162Y0019350D02*
X0024883Y0019350D01*
X0026081Y0018152D02*
X0020360Y0018152D01*
X0020956Y0016953D02*
X0027280Y0016953D01*
X0028478Y0015755D02*
X0021452Y0015755D01*
X0021949Y0014556D02*
X0029677Y0014556D01*
X0030875Y0013358D02*
X0021979Y0013358D01*
X0022222Y0030137D02*
X0021505Y0030137D01*
X0028222Y0037472D02*
X0028222Y0038071D01*
X0028945Y0037771D01*
X0028222Y0037472D01*
X0022222Y0038881D02*
X0021404Y0039700D01*
X0020951Y0039887D01*
X0021404Y0040075D01*
X0022222Y0040893D01*
X0022222Y0038881D01*
X0022222Y0039725D02*
X0021344Y0039725D01*
X0028222Y0047472D02*
X0028222Y0048071D01*
X0028945Y0047771D01*
X0028222Y0047472D01*
X0022222Y0048921D02*
X0022222Y0051762D01*
X0022065Y0051545D01*
X0021497Y0050978D01*
X0020848Y0050506D01*
X0020267Y0050210D01*
X0021404Y0049739D01*
X0022222Y0048921D01*
X0022222Y0049313D02*
X0021830Y0049313D01*
X0022222Y0050511D02*
X0020855Y0050511D01*
X0022184Y0051710D02*
X0022222Y0051710D01*
X0028222Y0057472D02*
X0028222Y0058071D01*
X0028945Y0057771D01*
X0028222Y0057472D01*
X0028222Y0057702D02*
X0028778Y0057702D01*
X0025746Y0062496D02*
X0024789Y0062496D01*
X0025746Y0063695D02*
X0023803Y0063695D01*
X0023835Y0064893D02*
X0026172Y0064893D01*
X0026788Y0066092D02*
X0023814Y0066092D01*
X0023318Y0067291D02*
X0027987Y0067291D01*
X0027750Y0068489D02*
X0022615Y0068489D01*
X0021416Y0069688D02*
X0026570Y0069688D01*
X0034742Y0068489D02*
X0046297Y0068489D01*
X0046774Y0068213D02*
X0047877Y0067756D01*
X0049031Y0067447D01*
X0050213Y0067292D01*
X0050213Y0075803D01*
X0041701Y0075803D01*
X0041857Y0074622D01*
X0042166Y0073468D01*
X0042623Y0072364D01*
X0043220Y0071330D01*
X0043947Y0070382D01*
X0044792Y0069538D01*
X0045739Y0068811D01*
X0046774Y0068213D01*
X0044642Y0069688D02*
X0035921Y0069688D01*
X0036418Y0070886D02*
X0043561Y0070886D01*
X0042785Y0072085D02*
X0036746Y0072085D01*
X0036746Y0073283D02*
X0042242Y0073283D01*
X0041894Y0074482D02*
X0036490Y0074482D01*
X0035994Y0075680D02*
X0041717Y0075680D01*
X0041843Y0078077D02*
X0034285Y0078077D01*
X0034916Y0076879D02*
X0050213Y0076879D01*
X0050213Y0078077D02*
X0051413Y0078077D01*
X0051413Y0079276D02*
X0050213Y0079276D01*
X0050213Y0080474D02*
X0051413Y0080474D01*
X0051413Y0081673D02*
X0050213Y0081673D01*
X0050213Y0082871D02*
X0051413Y0082871D01*
X0051413Y0084070D02*
X0050213Y0084070D01*
X0050213Y0085268D02*
X0051413Y0085268D01*
X0052933Y0085268D02*
X0058639Y0085268D01*
X0058639Y0084070D02*
X0055757Y0084070D01*
X0057231Y0082871D02*
X0058639Y0082871D01*
X0058639Y0081673D02*
X0058254Y0081673D01*
X0058639Y0086467D02*
X0035328Y0086467D01*
X0036165Y0085268D02*
X0048692Y0085268D01*
X0045868Y0084070D02*
X0036661Y0084070D01*
X0036746Y0082871D02*
X0044395Y0082871D01*
X0043371Y0081673D02*
X0036744Y0081673D01*
X0036247Y0080474D02*
X0042642Y0080474D01*
X0042149Y0079276D02*
X0035528Y0079276D01*
X0033803Y0087665D02*
X0058639Y0087665D01*
X0058639Y0088864D02*
X0034204Y0088864D01*
X0035334Y0090062D02*
X0058639Y0090062D01*
X0058639Y0091261D02*
X0035907Y0091261D01*
X0029249Y0097253D02*
X0006200Y0097253D01*
X0006200Y0096055D02*
X0027600Y0096055D01*
X0026809Y0094856D02*
X0006200Y0094856D01*
X0006200Y0093658D02*
X0026425Y0093658D01*
X0027787Y0098452D02*
X0006200Y0098452D01*
X0006200Y0099650D02*
X0026588Y0099650D01*
X0026089Y0100849D02*
X0006200Y0100849D01*
X0006200Y0102047D02*
X0025746Y0102047D01*
X0025746Y0103246D02*
X0006200Y0103246D01*
X0006200Y0104444D02*
X0025986Y0104444D01*
X0026482Y0105643D02*
X0006200Y0105643D01*
X0006200Y0106841D02*
X0027538Y0106841D01*
X0028246Y0108040D02*
X0006200Y0108040D01*
X0006200Y0109238D02*
X0028246Y0109238D01*
X0028246Y0110437D02*
X0006200Y0110437D01*
X0006200Y0111635D02*
X0028246Y0111635D01*
X0028246Y0112834D02*
X0006200Y0112834D01*
X0006200Y0114032D02*
X0028246Y0114032D01*
X0028500Y0115231D02*
X0006200Y0115231D01*
X0006200Y0116429D02*
X0029411Y0116429D01*
X0030610Y0117628D02*
X0006200Y0117628D01*
X0006200Y0118827D02*
X0031808Y0118827D01*
X0033007Y0120025D02*
X0006200Y0120025D01*
X0006200Y0121224D02*
X0008472Y0121224D01*
X0012542Y0121224D02*
X0034205Y0121224D01*
X0035404Y0122422D02*
X0015435Y0122422D01*
X0016906Y0123621D02*
X0036602Y0123621D01*
X0037801Y0124819D02*
X0018105Y0124819D01*
X0018879Y0126018D02*
X0038999Y0126018D01*
X0040198Y0127216D02*
X0019375Y0127216D01*
X0019872Y0128415D02*
X0041396Y0128415D01*
X0042595Y0129613D02*
X0020028Y0129613D01*
X0020028Y0130812D02*
X0043793Y0130812D01*
X0044992Y0132010D02*
X0020028Y0132010D01*
X0019768Y0133209D02*
X0046190Y0133209D01*
X0047389Y0134407D02*
X0019272Y0134407D01*
X0018775Y0135606D02*
X0048587Y0135606D01*
X0063346Y0112834D02*
X0095746Y0112834D01*
X0095746Y0111635D02*
X0064580Y0111635D01*
X0065033Y0110437D02*
X0095746Y0110437D01*
X0095746Y0109238D02*
X0065033Y0109238D01*
X0064639Y0108040D02*
X0095746Y0108040D01*
X0095746Y0106841D02*
X0064639Y0106841D01*
X0064639Y0105643D02*
X0095746Y0105643D01*
X0095746Y0104444D02*
X0064639Y0104444D01*
X0064639Y0103246D02*
X0095746Y0103246D01*
X0095746Y0102047D02*
X0064639Y0102047D01*
X0064639Y0100849D02*
X0095746Y0100849D01*
X0095746Y0099650D02*
X0064639Y0099650D01*
X0064639Y0098452D02*
X0095746Y0098452D01*
X0095746Y0097253D02*
X0064639Y0097253D01*
X0064639Y0096055D02*
X0095746Y0096055D01*
X0095746Y0094856D02*
X0064639Y0094856D01*
X0064639Y0093658D02*
X0095746Y0093658D01*
X0095746Y0092459D02*
X0064639Y0092459D01*
X0064639Y0091261D02*
X0095746Y0091261D01*
X0095746Y0090062D02*
X0064639Y0090062D01*
X0064639Y0088864D02*
X0095746Y0088864D01*
X0095746Y0087665D02*
X0064639Y0087665D01*
X0064639Y0086467D02*
X0095746Y0086467D01*
X0095746Y0085268D02*
X0064639Y0085268D01*
X0064639Y0084070D02*
X0095746Y0084070D01*
X0094727Y0082871D02*
X0064639Y0082871D01*
X0064639Y0081673D02*
X0093664Y0081673D01*
X0093168Y0080474D02*
X0064639Y0080474D01*
X0064639Y0079276D02*
X0092672Y0079276D01*
X0092282Y0078077D02*
X0064639Y0078077D01*
X0064639Y0076879D02*
X0092282Y0076879D01*
X0092282Y0075680D02*
X0064639Y0075680D01*
X0064639Y0074482D02*
X0092282Y0074482D01*
X0092774Y0073283D02*
X0064639Y0073283D01*
X0064639Y0072085D02*
X0093271Y0072085D01*
X0093776Y0070886D02*
X0064639Y0070886D01*
X0064639Y0069688D02*
X0094975Y0069688D01*
X0096173Y0068489D02*
X0064639Y0068489D01*
X0064639Y0067291D02*
X0098615Y0067291D01*
X0105372Y0067291D02*
X0117987Y0067291D01*
X0117750Y0068489D02*
X0107814Y0068489D01*
X0109013Y0069688D02*
X0116570Y0069688D01*
X0116073Y0070886D02*
X0110211Y0070886D01*
X0110717Y0072085D02*
X0115746Y0072085D01*
X0115746Y0073283D02*
X0111213Y0073283D01*
X0111705Y0074482D02*
X0116001Y0074482D01*
X0116497Y0075680D02*
X0111705Y0075680D01*
X0111705Y0076879D02*
X0117575Y0076879D01*
X0118206Y0078077D02*
X0111705Y0078077D01*
X0111316Y0079276D02*
X0116963Y0079276D01*
X0121246Y0082742D02*
X0121246Y0082771D01*
X0117163Y0086467D02*
X0101746Y0086467D01*
X0101746Y0086115D02*
X0101746Y0092094D01*
X0103387Y0090452D01*
X0104231Y0089608D01*
X0105334Y0089151D01*
X0117088Y0089151D01*
X0118130Y0088109D01*
X0118945Y0087771D01*
X0118130Y0087434D01*
X0116583Y0085887D01*
X0116535Y0085771D01*
X0105088Y0085771D01*
X0104922Y0085702D01*
X0103925Y0086115D01*
X0101746Y0086115D01*
X0101746Y0087665D02*
X0118689Y0087665D01*
X0117375Y0088864D02*
X0101746Y0088864D01*
X0101746Y0090062D02*
X0103777Y0090062D01*
X0102578Y0091261D02*
X0101746Y0091261D01*
X0107173Y0095151D02*
X0105496Y0096829D01*
X0105496Y0106474D01*
X0106606Y0106474D01*
X0107556Y0106868D01*
X0108181Y0106868D01*
X0109349Y0105699D01*
X0113772Y0105699D01*
X0114061Y0105988D01*
X0114349Y0105699D01*
X0116505Y0105699D01*
X0115746Y0103865D01*
X0115746Y0101677D01*
X0116583Y0099656D01*
X0118130Y0098109D01*
X0118945Y0097771D01*
X0118130Y0097434D01*
X0116583Y0095887D01*
X0116278Y0095151D01*
X0107173Y0095151D01*
X0106270Y0096055D02*
X0116751Y0096055D01*
X0117950Y0097253D02*
X0105496Y0097253D01*
X0105496Y0098452D02*
X0117787Y0098452D01*
X0116588Y0099650D02*
X0105496Y0099650D01*
X0105496Y0100849D02*
X0116089Y0100849D01*
X0115746Y0102047D02*
X0105496Y0102047D01*
X0105496Y0103246D02*
X0115746Y0103246D01*
X0115986Y0104444D02*
X0105496Y0104444D01*
X0105496Y0105643D02*
X0116482Y0105643D01*
X0121246Y0102771D02*
X0121246Y0102427D01*
X0143332Y0080340D01*
X0145454Y0086116D02*
X0144164Y0087405D01*
X0144164Y0099994D01*
X0144241Y0100071D01*
X0144757Y0101319D01*
X0144757Y0102669D01*
X0144241Y0103916D01*
X0144164Y0103993D01*
X0144164Y0105076D01*
X0144860Y0104380D01*
X0144860Y0104271D01*
X0145377Y0103024D01*
X0145454Y0102947D01*
X0145454Y0086116D01*
X0145454Y0086467D02*
X0145103Y0086467D01*
X0145454Y0087665D02*
X0144164Y0087665D01*
X0144164Y0088864D02*
X0145454Y0088864D01*
X0145454Y0090062D02*
X0144164Y0090062D01*
X0144164Y0091261D02*
X0145454Y0091261D01*
X0145454Y0092459D02*
X0144164Y0092459D01*
X0144164Y0093658D02*
X0145454Y0093658D01*
X0145454Y0094856D02*
X0144164Y0094856D01*
X0144164Y0096055D02*
X0145454Y0096055D01*
X0145454Y0097253D02*
X0144164Y0097253D01*
X0144164Y0098452D02*
X0145454Y0098452D01*
X0145454Y0099650D02*
X0144164Y0099650D01*
X0144563Y0100849D02*
X0145454Y0100849D01*
X0145454Y0102047D02*
X0144757Y0102047D01*
X0144518Y0103246D02*
X0145285Y0103246D01*
X0144796Y0104444D02*
X0144164Y0104444D01*
X0128561Y0115248D02*
X0128478Y0115296D01*
X0128071Y0115405D01*
X0126611Y0115405D01*
X0126611Y0110902D01*
X0126511Y0110902D01*
X0126511Y0115405D01*
X0125050Y0115405D01*
X0124643Y0115296D01*
X0124540Y0115236D01*
X0123772Y0116005D01*
X0119349Y0116005D01*
X0119061Y0115716D01*
X0118772Y0116005D01*
X0115947Y0116005D01*
X0116387Y0116445D01*
X0119104Y0119161D01*
X0119358Y0119774D01*
X0123772Y0119774D01*
X0124540Y0120542D01*
X0124643Y0120483D01*
X0125050Y0120374D01*
X0126511Y0120374D01*
X0126511Y0124877D01*
X0126611Y0124877D01*
X0126611Y0120374D01*
X0128071Y0120374D01*
X0128478Y0120483D01*
X0128561Y0120531D01*
X0128561Y0115248D01*
X0128561Y0116429D02*
X0116372Y0116429D01*
X0117571Y0117628D02*
X0128561Y0117628D01*
X0128561Y0118827D02*
X0118769Y0118827D01*
X0124023Y0120025D02*
X0128561Y0120025D01*
X0126611Y0121224D02*
X0126511Y0121224D01*
X0126511Y0122422D02*
X0126611Y0122422D01*
X0126611Y0123621D02*
X0126511Y0123621D01*
X0126511Y0124819D02*
X0126611Y0124819D01*
X0126611Y0124977D02*
X0126611Y0129236D01*
X0126511Y0129337D01*
X0126511Y0124977D01*
X0126611Y0124977D01*
X0126611Y0126018D02*
X0126511Y0126018D01*
X0126511Y0127216D02*
X0126611Y0127216D01*
X0126611Y0128415D02*
X0126511Y0128415D01*
X0126462Y0128706D02*
X0123647Y0131521D01*
X0124238Y0129613D02*
X0126234Y0129613D01*
X0126462Y0128706D02*
X0126561Y0128706D01*
X0126511Y0115231D02*
X0126611Y0115231D01*
X0126611Y0114032D02*
X0126511Y0114032D01*
X0126511Y0112834D02*
X0126611Y0112834D01*
X0126611Y0111635D02*
X0126511Y0111635D01*
X0126511Y0110437D02*
X0126611Y0110437D01*
X0126611Y0109238D02*
X0126511Y0109238D01*
X0126511Y0108040D02*
X0126611Y0108040D01*
X0126611Y0106841D02*
X0126511Y0106841D01*
X0108207Y0106841D02*
X0107493Y0106841D01*
X0107556Y0112868D02*
X0106606Y0113261D01*
X0105978Y0113261D01*
X0107861Y0115144D01*
X0108489Y0115144D01*
X0108061Y0114716D01*
X0108061Y0112868D01*
X0107556Y0112868D01*
X0108061Y0114032D02*
X0106749Y0114032D01*
X0126746Y0082842D02*
X0137380Y0072208D01*
X0137380Y0069834D01*
X0135608Y0070568D01*
X0133340Y0070568D01*
X0131245Y0069700D01*
X0130584Y0069039D01*
X0130584Y0077000D01*
X0130128Y0078103D01*
X0129284Y0078946D01*
X0126689Y0081541D01*
X0126746Y0081677D01*
X0126746Y0082842D01*
X0126744Y0081673D02*
X0127915Y0081673D01*
X0127756Y0080474D02*
X0129113Y0080474D01*
X0128954Y0079276D02*
X0130312Y0079276D01*
X0130138Y0078077D02*
X0131510Y0078077D01*
X0130584Y0076879D02*
X0132709Y0076879D01*
X0133907Y0075680D02*
X0130584Y0075680D01*
X0130584Y0074482D02*
X0135106Y0074482D01*
X0136304Y0073283D02*
X0130584Y0073283D01*
X0130584Y0072085D02*
X0137380Y0072085D01*
X0137380Y0070886D02*
X0130584Y0070886D01*
X0130584Y0069688D02*
X0131233Y0069688D01*
X0124584Y0068332D02*
X0124584Y0067211D01*
X0124361Y0067434D01*
X0123547Y0067771D01*
X0124361Y0068109D01*
X0124584Y0068332D01*
X0124584Y0067291D02*
X0124505Y0067291D01*
X0130584Y0060696D02*
X0131245Y0060035D01*
X0131603Y0059887D01*
X0131245Y0059739D01*
X0130584Y0059078D01*
X0130584Y0060696D01*
X0130584Y0060099D02*
X0131181Y0060099D01*
X0124584Y0058332D02*
X0124584Y0057211D01*
X0124361Y0057434D01*
X0123547Y0057771D01*
X0124361Y0058109D01*
X0124584Y0058332D01*
X0124584Y0057702D02*
X0123713Y0057702D01*
X0118778Y0057702D02*
X0064639Y0057702D01*
X0064639Y0058901D02*
X0117338Y0058901D01*
X0116399Y0060099D02*
X0064639Y0060099D01*
X0064639Y0061298D02*
X0115903Y0061298D01*
X0115746Y0062496D02*
X0064639Y0062496D01*
X0064639Y0063695D02*
X0115746Y0063695D01*
X0116172Y0064893D02*
X0064639Y0064893D01*
X0064639Y0066092D02*
X0116788Y0066092D01*
X0124848Y0048595D02*
X0125041Y0048129D01*
X0125885Y0047285D01*
X0127771Y0045399D01*
X0126597Y0044225D01*
X0125908Y0045887D01*
X0124361Y0047434D01*
X0123547Y0047771D01*
X0124361Y0048109D01*
X0124848Y0048595D01*
X0125056Y0048114D02*
X0124367Y0048114D01*
X0124879Y0046916D02*
X0126254Y0046916D01*
X0125979Y0045717D02*
X0127453Y0045717D01*
X0126890Y0044519D02*
X0126475Y0044519D01*
X0131088Y0040232D02*
X0131245Y0040075D01*
X0131698Y0039887D01*
X0131245Y0039700D01*
X0130584Y0039039D01*
X0130584Y0039727D01*
X0131088Y0040232D01*
X0131305Y0039725D02*
X0130584Y0039725D01*
X0132506Y0044907D02*
X0132013Y0045399D01*
X0124584Y0038332D02*
X0124584Y0037211D01*
X0124361Y0037434D01*
X0123547Y0037771D01*
X0124361Y0038109D01*
X0124584Y0038332D01*
X0124584Y0037328D02*
X0124467Y0037328D01*
X0138425Y0028938D02*
X0146606Y0028938D01*
X0146606Y0027740D02*
X0139415Y0027740D01*
X0139911Y0026541D02*
X0146606Y0026541D01*
X0146606Y0025343D02*
X0140135Y0025343D01*
X0140135Y0024144D02*
X0146606Y0024144D01*
X0146606Y0022946D02*
X0139808Y0022946D01*
X0143182Y0021747D02*
X0146606Y0021747D01*
X0146606Y0020549D02*
X0145916Y0020549D01*
X0058639Y0058901D02*
X0039093Y0058901D01*
X0037894Y0060099D02*
X0058639Y0060099D01*
X0058639Y0061298D02*
X0036696Y0061298D01*
X0036746Y0062496D02*
X0058639Y0062496D01*
X0058639Y0063695D02*
X0036746Y0063695D01*
X0036320Y0064893D02*
X0058639Y0064893D01*
X0058639Y0066092D02*
X0035703Y0066092D01*
X0034505Y0067291D02*
X0058639Y0067291D01*
X0058639Y0068489D02*
X0055329Y0068489D01*
X0056983Y0069688D02*
X0058639Y0069688D01*
X0058639Y0070886D02*
X0058064Y0070886D01*
X0051413Y0070886D02*
X0050213Y0070886D01*
X0050213Y0069688D02*
X0051413Y0069688D01*
X0051413Y0068489D02*
X0050213Y0068489D01*
X0050213Y0072085D02*
X0051413Y0072085D01*
X0051413Y0073283D02*
X0050213Y0073283D01*
X0050213Y0074482D02*
X0051413Y0074482D01*
X0051413Y0075680D02*
X0050213Y0075680D01*
X0037242Y0051710D02*
X0036746Y0051710D01*
D17*
X0039986Y0053765D03*
X0061639Y0109868D03*
X0105931Y0109868D03*
X0126561Y0120662D03*
X0134474Y0133490D03*
X0145313Y0134486D03*
X0148254Y0104946D03*
X0141364Y0101994D03*
X0129553Y0104946D03*
X0149238Y0067545D03*
X0142348Y0057702D03*
X0142348Y0047860D03*
M02*
