%
M48
M72
T01C0.00787
T02C0.03543
T03C0.03937
T04C0.04000
T05C0.09843
T06C0.11024
%
T01
X39986Y53765
X61639Y109868
X105931Y109868
X126561Y120662
X134474Y133490
X145313Y134486
X148254Y104946
X141364Y101994
X129553Y104946
X149238Y67545
X142348Y57702
X142348Y47860
T02
X134474Y44907
X134474Y54907
X134474Y64868
X134474Y34868
X134435Y24868
X18175Y34868
X18175Y44907
X18175Y54868
X18135Y64907
T03
X39002Y25222
X113805Y25222
X37033Y111836
T04
X31246Y102771
X31246Y92771
X31246Y82771
X31246Y72771
X31246Y62771
X31246Y52771
X31246Y42771
X31246Y32771
X51403Y9021
X61403Y9021
X71403Y9021
X81403Y9021
X91403Y9021
X101403Y9021
X121246Y32771
X121246Y42771
X121246Y52771
X121246Y62771
X121246Y72771
X121246Y82771
X121246Y92771
X121246Y102771
T05
X12458Y12589
X10507Y130686
X140410Y12589
T06
X101994Y46876
X76403Y32112
X50813Y46876
X50813Y76403
X101994Y76403
M30
