G75*
%MOIN*%
%OFA0B0*%
%FSLAX25Y25*%
%IPPOS*%
%LPD*%
%AMOC8*
5,1,8,0,0,1.08239X$1,22.5*
%
%ADD10C,0.06600*%
%ADD11R,0.04331X0.03937*%
%ADD12C,0.07000*%
%ADD13C,0.15024*%
%ADD14C,0.07400*%
%ADD15R,0.01575X0.01575*%
%ADD16C,0.00500*%
%ADD17R,0.01969X0.01378*%
%ADD18R,0.03150X0.03150*%
%ADD19C,0.01600*%
%ADD20C,0.01200*%
%ADD21C,0.02387*%
D10*
X0031246Y0032771D03*
X0039002Y0025222D03*
X0031246Y0042771D03*
X0031246Y0052771D03*
X0031246Y0062771D03*
X0031246Y0072771D03*
X0031246Y0082771D03*
X0031246Y0092771D03*
X0031246Y0102771D03*
X0037033Y0111836D03*
X0121246Y0102771D03*
X0121246Y0092771D03*
X0121246Y0082771D03*
X0121246Y0072771D03*
X0121246Y0062771D03*
X0121246Y0052771D03*
X0121246Y0042771D03*
X0121246Y0032771D03*
X0113805Y0025222D03*
D11*
X0146285Y0047466D03*
X0146285Y0054159D03*
X0146285Y0061246D03*
X0146285Y0067939D03*
X0146285Y0079946D03*
X0146285Y0086639D03*
X0138411Y0086639D03*
X0138411Y0079946D03*
X0130537Y0079946D03*
X0130537Y0086639D03*
X0138017Y0117742D03*
X0144710Y0117742D03*
D12*
X0134474Y0064868D03*
X0134474Y0054907D03*
X0134474Y0044907D03*
X0134474Y0034868D03*
X0134435Y0024868D03*
X0018175Y0034868D03*
X0018175Y0044907D03*
X0018175Y0054868D03*
X0018135Y0064907D03*
D13*
X0050813Y0076403D03*
X0050813Y0046876D03*
X0076403Y0032112D03*
X0101994Y0046876D03*
X0101994Y0076403D03*
D14*
X0101403Y0009021D03*
X0091403Y0009021D03*
X0081403Y0009021D03*
X0071403Y0009021D03*
X0061403Y0009021D03*
X0051403Y0009021D03*
D15*
X0136246Y0123647D03*
X0136246Y0127584D03*
X0136246Y0131521D03*
X0146482Y0131521D03*
X0146482Y0127584D03*
X0146482Y0123647D03*
D16*
X0144317Y0123798D02*
X0138411Y0123798D01*
X0138411Y0124296D02*
X0144317Y0124296D01*
X0144317Y0124795D02*
X0138411Y0124795D01*
X0138411Y0125293D02*
X0144317Y0125293D01*
X0144317Y0125792D02*
X0138411Y0125792D01*
X0138411Y0126290D02*
X0144317Y0126290D01*
X0144317Y0126789D02*
X0138411Y0126789D01*
X0138411Y0127287D02*
X0144317Y0127287D01*
X0144317Y0127786D02*
X0138411Y0127786D01*
X0138411Y0128284D02*
X0144317Y0128284D01*
X0144317Y0128783D02*
X0138411Y0128783D01*
X0138411Y0129281D02*
X0144317Y0129281D01*
X0144317Y0129780D02*
X0138411Y0129780D01*
X0138411Y0130278D02*
X0144317Y0130278D01*
X0144317Y0130777D02*
X0138411Y0130777D01*
X0138411Y0131275D02*
X0144317Y0131275D01*
X0144317Y0131774D02*
X0138411Y0131774D01*
X0138411Y0132272D02*
X0144317Y0132272D01*
X0144317Y0132309D02*
X0138411Y0132309D01*
X0138411Y0122860D01*
X0144317Y0122860D01*
X0144317Y0132309D01*
X0144317Y0123299D02*
X0138411Y0123299D01*
D17*
X0138214Y0112722D03*
X0138214Y0110163D03*
X0138214Y0107604D03*
X0138214Y0105045D03*
X0144513Y0105045D03*
X0144513Y0107604D03*
X0144513Y0110163D03*
X0144513Y0112722D03*
D18*
X0146285Y0098057D03*
X0146285Y0092151D03*
X0138411Y0092151D03*
X0138411Y0098057D03*
X0130537Y0098057D03*
X0130537Y0092151D03*
D19*
X0130537Y0086639D01*
X0138411Y0086639D02*
X0138411Y0092151D01*
X0138411Y0098057D02*
X0130537Y0098057D01*
X0130537Y0103962D01*
X0129553Y0104946D01*
X0133490Y0108883D02*
X0133490Y0112468D01*
X0133138Y0112820D01*
X0138116Y0112820D01*
X0138214Y0112722D01*
X0138017Y0117742D02*
X0136443Y0117742D01*
X0133490Y0120694D01*
X0131521Y0120694D01*
X0131488Y0120662D01*
X0126561Y0120662D01*
X0131521Y0120694D02*
X0131521Y0124631D01*
X0134474Y0127584D01*
X0136246Y0127584D01*
X0136246Y0131521D02*
X0134474Y0131521D01*
X0134169Y0131521D02*
X0134474Y0131826D01*
X0134169Y0131521D02*
X0131521Y0131521D01*
X0114789Y0114789D01*
X0114789Y0104946D01*
X0068529Y0058687D01*
X0044907Y0058687D01*
X0039986Y0053765D01*
X0033086Y0052771D02*
X0042939Y0062624D01*
X0067545Y0062624D01*
X0110852Y0105931D01*
X0110852Y0115773D01*
X0132506Y0137427D01*
X0142348Y0137427D01*
X0145301Y0134474D01*
X0146482Y0133293D01*
X0146482Y0131521D01*
X0146482Y0127584D02*
X0148254Y0127584D01*
X0149238Y0126600D01*
X0149238Y0117742D01*
X0149238Y0110852D01*
X0148549Y0110163D01*
X0144513Y0110163D01*
X0138214Y0107604D02*
X0134769Y0107604D01*
X0133490Y0108883D01*
X0133138Y0112820D02*
X0130537Y0112820D01*
X0121246Y0103529D01*
X0121246Y0102771D01*
X0121039Y0102978D01*
X0105931Y0109868D02*
X0061639Y0109868D01*
X0058687Y0109868D01*
X0031590Y0082771D01*
X0025222Y0086748D02*
X0031246Y0092771D01*
X0025222Y0086748D02*
X0025222Y0061639D01*
X0018450Y0054868D01*
X0018175Y0054868D01*
X0025222Y0047820D01*
X0025222Y0018332D01*
X0034533Y0009021D01*
X0051403Y0009021D01*
X0091167Y0009257D02*
X0091403Y0009021D01*
X0091167Y0009257D02*
X0091167Y0012427D01*
X0094120Y0015380D01*
X0101994Y0015380D01*
X0101994Y0046876D01*
X0127584Y0048017D02*
X0127584Y0024238D01*
X0118726Y0015380D01*
X0101994Y0015380D01*
X0127584Y0048017D02*
X0134474Y0054907D01*
X0146285Y0086639D02*
X0146285Y0092151D01*
X0146285Y0098057D02*
X0138411Y0098057D01*
X0138411Y0104848D01*
X0138214Y0105045D01*
X0146146Y0116618D02*
X0145022Y0117742D01*
X0144710Y0117742D01*
X0145301Y0117742D02*
X0149238Y0117742D01*
X0146146Y0116618D02*
X0145301Y0117742D01*
X0033086Y0052771D02*
X0031246Y0052771D01*
X0018135Y0064907D02*
X0018135Y0089661D01*
X0031246Y0102771D01*
D20*
X0020529Y0007196D02*
X0019533Y0006200D01*
X0041954Y0006200D01*
X0041954Y0020492D01*
X0040096Y0019722D01*
X0037908Y0019722D01*
X0035886Y0020559D01*
X0034339Y0022107D01*
X0033502Y0024128D01*
X0033502Y0026316D01*
X0034220Y0028050D01*
X0032340Y0027271D01*
X0030152Y0027271D01*
X0028130Y0028109D01*
X0026583Y0029656D01*
X0025746Y0031677D01*
X0025746Y0033865D01*
X0026583Y0035887D01*
X0028130Y0037434D01*
X0028945Y0037771D01*
X0028130Y0038109D01*
X0026583Y0039656D01*
X0025746Y0041677D01*
X0025746Y0043865D01*
X0026583Y0045887D01*
X0028130Y0047434D01*
X0028945Y0047771D01*
X0028130Y0048109D01*
X0026583Y0049656D01*
X0025746Y0051677D01*
X0025746Y0053865D01*
X0026583Y0055887D01*
X0028130Y0057434D01*
X0028945Y0057771D01*
X0028130Y0058109D01*
X0026583Y0059656D01*
X0025746Y0061677D01*
X0025746Y0063865D01*
X0026583Y0065887D01*
X0028130Y0067434D01*
X0028945Y0067771D01*
X0028130Y0068109D01*
X0026583Y0069656D01*
X0025746Y0071677D01*
X0025746Y0073865D01*
X0026583Y0075887D01*
X0028130Y0077434D01*
X0028945Y0077771D01*
X0028130Y0078109D01*
X0026583Y0079656D01*
X0025746Y0081677D01*
X0025746Y0083865D01*
X0026583Y0085887D01*
X0028130Y0087434D01*
X0029750Y0088105D01*
X0029365Y0088230D01*
X0028677Y0088580D01*
X0028054Y0089034D01*
X0027508Y0089579D01*
X0027055Y0090203D01*
X0026705Y0090890D01*
X0026466Y0091624D01*
X0026348Y0092371D01*
X0030846Y0092371D01*
X0030846Y0093171D01*
X0026348Y0093171D01*
X0026434Y0093717D01*
X0021135Y0088418D01*
X0021135Y0069834D01*
X0021364Y0069739D01*
X0022968Y0068136D01*
X0023835Y0066041D01*
X0023835Y0063773D01*
X0022968Y0061678D01*
X0021364Y0060075D01*
X0020164Y0059578D01*
X0020848Y0059230D01*
X0021497Y0058758D01*
X0022065Y0058190D01*
X0022537Y0057541D01*
X0022901Y0056825D01*
X0023149Y0056062D01*
X0023275Y0055269D01*
X0023275Y0055154D01*
X0018461Y0055154D01*
X0018461Y0054582D01*
X0023275Y0054582D01*
X0023275Y0054466D01*
X0023149Y0053673D01*
X0022901Y0052910D01*
X0022537Y0052195D01*
X0022065Y0051545D01*
X0021497Y0050978D01*
X0020848Y0050506D01*
X0020267Y0050210D01*
X0021404Y0049739D01*
X0023007Y0048136D01*
X0023875Y0046041D01*
X0023875Y0043773D01*
X0023007Y0041678D01*
X0021404Y0040075D01*
X0020951Y0039887D01*
X0021404Y0039700D01*
X0023007Y0038097D01*
X0023875Y0036002D01*
X0023875Y0033734D01*
X0023007Y0031639D01*
X0021404Y0030035D01*
X0019309Y0029168D01*
X0017041Y0029168D01*
X0014946Y0030035D01*
X0013343Y0031639D01*
X0012475Y0033734D01*
X0012475Y0036002D01*
X0013343Y0038097D01*
X0014946Y0039700D01*
X0015399Y0039887D01*
X0014946Y0040075D01*
X0013343Y0041678D01*
X0012475Y0043773D01*
X0012475Y0046041D01*
X0013343Y0048136D01*
X0014946Y0049739D01*
X0016082Y0050210D01*
X0015502Y0050506D01*
X0014852Y0050978D01*
X0014285Y0051545D01*
X0013813Y0052195D01*
X0013448Y0052910D01*
X0013200Y0053673D01*
X0013075Y0054466D01*
X0013075Y0054582D01*
X0017889Y0054582D01*
X0017889Y0055154D01*
X0013075Y0055154D01*
X0013075Y0055269D01*
X0013200Y0056062D01*
X0013448Y0056825D01*
X0013813Y0057541D01*
X0014285Y0058190D01*
X0014852Y0058758D01*
X0015502Y0059230D01*
X0016150Y0059560D01*
X0014907Y0060075D01*
X0013303Y0061678D01*
X0012435Y0063773D01*
X0012435Y0066041D01*
X0013303Y0068136D01*
X0014907Y0069739D01*
X0015135Y0069834D01*
X0015135Y0090258D01*
X0015592Y0091360D01*
X0025794Y0101562D01*
X0025746Y0101677D01*
X0025746Y0103865D01*
X0026583Y0105887D01*
X0028130Y0107434D01*
X0030152Y0108271D01*
X0032340Y0108271D01*
X0033159Y0107932D01*
X0032370Y0108721D01*
X0031533Y0110742D01*
X0031533Y0112930D01*
X0032370Y0114952D01*
X0033918Y0116499D01*
X0035939Y0117336D01*
X0038127Y0117336D01*
X0040149Y0116499D01*
X0041696Y0114952D01*
X0042533Y0112930D01*
X0042533Y0110742D01*
X0041696Y0108721D01*
X0040149Y0107174D01*
X0038127Y0106336D01*
X0035939Y0106336D01*
X0035119Y0106676D01*
X0035908Y0105887D01*
X0036746Y0103865D01*
X0036746Y0101677D01*
X0035908Y0099656D01*
X0034361Y0098109D01*
X0032741Y0097438D01*
X0033127Y0097312D01*
X0033814Y0096962D01*
X0034438Y0096509D01*
X0034983Y0095963D01*
X0035437Y0095339D01*
X0035787Y0094652D01*
X0036025Y0093919D01*
X0036143Y0093171D01*
X0031646Y0093171D01*
X0031646Y0092371D01*
X0036143Y0092371D01*
X0036025Y0091624D01*
X0035941Y0091364D01*
X0056143Y0111567D01*
X0056143Y0111567D01*
X0056987Y0112411D01*
X0058090Y0112868D01*
X0060014Y0112868D01*
X0060964Y0113261D01*
X0062314Y0113261D01*
X0063265Y0112868D01*
X0104305Y0112868D01*
X0105256Y0113261D01*
X0106606Y0113261D01*
X0107852Y0112745D01*
X0107852Y0116370D01*
X0108309Y0117473D01*
X0127600Y0136764D01*
X0017895Y0136764D01*
X0018579Y0136080D01*
X0020028Y0132580D01*
X0020028Y0128793D01*
X0018579Y0125293D01*
X0015901Y0122615D01*
X0012401Y0121165D01*
X0008613Y0121165D01*
X0006200Y0122165D01*
X0006200Y0019797D01*
X0007064Y0020661D01*
X0010564Y0022111D01*
X0014351Y0022111D01*
X0017851Y0020661D01*
X0020529Y0017983D01*
X0021979Y0014483D01*
X0021979Y0010695D01*
X0020529Y0007196D01*
X0020599Y0007365D02*
X0041954Y0007365D01*
X0041954Y0008563D02*
X0021096Y0008563D01*
X0021592Y0009762D02*
X0041954Y0009762D01*
X0041954Y0010960D02*
X0021979Y0010960D01*
X0021979Y0012159D02*
X0041954Y0012159D01*
X0041954Y0013358D02*
X0021979Y0013358D01*
X0021949Y0014556D02*
X0041954Y0014556D01*
X0041954Y0015755D02*
X0021452Y0015755D01*
X0020956Y0016953D02*
X0041954Y0016953D01*
X0041954Y0018152D02*
X0020360Y0018152D01*
X0019162Y0019350D02*
X0041954Y0019350D01*
X0035912Y0020549D02*
X0017963Y0020549D01*
X0015229Y0021747D02*
X0034698Y0021747D01*
X0033991Y0022946D02*
X0006200Y0022946D01*
X0006200Y0024144D02*
X0033502Y0024144D01*
X0033502Y0025343D02*
X0006200Y0025343D01*
X0006200Y0026541D02*
X0033595Y0026541D01*
X0033470Y0027740D02*
X0034091Y0027740D01*
X0036027Y0029943D02*
X0036746Y0031677D01*
X0036746Y0033865D01*
X0035908Y0035887D01*
X0034361Y0037434D01*
X0033547Y0037771D01*
X0034361Y0038109D01*
X0035908Y0039656D01*
X0036746Y0041677D01*
X0036746Y0043865D01*
X0035908Y0045887D01*
X0034361Y0047434D01*
X0033547Y0047771D01*
X0034361Y0048109D01*
X0035908Y0049656D01*
X0036746Y0051677D01*
X0036746Y0052188D01*
X0036901Y0052344D01*
X0037109Y0051843D01*
X0038063Y0050888D01*
X0039311Y0050372D01*
X0040661Y0050372D01*
X0041908Y0050888D01*
X0042001Y0050981D01*
X0041101Y0048807D01*
X0041101Y0044944D01*
X0042579Y0041374D01*
X0045311Y0038642D01*
X0048881Y0037164D01*
X0052744Y0037164D01*
X0056314Y0038642D01*
X0059046Y0041374D01*
X0060524Y0044944D01*
X0060524Y0048807D01*
X0059046Y0052377D01*
X0056314Y0055109D01*
X0054919Y0055687D01*
X0069126Y0055687D01*
X0070228Y0056143D01*
X0092282Y0078197D01*
X0092282Y0074471D01*
X0093760Y0070902D01*
X0096492Y0068170D01*
X0100062Y0066691D01*
X0103925Y0066691D01*
X0107495Y0068170D01*
X0110227Y0070902D01*
X0111705Y0074471D01*
X0111705Y0078335D01*
X0110227Y0081904D01*
X0107495Y0084636D01*
X0103925Y0086115D01*
X0100200Y0086115D01*
X0115751Y0101665D01*
X0116583Y0099656D01*
X0118130Y0098109D01*
X0118945Y0097771D01*
X0118130Y0097434D01*
X0116583Y0095887D01*
X0115746Y0093865D01*
X0115746Y0091677D01*
X0116583Y0089656D01*
X0118130Y0088109D01*
X0118945Y0087771D01*
X0118130Y0087434D01*
X0116583Y0085887D01*
X0115746Y0083865D01*
X0115746Y0081677D01*
X0116583Y0079656D01*
X0118130Y0078109D01*
X0118945Y0077771D01*
X0118130Y0077434D01*
X0116583Y0075887D01*
X0115746Y0073865D01*
X0115746Y0071677D01*
X0116583Y0069656D01*
X0118130Y0068109D01*
X0118945Y0067771D01*
X0118130Y0067434D01*
X0116583Y0065887D01*
X0115746Y0063865D01*
X0115746Y0061677D01*
X0116583Y0059656D01*
X0118130Y0058109D01*
X0118945Y0057771D01*
X0118130Y0057434D01*
X0116583Y0055887D01*
X0115746Y0053865D01*
X0115746Y0051677D01*
X0116583Y0049656D01*
X0118130Y0048109D01*
X0118945Y0047771D01*
X0118130Y0047434D01*
X0116583Y0045887D01*
X0115746Y0043865D01*
X0115746Y0041677D01*
X0116583Y0039656D01*
X0118130Y0038109D01*
X0118945Y0037771D01*
X0118130Y0037434D01*
X0116583Y0035887D01*
X0115746Y0033865D01*
X0115746Y0031677D01*
X0116399Y0030101D01*
X0114899Y0030722D01*
X0112711Y0030722D01*
X0110689Y0029885D01*
X0109142Y0028338D01*
X0109075Y0028175D01*
X0104994Y0028175D01*
X0104994Y0037606D01*
X0107495Y0038642D01*
X0110227Y0041374D01*
X0111705Y0044944D01*
X0111705Y0048807D01*
X0110227Y0052377D01*
X0107495Y0055109D01*
X0103925Y0056587D01*
X0100062Y0056587D01*
X0096492Y0055109D01*
X0093760Y0052377D01*
X0092282Y0048807D01*
X0092282Y0044944D01*
X0093760Y0041374D01*
X0096492Y0038642D01*
X0098994Y0037606D01*
X0098994Y0028175D01*
X0085284Y0028175D01*
X0086115Y0030180D01*
X0086115Y0034044D01*
X0084636Y0037613D01*
X0081904Y0040345D01*
X0078335Y0041824D01*
X0074471Y0041824D01*
X0070902Y0040345D01*
X0068170Y0037613D01*
X0066691Y0034044D01*
X0066691Y0030180D01*
X0067522Y0028175D01*
X0043732Y0028175D01*
X0043664Y0028338D01*
X0042117Y0029885D01*
X0040096Y0030722D01*
X0037908Y0030722D01*
X0036027Y0029943D01*
X0036108Y0030137D02*
X0036494Y0030137D01*
X0036604Y0031335D02*
X0066691Y0031335D01*
X0066709Y0030137D02*
X0041509Y0030137D01*
X0043064Y0028938D02*
X0067206Y0028938D01*
X0066691Y0032534D02*
X0036746Y0032534D01*
X0036746Y0033732D02*
X0066691Y0033732D01*
X0067059Y0034931D02*
X0036304Y0034931D01*
X0035666Y0036129D02*
X0067555Y0036129D01*
X0068052Y0037328D02*
X0053140Y0037328D01*
X0056034Y0038526D02*
X0069083Y0038526D01*
X0070282Y0039725D02*
X0057396Y0039725D01*
X0058595Y0040923D02*
X0072298Y0040923D01*
X0080509Y0040923D02*
X0094211Y0040923D01*
X0093451Y0042122D02*
X0059355Y0042122D01*
X0059852Y0043320D02*
X0092954Y0043320D01*
X0092458Y0044519D02*
X0060348Y0044519D01*
X0060524Y0045717D02*
X0092282Y0045717D01*
X0092282Y0046916D02*
X0060524Y0046916D01*
X0060524Y0048114D02*
X0092282Y0048114D01*
X0092491Y0049313D02*
X0060315Y0049313D01*
X0059819Y0050511D02*
X0092988Y0050511D01*
X0093484Y0051710D02*
X0059322Y0051710D01*
X0058514Y0052908D02*
X0094292Y0052908D01*
X0095490Y0054107D02*
X0057316Y0054107D01*
X0055839Y0055305D02*
X0096967Y0055305D01*
X0099860Y0056504D02*
X0070589Y0056504D01*
X0071788Y0057702D02*
X0118778Y0057702D01*
X0117338Y0058901D02*
X0072986Y0058901D01*
X0074185Y0060099D02*
X0116399Y0060099D01*
X0115903Y0061298D02*
X0075383Y0061298D01*
X0076582Y0062496D02*
X0115746Y0062496D01*
X0115746Y0063695D02*
X0077780Y0063695D01*
X0078979Y0064893D02*
X0116172Y0064893D01*
X0116788Y0066092D02*
X0080177Y0066092D01*
X0081376Y0067291D02*
X0098615Y0067291D01*
X0096173Y0068489D02*
X0082574Y0068489D01*
X0083773Y0069688D02*
X0094975Y0069688D01*
X0093776Y0070886D02*
X0084971Y0070886D01*
X0086170Y0072085D02*
X0093271Y0072085D01*
X0092774Y0073283D02*
X0087368Y0073283D01*
X0088567Y0074482D02*
X0092282Y0074482D01*
X0092282Y0075680D02*
X0089765Y0075680D01*
X0090964Y0076879D02*
X0092282Y0076879D01*
X0092282Y0078077D02*
X0092162Y0078077D01*
X0085947Y0085268D02*
X0052933Y0085268D01*
X0052594Y0085359D02*
X0051413Y0085515D01*
X0051413Y0077003D01*
X0059924Y0077003D01*
X0059768Y0078185D01*
X0059459Y0079338D01*
X0059002Y0080442D01*
X0058405Y0081476D01*
X0057678Y0082424D01*
X0056833Y0083268D01*
X0055886Y0083996D01*
X0054851Y0084593D01*
X0053748Y0085050D01*
X0052594Y0085359D01*
X0051413Y0085268D02*
X0050213Y0085268D01*
X0050213Y0085515D02*
X0049031Y0085359D01*
X0047877Y0085050D01*
X0046774Y0084593D01*
X0045739Y0083996D01*
X0044792Y0083268D01*
X0043947Y0082424D01*
X0043220Y0081476D01*
X0042623Y0080442D01*
X0042166Y0079338D01*
X0041857Y0078185D01*
X0041701Y0077003D01*
X0050213Y0077003D01*
X0050213Y0085515D01*
X0050213Y0084070D02*
X0051413Y0084070D01*
X0051413Y0082871D02*
X0050213Y0082871D01*
X0050213Y0081673D02*
X0051413Y0081673D01*
X0051413Y0080474D02*
X0050213Y0080474D01*
X0050213Y0079276D02*
X0051413Y0079276D01*
X0051413Y0078077D02*
X0050213Y0078077D01*
X0050213Y0077003D02*
X0051413Y0077003D01*
X0051413Y0075803D01*
X0059924Y0075803D01*
X0059768Y0074622D01*
X0059459Y0073468D01*
X0059002Y0072364D01*
X0058405Y0071330D01*
X0057678Y0070382D01*
X0056833Y0069538D01*
X0055886Y0068811D01*
X0054851Y0068213D01*
X0053748Y0067756D01*
X0052594Y0067447D01*
X0051413Y0067292D01*
X0051413Y0075803D01*
X0050213Y0075803D01*
X0050213Y0067292D01*
X0049031Y0067447D01*
X0047877Y0067756D01*
X0046774Y0068213D01*
X0045739Y0068811D01*
X0044792Y0069538D01*
X0043947Y0070382D01*
X0043220Y0071330D01*
X0042623Y0072364D01*
X0042166Y0073468D01*
X0041857Y0074622D01*
X0041701Y0075803D01*
X0050213Y0075803D01*
X0050213Y0077003D01*
X0050213Y0076879D02*
X0034916Y0076879D01*
X0034361Y0077434D02*
X0035908Y0075887D01*
X0036746Y0073865D01*
X0036746Y0071677D01*
X0035908Y0069656D01*
X0034361Y0068109D01*
X0033547Y0067771D01*
X0034361Y0067434D01*
X0035908Y0065887D01*
X0036746Y0063865D01*
X0036746Y0061677D01*
X0036036Y0059963D01*
X0040395Y0064323D01*
X0041239Y0065167D01*
X0042342Y0065624D01*
X0066302Y0065624D01*
X0107539Y0106861D01*
X0106606Y0106474D01*
X0105256Y0106474D01*
X0104305Y0106868D01*
X0063265Y0106868D01*
X0062314Y0106474D01*
X0060964Y0106474D01*
X0060014Y0106868D01*
X0059929Y0106868D01*
X0036746Y0083684D01*
X0036746Y0081677D01*
X0035908Y0079656D01*
X0034361Y0078109D01*
X0033547Y0077771D01*
X0034361Y0077434D01*
X0034285Y0078077D02*
X0041843Y0078077D01*
X0042149Y0079276D02*
X0035528Y0079276D01*
X0036247Y0080474D02*
X0042642Y0080474D01*
X0043371Y0081673D02*
X0036744Y0081673D01*
X0036746Y0082871D02*
X0044395Y0082871D01*
X0045868Y0084070D02*
X0037131Y0084070D01*
X0038330Y0085268D02*
X0048692Y0085268D01*
X0043124Y0090062D02*
X0090741Y0090062D01*
X0089542Y0088864D02*
X0041925Y0088864D01*
X0040727Y0087665D02*
X0088344Y0087665D01*
X0087145Y0086467D02*
X0039528Y0086467D01*
X0037036Y0092459D02*
X0031646Y0092459D01*
X0030846Y0092459D02*
X0025176Y0092459D01*
X0023978Y0091261D02*
X0026584Y0091261D01*
X0027157Y0090062D02*
X0022779Y0090062D01*
X0021581Y0088864D02*
X0028288Y0088864D01*
X0028689Y0087665D02*
X0021135Y0087665D01*
X0021135Y0086467D02*
X0027163Y0086467D01*
X0026327Y0085268D02*
X0021135Y0085268D01*
X0021135Y0084070D02*
X0025830Y0084070D01*
X0025746Y0082871D02*
X0021135Y0082871D01*
X0021135Y0081673D02*
X0025748Y0081673D01*
X0026244Y0080474D02*
X0021135Y0080474D01*
X0021135Y0079276D02*
X0026963Y0079276D01*
X0028206Y0078077D02*
X0021135Y0078077D01*
X0021135Y0076879D02*
X0027575Y0076879D01*
X0026497Y0075680D02*
X0021135Y0075680D01*
X0021135Y0074482D02*
X0026001Y0074482D01*
X0025746Y0073283D02*
X0021135Y0073283D01*
X0021135Y0072085D02*
X0025746Y0072085D01*
X0026073Y0070886D02*
X0021135Y0070886D01*
X0021416Y0069688D02*
X0026570Y0069688D01*
X0027750Y0068489D02*
X0022615Y0068489D01*
X0023318Y0067291D02*
X0027987Y0067291D01*
X0026788Y0066092D02*
X0023814Y0066092D01*
X0023835Y0064893D02*
X0026172Y0064893D01*
X0025746Y0063695D02*
X0023803Y0063695D01*
X0023307Y0062496D02*
X0025746Y0062496D01*
X0025903Y0061298D02*
X0022587Y0061298D01*
X0021389Y0060099D02*
X0026399Y0060099D01*
X0027338Y0058901D02*
X0021300Y0058901D01*
X0022419Y0057702D02*
X0028778Y0057702D01*
X0027200Y0056504D02*
X0023006Y0056504D01*
X0023269Y0055305D02*
X0026342Y0055305D01*
X0025846Y0054107D02*
X0023218Y0054107D01*
X0022900Y0052908D02*
X0025746Y0052908D01*
X0025746Y0051710D02*
X0022184Y0051710D01*
X0020855Y0050511D02*
X0026229Y0050511D01*
X0026926Y0049313D02*
X0021830Y0049313D01*
X0023016Y0048114D02*
X0028124Y0048114D01*
X0027612Y0046916D02*
X0023512Y0046916D01*
X0023875Y0045717D02*
X0026513Y0045717D01*
X0026016Y0044519D02*
X0023875Y0044519D01*
X0023687Y0043320D02*
X0025746Y0043320D01*
X0025746Y0042122D02*
X0023191Y0042122D01*
X0022252Y0040923D02*
X0026058Y0040923D01*
X0026554Y0039725D02*
X0021344Y0039725D01*
X0022577Y0038526D02*
X0027713Y0038526D01*
X0028024Y0037328D02*
X0023325Y0037328D01*
X0023822Y0036129D02*
X0026825Y0036129D01*
X0026187Y0034931D02*
X0023875Y0034931D01*
X0023874Y0033732D02*
X0025746Y0033732D01*
X0025746Y0032534D02*
X0023378Y0032534D01*
X0022703Y0031335D02*
X0025887Y0031335D01*
X0026384Y0030137D02*
X0021505Y0030137D01*
X0027301Y0028938D02*
X0006200Y0028938D01*
X0006200Y0027740D02*
X0029021Y0027740D01*
X0034467Y0037328D02*
X0048485Y0037328D01*
X0045591Y0038526D02*
X0034779Y0038526D01*
X0035937Y0039725D02*
X0044229Y0039725D01*
X0043030Y0040923D02*
X0036433Y0040923D01*
X0036746Y0042122D02*
X0042270Y0042122D01*
X0041773Y0043320D02*
X0036746Y0043320D01*
X0036475Y0044519D02*
X0041277Y0044519D01*
X0041101Y0045717D02*
X0035979Y0045717D01*
X0034879Y0046916D02*
X0041101Y0046916D01*
X0041101Y0048114D02*
X0034367Y0048114D01*
X0035565Y0049313D02*
X0041310Y0049313D01*
X0040998Y0050511D02*
X0041807Y0050511D01*
X0038973Y0050511D02*
X0036263Y0050511D01*
X0036746Y0051710D02*
X0037242Y0051710D01*
X0033757Y0057684D02*
X0033547Y0057771D01*
X0034053Y0057981D01*
X0033757Y0057684D01*
X0033775Y0057702D02*
X0033713Y0057702D01*
X0036092Y0060099D02*
X0036172Y0060099D01*
X0036589Y0061298D02*
X0037370Y0061298D01*
X0036746Y0062496D02*
X0038569Y0062496D01*
X0039767Y0063695D02*
X0036746Y0063695D01*
X0036320Y0064893D02*
X0040966Y0064893D01*
X0035703Y0066092D02*
X0066771Y0066092D01*
X0067969Y0067291D02*
X0034505Y0067291D01*
X0034742Y0068489D02*
X0046297Y0068489D01*
X0044642Y0069688D02*
X0035921Y0069688D01*
X0036418Y0070886D02*
X0043561Y0070886D01*
X0042785Y0072085D02*
X0036746Y0072085D01*
X0036746Y0073283D02*
X0042242Y0073283D01*
X0041894Y0074482D02*
X0036490Y0074482D01*
X0035994Y0075680D02*
X0041717Y0075680D01*
X0050213Y0075680D02*
X0051413Y0075680D01*
X0051413Y0074482D02*
X0050213Y0074482D01*
X0050213Y0073283D02*
X0051413Y0073283D01*
X0051413Y0072085D02*
X0050213Y0072085D01*
X0050213Y0070886D02*
X0051413Y0070886D01*
X0051413Y0069688D02*
X0050213Y0069688D01*
X0050213Y0068489D02*
X0051413Y0068489D01*
X0055329Y0068489D02*
X0069168Y0068489D01*
X0070366Y0069688D02*
X0056983Y0069688D01*
X0058064Y0070886D02*
X0071565Y0070886D01*
X0072763Y0072085D02*
X0058841Y0072085D01*
X0059383Y0073283D02*
X0073962Y0073283D01*
X0075160Y0074482D02*
X0059731Y0074482D01*
X0059908Y0075680D02*
X0076359Y0075680D01*
X0077557Y0076879D02*
X0051413Y0076879D01*
X0057231Y0082871D02*
X0083550Y0082871D01*
X0084748Y0084070D02*
X0055757Y0084070D01*
X0058254Y0081673D02*
X0082351Y0081673D01*
X0081153Y0080474D02*
X0058984Y0080474D01*
X0059476Y0079276D02*
X0079954Y0079276D01*
X0078756Y0078077D02*
X0059783Y0078077D01*
X0044322Y0091261D02*
X0091939Y0091261D01*
X0093138Y0092459D02*
X0045521Y0092459D01*
X0046719Y0093658D02*
X0094336Y0093658D01*
X0095535Y0094856D02*
X0047918Y0094856D01*
X0049116Y0096055D02*
X0096733Y0096055D01*
X0097932Y0097253D02*
X0050315Y0097253D01*
X0051513Y0098452D02*
X0099130Y0098452D01*
X0100329Y0099650D02*
X0052712Y0099650D01*
X0053910Y0100849D02*
X0101527Y0100849D01*
X0102726Y0102047D02*
X0055109Y0102047D01*
X0056307Y0103246D02*
X0103924Y0103246D01*
X0105123Y0104444D02*
X0057506Y0104444D01*
X0058704Y0105643D02*
X0106322Y0105643D01*
X0107493Y0106841D02*
X0107520Y0106841D01*
X0104369Y0106841D02*
X0063201Y0106841D01*
X0060077Y0106841D02*
X0059903Y0106841D01*
X0056212Y0111635D02*
X0042533Y0111635D01*
X0042533Y0112834D02*
X0058008Y0112834D01*
X0055013Y0110437D02*
X0042407Y0110437D01*
X0041910Y0109238D02*
X0053815Y0109238D01*
X0052616Y0108040D02*
X0041015Y0108040D01*
X0039347Y0106841D02*
X0051418Y0106841D01*
X0050219Y0105643D02*
X0036009Y0105643D01*
X0036506Y0104444D02*
X0049021Y0104444D01*
X0047822Y0103246D02*
X0036746Y0103246D01*
X0036746Y0102047D02*
X0046624Y0102047D01*
X0045425Y0100849D02*
X0036403Y0100849D01*
X0035903Y0099650D02*
X0044227Y0099650D01*
X0043028Y0098452D02*
X0034704Y0098452D01*
X0033242Y0097253D02*
X0041830Y0097253D01*
X0040631Y0096055D02*
X0034892Y0096055D01*
X0035683Y0094856D02*
X0039433Y0094856D01*
X0038234Y0093658D02*
X0036066Y0093658D01*
X0026425Y0093658D02*
X0026375Y0093658D01*
X0022684Y0098452D02*
X0006200Y0098452D01*
X0006200Y0099650D02*
X0023882Y0099650D01*
X0025081Y0100849D02*
X0006200Y0100849D01*
X0006200Y0102047D02*
X0025746Y0102047D01*
X0025746Y0103246D02*
X0006200Y0103246D01*
X0006200Y0104444D02*
X0025986Y0104444D01*
X0026482Y0105643D02*
X0006200Y0105643D01*
X0006200Y0106841D02*
X0027538Y0106841D01*
X0029593Y0108040D02*
X0006200Y0108040D01*
X0006200Y0109238D02*
X0032156Y0109238D01*
X0031660Y0110437D02*
X0006200Y0110437D01*
X0006200Y0111635D02*
X0031533Y0111635D01*
X0031533Y0112834D02*
X0006200Y0112834D01*
X0006200Y0114032D02*
X0031990Y0114032D01*
X0032650Y0115231D02*
X0006200Y0115231D01*
X0006200Y0116429D02*
X0033848Y0116429D01*
X0040218Y0116429D02*
X0107877Y0116429D01*
X0107852Y0115231D02*
X0041416Y0115231D01*
X0042077Y0114032D02*
X0107852Y0114032D01*
X0107852Y0112834D02*
X0107638Y0112834D01*
X0108464Y0117628D02*
X0006200Y0117628D01*
X0006200Y0118827D02*
X0109663Y0118827D01*
X0110861Y0120025D02*
X0006200Y0120025D01*
X0006200Y0121224D02*
X0008472Y0121224D01*
X0012542Y0121224D02*
X0112060Y0121224D01*
X0113258Y0122422D02*
X0015435Y0122422D01*
X0016906Y0123621D02*
X0114457Y0123621D01*
X0115655Y0124819D02*
X0018105Y0124819D01*
X0018879Y0126018D02*
X0116854Y0126018D01*
X0118052Y0127216D02*
X0019375Y0127216D01*
X0019872Y0128415D02*
X0119251Y0128415D01*
X0120449Y0129613D02*
X0020028Y0129613D01*
X0020028Y0130812D02*
X0121648Y0130812D01*
X0122846Y0132010D02*
X0020028Y0132010D01*
X0019768Y0133209D02*
X0124045Y0133209D01*
X0125243Y0134407D02*
X0019272Y0134407D01*
X0018775Y0135606D02*
X0126442Y0135606D01*
X0132764Y0128521D02*
X0133858Y0128521D01*
X0133858Y0127584D01*
X0133858Y0126586D01*
X0133967Y0126179D01*
X0134013Y0126100D01*
X0133258Y0125346D01*
X0133258Y0121949D01*
X0134547Y0120660D01*
X0134553Y0120660D01*
X0134361Y0120328D01*
X0134252Y0119921D01*
X0134252Y0118126D01*
X0137633Y0118126D01*
X0137633Y0117357D01*
X0137633Y0115820D01*
X0138402Y0115820D01*
X0138402Y0117357D01*
X0137633Y0117357D01*
X0134252Y0117357D01*
X0134252Y0115820D01*
X0129940Y0115820D01*
X0128838Y0115364D01*
X0127994Y0114520D01*
X0121745Y0108271D01*
X0120152Y0108271D01*
X0118130Y0107434D01*
X0117789Y0107093D01*
X0117789Y0113546D01*
X0132764Y0128521D01*
X0132657Y0128415D02*
X0133858Y0128415D01*
X0133858Y0127584D02*
X0135961Y0127584D01*
X0133858Y0127584D01*
X0133858Y0127216D02*
X0131459Y0127216D01*
X0130260Y0126018D02*
X0133930Y0126018D01*
X0133258Y0124819D02*
X0129062Y0124819D01*
X0127863Y0123621D02*
X0133258Y0123621D01*
X0133258Y0122422D02*
X0126665Y0122422D01*
X0125466Y0121224D02*
X0133983Y0121224D01*
X0134280Y0120025D02*
X0124268Y0120025D01*
X0123069Y0118827D02*
X0134252Y0118827D01*
X0134252Y0116429D02*
X0120672Y0116429D01*
X0119474Y0115231D02*
X0128705Y0115231D01*
X0127506Y0114032D02*
X0118275Y0114032D01*
X0117789Y0112834D02*
X0126308Y0112834D01*
X0125109Y0111635D02*
X0117789Y0111635D01*
X0117789Y0110437D02*
X0123911Y0110437D01*
X0122712Y0109238D02*
X0117789Y0109238D01*
X0117789Y0108040D02*
X0119593Y0108040D01*
X0126476Y0104517D02*
X0130490Y0108531D01*
X0130490Y0108287D01*
X0130946Y0107184D01*
X0131790Y0106340D01*
X0133070Y0105061D01*
X0134173Y0104604D01*
X0135630Y0104604D01*
X0135630Y0104145D01*
X0135739Y0103738D01*
X0135950Y0103373D01*
X0136247Y0103076D01*
X0136612Y0102865D01*
X0137019Y0102756D01*
X0138006Y0102756D01*
X0137970Y0102669D01*
X0137970Y0101319D01*
X0138006Y0101231D01*
X0136626Y0101231D01*
X0136219Y0101122D01*
X0135854Y0100912D01*
X0135556Y0100614D01*
X0135345Y0100249D01*
X0135236Y0099842D01*
X0135236Y0098244D01*
X0138224Y0098244D01*
X0138224Y0097869D01*
X0135236Y0097869D01*
X0135236Y0096271D01*
X0135345Y0095864D01*
X0135535Y0095536D01*
X0134636Y0094637D01*
X0134636Y0090110D01*
X0134474Y0089947D01*
X0134312Y0090110D01*
X0134312Y0094637D01*
X0133413Y0095536D01*
X0133603Y0095864D01*
X0133712Y0096271D01*
X0133712Y0097869D01*
X0130724Y0097869D01*
X0130724Y0098244D01*
X0130350Y0098244D01*
X0130350Y0101231D01*
X0128752Y0101231D01*
X0128345Y0101122D01*
X0127980Y0100912D01*
X0127682Y0100614D01*
X0127471Y0100249D01*
X0127362Y0099842D01*
X0127362Y0098244D01*
X0130350Y0098244D01*
X0130350Y0097869D01*
X0127362Y0097869D01*
X0127362Y0096271D01*
X0127471Y0095864D01*
X0127661Y0095536D01*
X0126762Y0094637D01*
X0126762Y0090110D01*
X0126172Y0089519D01*
X0126172Y0085251D01*
X0125908Y0085887D01*
X0124361Y0087434D01*
X0123547Y0087771D01*
X0124361Y0088109D01*
X0125908Y0089656D01*
X0126746Y0091677D01*
X0126746Y0093865D01*
X0125908Y0095887D01*
X0124361Y0097434D01*
X0123547Y0097771D01*
X0124361Y0098109D01*
X0125908Y0099656D01*
X0126746Y0101677D01*
X0126746Y0103865D01*
X0126476Y0104517D01*
X0126506Y0104444D02*
X0135630Y0104444D01*
X0136077Y0103246D02*
X0126746Y0103246D01*
X0126746Y0102047D02*
X0137970Y0102047D01*
X0135791Y0100849D02*
X0133157Y0100849D01*
X0133094Y0100912D02*
X0132729Y0101122D01*
X0132322Y0101231D01*
X0130724Y0101231D01*
X0130724Y0098244D01*
X0133712Y0098244D01*
X0133712Y0099842D01*
X0133603Y0100249D01*
X0133392Y0100614D01*
X0133094Y0100912D01*
X0133712Y0099650D02*
X0135236Y0099650D01*
X0135236Y0098452D02*
X0133712Y0098452D01*
X0133712Y0097253D02*
X0135236Y0097253D01*
X0135294Y0096055D02*
X0133654Y0096055D01*
X0134093Y0094856D02*
X0134855Y0094856D01*
X0134636Y0093658D02*
X0134312Y0093658D01*
X0134312Y0092459D02*
X0134636Y0092459D01*
X0134636Y0091261D02*
X0134312Y0091261D01*
X0134359Y0090062D02*
X0134589Y0090062D01*
X0142186Y0090110D02*
X0142186Y0094637D01*
X0141287Y0095536D01*
X0141477Y0095864D01*
X0141586Y0096271D01*
X0141586Y0097869D01*
X0138598Y0097869D01*
X0138598Y0098244D01*
X0141586Y0098244D01*
X0141586Y0098600D01*
X0142039Y0098600D01*
X0143110Y0099044D01*
X0143110Y0098244D01*
X0146098Y0098244D01*
X0146098Y0101231D01*
X0144721Y0101231D01*
X0144757Y0101319D01*
X0144757Y0102146D01*
X0146254Y0102146D01*
X0146331Y0102069D01*
X0146606Y0101955D01*
X0146606Y0101231D01*
X0146472Y0101231D01*
X0146472Y0098244D01*
X0146098Y0098244D01*
X0146098Y0097869D01*
X0143110Y0097869D01*
X0143110Y0096271D01*
X0143219Y0095864D01*
X0143409Y0095536D01*
X0142510Y0094637D01*
X0142510Y0090110D01*
X0142348Y0089947D01*
X0142186Y0090110D01*
X0142233Y0090062D02*
X0142463Y0090062D01*
X0142510Y0091261D02*
X0142186Y0091261D01*
X0142186Y0092459D02*
X0142510Y0092459D01*
X0142510Y0093658D02*
X0142186Y0093658D01*
X0141967Y0094856D02*
X0142729Y0094856D01*
X0143168Y0096055D02*
X0141528Y0096055D01*
X0141586Y0097253D02*
X0143110Y0097253D01*
X0143110Y0098452D02*
X0141586Y0098452D01*
X0141364Y0101994D02*
X0141364Y0105931D01*
X0143037Y0107604D01*
X0144513Y0107604D01*
X0144513Y0110163D02*
X0142643Y0110163D01*
X0140084Y0107604D01*
X0138214Y0107604D01*
X0138214Y0110163D02*
X0139691Y0110163D01*
X0142232Y0112704D01*
X0138017Y0116919D01*
X0138017Y0117742D01*
X0137633Y0117628D02*
X0121871Y0117628D01*
X0129999Y0108040D02*
X0130592Y0108040D01*
X0131289Y0106841D02*
X0128801Y0106841D01*
X0127602Y0105643D02*
X0132488Y0105643D01*
X0130724Y0100849D02*
X0130350Y0100849D01*
X0130350Y0099650D02*
X0130724Y0099650D01*
X0130724Y0098452D02*
X0130350Y0098452D01*
X0127362Y0098452D02*
X0124704Y0098452D01*
X0124542Y0097253D02*
X0127362Y0097253D01*
X0127420Y0096055D02*
X0125740Y0096055D01*
X0126335Y0094856D02*
X0126981Y0094856D01*
X0126762Y0093658D02*
X0126746Y0093658D01*
X0126746Y0092459D02*
X0126762Y0092459D01*
X0126762Y0091261D02*
X0126573Y0091261D01*
X0126715Y0090062D02*
X0126077Y0090062D01*
X0126172Y0088864D02*
X0125116Y0088864D01*
X0126172Y0087665D02*
X0123803Y0087665D01*
X0125328Y0086467D02*
X0126172Y0086467D01*
X0126165Y0085268D02*
X0126172Y0085268D01*
X0126172Y0080291D02*
X0126172Y0077067D01*
X0126214Y0077024D01*
X0125492Y0076303D01*
X0124361Y0077434D01*
X0123547Y0077771D01*
X0124361Y0078109D01*
X0125908Y0079656D01*
X0126172Y0080291D01*
X0126172Y0079276D02*
X0125528Y0079276D01*
X0126172Y0078077D02*
X0124285Y0078077D01*
X0124916Y0076879D02*
X0126068Y0076879D01*
X0125921Y0072771D02*
X0121246Y0072771D01*
X0125921Y0072771D02*
X0130537Y0077387D01*
X0130537Y0079946D01*
X0134086Y0076250D02*
X0134474Y0076638D01*
X0134862Y0076250D01*
X0134086Y0076250D01*
X0136443Y0073450D02*
X0130537Y0073450D01*
X0121246Y0064159D01*
X0121246Y0062771D01*
X0117987Y0067291D02*
X0105372Y0067291D01*
X0107814Y0068489D02*
X0117750Y0068489D01*
X0116570Y0069688D02*
X0109013Y0069688D01*
X0110211Y0070886D02*
X0116073Y0070886D01*
X0115746Y0072085D02*
X0110717Y0072085D01*
X0111213Y0073283D02*
X0115746Y0073283D01*
X0116001Y0074482D02*
X0111705Y0074482D01*
X0111705Y0075680D02*
X0116497Y0075680D01*
X0117575Y0076879D02*
X0111705Y0076879D01*
X0111705Y0078077D02*
X0118206Y0078077D01*
X0116963Y0079276D02*
X0111316Y0079276D01*
X0110819Y0080474D02*
X0116244Y0080474D01*
X0115748Y0081673D02*
X0110323Y0081673D01*
X0109260Y0082871D02*
X0115746Y0082871D01*
X0115830Y0084070D02*
X0108062Y0084070D01*
X0105970Y0085268D02*
X0116327Y0085268D01*
X0117163Y0086467D02*
X0100552Y0086467D01*
X0101750Y0087665D02*
X0118689Y0087665D01*
X0117375Y0088864D02*
X0102949Y0088864D01*
X0104147Y0090062D02*
X0116415Y0090062D01*
X0115918Y0091261D02*
X0105346Y0091261D01*
X0106544Y0092459D02*
X0115746Y0092459D01*
X0115746Y0093658D02*
X0107743Y0093658D01*
X0108941Y0094856D02*
X0116156Y0094856D01*
X0116751Y0096055D02*
X0110140Y0096055D01*
X0111338Y0097253D02*
X0117950Y0097253D01*
X0117787Y0098452D02*
X0112537Y0098452D01*
X0113735Y0099650D02*
X0116588Y0099650D01*
X0116089Y0100849D02*
X0114934Y0100849D01*
X0125903Y0099650D02*
X0127362Y0099650D01*
X0127917Y0100849D02*
X0126403Y0100849D01*
X0141398Y0112678D02*
X0141398Y0113808D01*
X0141634Y0113573D01*
X0141929Y0113573D01*
X0141929Y0112898D01*
X0141398Y0112678D01*
X0141398Y0112834D02*
X0141775Y0112834D01*
X0142232Y0112704D02*
X0142250Y0112722D01*
X0144513Y0112722D01*
X0138402Y0116429D02*
X0137633Y0116429D01*
X0135961Y0127584D02*
X0135961Y0127584D01*
X0134474Y0131521D02*
X0134474Y0131826D01*
X0134474Y0133490D01*
X0145301Y0134474D02*
X0145313Y0134486D01*
X0144513Y0105045D02*
X0144612Y0104946D01*
X0148254Y0104946D01*
X0146384Y0102047D02*
X0144757Y0102047D01*
X0146098Y0100849D02*
X0146472Y0100849D01*
X0146472Y0099650D02*
X0146098Y0099650D01*
X0146098Y0098452D02*
X0146472Y0098452D01*
X0142348Y0083331D02*
X0142310Y0083293D01*
X0142348Y0083255D01*
X0142386Y0083293D01*
X0142348Y0083331D01*
X0146285Y0079946D02*
X0146285Y0077387D01*
X0139395Y0070498D01*
X0131521Y0070498D01*
X0128569Y0067545D01*
X0128569Y0059671D01*
X0121669Y0052771D01*
X0121246Y0052771D01*
X0115746Y0052908D02*
X0109695Y0052908D01*
X0110503Y0051710D02*
X0115746Y0051710D01*
X0116229Y0050511D02*
X0111000Y0050511D01*
X0111496Y0049313D02*
X0116926Y0049313D01*
X0118124Y0048114D02*
X0111705Y0048114D01*
X0111705Y0046916D02*
X0117612Y0046916D01*
X0116513Y0045717D02*
X0111705Y0045717D01*
X0111529Y0044519D02*
X0116016Y0044519D01*
X0115746Y0043320D02*
X0111033Y0043320D01*
X0110537Y0042122D02*
X0115746Y0042122D01*
X0116058Y0040923D02*
X0109776Y0040923D01*
X0108577Y0039725D02*
X0116554Y0039725D01*
X0117713Y0038526D02*
X0107215Y0038526D01*
X0104994Y0037328D02*
X0118024Y0037328D01*
X0116825Y0036129D02*
X0104994Y0036129D01*
X0104994Y0034931D02*
X0116187Y0034931D01*
X0115746Y0033732D02*
X0104994Y0033732D01*
X0104994Y0032534D02*
X0115746Y0032534D01*
X0115887Y0031335D02*
X0104994Y0031335D01*
X0104994Y0030137D02*
X0111298Y0030137D01*
X0109743Y0028938D02*
X0104994Y0028938D01*
X0098994Y0028938D02*
X0085601Y0028938D01*
X0086097Y0030137D02*
X0098994Y0030137D01*
X0098994Y0031335D02*
X0086115Y0031335D01*
X0086115Y0032534D02*
X0098994Y0032534D01*
X0098994Y0033732D02*
X0086115Y0033732D01*
X0085748Y0034931D02*
X0098994Y0034931D01*
X0098994Y0036129D02*
X0085251Y0036129D01*
X0084755Y0037328D02*
X0098994Y0037328D01*
X0096773Y0038526D02*
X0083723Y0038526D01*
X0082525Y0039725D02*
X0095410Y0039725D01*
X0108497Y0054107D02*
X0115846Y0054107D01*
X0116342Y0055305D02*
X0107020Y0055305D01*
X0104127Y0056504D02*
X0117200Y0056504D01*
X0126739Y0053882D02*
X0128774Y0055917D01*
X0128774Y0053773D01*
X0128869Y0053544D01*
X0126565Y0051240D01*
X0126746Y0051677D01*
X0126746Y0053865D01*
X0126739Y0053882D01*
X0126964Y0054107D02*
X0128774Y0054107D01*
X0128774Y0055305D02*
X0128163Y0055305D01*
X0128233Y0052908D02*
X0126746Y0052908D01*
X0126746Y0051710D02*
X0127034Y0051710D01*
X0124584Y0048332D02*
X0124584Y0047211D01*
X0124361Y0047434D01*
X0123547Y0047771D01*
X0124361Y0048109D01*
X0124584Y0048332D01*
X0124584Y0048114D02*
X0124367Y0048114D01*
X0130584Y0040736D02*
X0131245Y0040075D01*
X0131698Y0039887D01*
X0131245Y0039700D01*
X0130584Y0039039D01*
X0130584Y0040736D01*
X0130584Y0039725D02*
X0131305Y0039725D01*
X0137250Y0039887D02*
X0137703Y0040075D01*
X0139306Y0041678D01*
X0140174Y0043773D01*
X0140174Y0045234D01*
X0140426Y0044983D01*
X0141673Y0044466D01*
X0142040Y0044466D01*
X0143208Y0043298D01*
X0146606Y0043298D01*
X0146606Y0019858D01*
X0145804Y0020661D01*
X0142304Y0022111D01*
X0139462Y0022111D01*
X0140135Y0023734D01*
X0140135Y0026002D01*
X0139267Y0028097D01*
X0137663Y0029700D01*
X0137278Y0029860D01*
X0137703Y0030035D01*
X0139306Y0031639D01*
X0140174Y0033734D01*
X0140174Y0036002D01*
X0139306Y0038097D01*
X0137703Y0039700D01*
X0137250Y0039887D01*
X0137643Y0039725D02*
X0146606Y0039725D01*
X0146606Y0040923D02*
X0138551Y0040923D01*
X0139490Y0042122D02*
X0146606Y0042122D01*
X0146606Y0038526D02*
X0138877Y0038526D01*
X0139625Y0037328D02*
X0146606Y0037328D01*
X0146606Y0036129D02*
X0140121Y0036129D01*
X0140174Y0034931D02*
X0146606Y0034931D01*
X0146606Y0033732D02*
X0140173Y0033732D01*
X0139677Y0032534D02*
X0146606Y0032534D01*
X0146606Y0031335D02*
X0139002Y0031335D01*
X0137804Y0030137D02*
X0146606Y0030137D01*
X0146606Y0028938D02*
X0138425Y0028938D01*
X0139415Y0027740D02*
X0146606Y0027740D01*
X0146606Y0026541D02*
X0139911Y0026541D01*
X0140135Y0025343D02*
X0146606Y0025343D01*
X0146606Y0024144D02*
X0140135Y0024144D01*
X0139808Y0022946D02*
X0146606Y0022946D01*
X0146606Y0021747D02*
X0143182Y0021747D01*
X0145916Y0020549D02*
X0146606Y0020549D01*
X0133524Y0019168D02*
X0132339Y0017983D01*
X0130889Y0014483D01*
X0130889Y0010695D01*
X0132339Y0007196D01*
X0133335Y0006200D01*
X0111836Y0006200D01*
X0111836Y0012380D01*
X0119323Y0012380D01*
X0120425Y0012836D01*
X0129284Y0021695D01*
X0129493Y0021904D01*
X0129602Y0021639D01*
X0131206Y0020035D01*
X0133301Y0019168D01*
X0133524Y0019168D01*
X0132861Y0019350D02*
X0126939Y0019350D01*
X0125741Y0018152D02*
X0132507Y0018152D01*
X0131912Y0016953D02*
X0124542Y0016953D01*
X0123344Y0015755D02*
X0131416Y0015755D01*
X0130919Y0014556D02*
X0122145Y0014556D01*
X0120947Y0013358D02*
X0130889Y0013358D01*
X0130889Y0012159D02*
X0111836Y0012159D01*
X0111836Y0010960D02*
X0130889Y0010960D01*
X0131276Y0009762D02*
X0111836Y0009762D01*
X0111836Y0008563D02*
X0131772Y0008563D01*
X0132269Y0007365D02*
X0111836Y0007365D01*
X0111836Y0018380D02*
X0111836Y0020084D01*
X0112711Y0019722D01*
X0114899Y0019722D01*
X0116920Y0020559D01*
X0118467Y0022107D01*
X0119305Y0024128D01*
X0119305Y0026316D01*
X0118652Y0027893D01*
X0120152Y0027271D01*
X0122340Y0027271D01*
X0124361Y0028109D01*
X0124584Y0028332D01*
X0124584Y0025480D01*
X0117483Y0018380D01*
X0111836Y0018380D01*
X0111836Y0019350D02*
X0118454Y0019350D01*
X0119652Y0020549D02*
X0116894Y0020549D01*
X0118108Y0021747D02*
X0120851Y0021747D01*
X0122049Y0022946D02*
X0118815Y0022946D01*
X0119305Y0024144D02*
X0123248Y0024144D01*
X0124446Y0025343D02*
X0119305Y0025343D01*
X0119211Y0026541D02*
X0124584Y0026541D01*
X0124584Y0027740D02*
X0123470Y0027740D01*
X0119021Y0027740D02*
X0118715Y0027740D01*
X0116384Y0030137D02*
X0116312Y0030137D01*
X0123547Y0037771D02*
X0124361Y0038109D01*
X0124584Y0038332D01*
X0124584Y0037211D01*
X0124361Y0037434D01*
X0123547Y0037771D01*
X0124467Y0037328D02*
X0124584Y0037328D01*
X0130584Y0030696D02*
X0131245Y0030035D01*
X0131631Y0029876D01*
X0131206Y0029700D01*
X0130584Y0029078D01*
X0130584Y0030696D01*
X0130584Y0030137D02*
X0131144Y0030137D01*
X0129558Y0021747D02*
X0129336Y0021747D01*
X0128138Y0020549D02*
X0130693Y0020549D01*
X0139986Y0043320D02*
X0143186Y0043320D01*
X0141546Y0044519D02*
X0140174Y0044519D01*
X0142742Y0047466D02*
X0142348Y0047860D01*
X0142742Y0047466D02*
X0146285Y0047466D01*
X0141945Y0051254D02*
X0141673Y0051254D01*
X0140426Y0050737D01*
X0139471Y0049782D01*
X0138954Y0048535D01*
X0138954Y0048488D01*
X0137703Y0049739D01*
X0137298Y0049907D01*
X0137703Y0050075D01*
X0139306Y0051678D01*
X0140174Y0053773D01*
X0140174Y0055077D01*
X0140426Y0054825D01*
X0141673Y0054309D01*
X0141920Y0054309D01*
X0141920Y0051279D01*
X0141945Y0051254D01*
X0141920Y0051710D02*
X0139319Y0051710D01*
X0139816Y0052908D02*
X0141920Y0052908D01*
X0141920Y0054107D02*
X0140174Y0054107D01*
X0140200Y0050511D02*
X0138139Y0050511D01*
X0138129Y0049313D02*
X0139277Y0049313D01*
X0134474Y0054907D02*
X0134317Y0054907D01*
X0131603Y0059887D02*
X0131368Y0059984D01*
X0131368Y0059790D01*
X0131603Y0059887D01*
X0137345Y0059887D02*
X0137703Y0060035D01*
X0139306Y0061639D01*
X0140174Y0063734D01*
X0140174Y0066002D01*
X0139471Y0067698D01*
X0139952Y0067698D01*
X0140981Y0068124D01*
X0141920Y0069062D01*
X0141920Y0065059D01*
X0142386Y0064592D01*
X0141920Y0064125D01*
X0141920Y0061096D01*
X0141673Y0061096D01*
X0140426Y0060579D01*
X0139471Y0059625D01*
X0138987Y0058455D01*
X0137703Y0059739D01*
X0137345Y0059887D01*
X0137767Y0060099D02*
X0139946Y0060099D01*
X0139171Y0058901D02*
X0138541Y0058901D01*
X0138965Y0061298D02*
X0141920Y0061298D01*
X0141920Y0062496D02*
X0139661Y0062496D01*
X0140158Y0063695D02*
X0141920Y0063695D01*
X0142085Y0064893D02*
X0140174Y0064893D01*
X0140137Y0066092D02*
X0141920Y0066092D01*
X0141920Y0067291D02*
X0139640Y0067291D01*
X0141346Y0068489D02*
X0141920Y0068489D01*
X0144964Y0072107D02*
X0146606Y0073749D01*
X0146606Y0072107D01*
X0144964Y0072107D01*
X0146140Y0073283D02*
X0146606Y0073283D01*
X0146285Y0067939D02*
X0146679Y0067545D01*
X0149238Y0067545D01*
X0146285Y0061246D02*
X0146285Y0057702D01*
X0142348Y0057702D01*
X0146285Y0057702D02*
X0146285Y0054159D01*
X0136443Y0073450D02*
X0138411Y0075419D01*
X0138411Y0079946D01*
X0134512Y0083293D02*
X0134474Y0083331D01*
X0134436Y0083293D01*
X0134474Y0083255D01*
X0134512Y0083293D01*
X0046706Y0055687D02*
X0045756Y0055293D01*
X0046150Y0055687D01*
X0046706Y0055687D01*
X0045786Y0055305D02*
X0045769Y0055305D01*
X0015494Y0050511D02*
X0006200Y0050511D01*
X0006200Y0049313D02*
X0014520Y0049313D01*
X0013334Y0048114D02*
X0006200Y0048114D01*
X0006200Y0046916D02*
X0012837Y0046916D01*
X0012475Y0045717D02*
X0006200Y0045717D01*
X0006200Y0044519D02*
X0012475Y0044519D01*
X0012662Y0043320D02*
X0006200Y0043320D01*
X0006200Y0042122D02*
X0013159Y0042122D01*
X0014098Y0040923D02*
X0006200Y0040923D01*
X0006200Y0039725D02*
X0015006Y0039725D01*
X0013772Y0038526D02*
X0006200Y0038526D01*
X0006200Y0037328D02*
X0013024Y0037328D01*
X0012528Y0036129D02*
X0006200Y0036129D01*
X0006200Y0034931D02*
X0012475Y0034931D01*
X0012476Y0033732D02*
X0006200Y0033732D01*
X0006200Y0032534D02*
X0012972Y0032534D01*
X0013646Y0031335D02*
X0006200Y0031335D01*
X0006200Y0030137D02*
X0014845Y0030137D01*
X0009686Y0021747D02*
X0006200Y0021747D01*
X0006200Y0020549D02*
X0006952Y0020549D01*
X0006200Y0051710D02*
X0014165Y0051710D01*
X0013449Y0052908D02*
X0006200Y0052908D01*
X0006200Y0054107D02*
X0013132Y0054107D01*
X0013081Y0055305D02*
X0006200Y0055305D01*
X0006200Y0056504D02*
X0013344Y0056504D01*
X0013930Y0057702D02*
X0006200Y0057702D01*
X0006200Y0058901D02*
X0015049Y0058901D01*
X0014882Y0060099D02*
X0006200Y0060099D01*
X0006200Y0061298D02*
X0013684Y0061298D01*
X0012964Y0062496D02*
X0006200Y0062496D01*
X0006200Y0063695D02*
X0012468Y0063695D01*
X0012435Y0064893D02*
X0006200Y0064893D01*
X0006200Y0066092D02*
X0012457Y0066092D01*
X0012953Y0067291D02*
X0006200Y0067291D01*
X0006200Y0068489D02*
X0013656Y0068489D01*
X0014855Y0069688D02*
X0006200Y0069688D01*
X0006200Y0070886D02*
X0015135Y0070886D01*
X0015135Y0072085D02*
X0006200Y0072085D01*
X0006200Y0073283D02*
X0015135Y0073283D01*
X0015135Y0074482D02*
X0006200Y0074482D01*
X0006200Y0075680D02*
X0015135Y0075680D01*
X0015135Y0076879D02*
X0006200Y0076879D01*
X0006200Y0078077D02*
X0015135Y0078077D01*
X0015135Y0079276D02*
X0006200Y0079276D01*
X0006200Y0080474D02*
X0015135Y0080474D01*
X0015135Y0081673D02*
X0006200Y0081673D01*
X0006200Y0082871D02*
X0015135Y0082871D01*
X0015135Y0084070D02*
X0006200Y0084070D01*
X0006200Y0085268D02*
X0015135Y0085268D01*
X0015135Y0086467D02*
X0006200Y0086467D01*
X0006200Y0087665D02*
X0015135Y0087665D01*
X0015135Y0088864D02*
X0006200Y0088864D01*
X0006200Y0090062D02*
X0015135Y0090062D01*
X0015551Y0091261D02*
X0006200Y0091261D01*
X0006200Y0092459D02*
X0016691Y0092459D01*
X0017890Y0093658D02*
X0006200Y0093658D01*
X0006200Y0094856D02*
X0019088Y0094856D01*
X0020287Y0096055D02*
X0006200Y0096055D01*
X0006200Y0097253D02*
X0021485Y0097253D01*
X0032898Y0108040D02*
X0033051Y0108040D01*
D21*
X0061639Y0109868D03*
X0105931Y0109868D03*
X0126561Y0120662D03*
X0134474Y0133490D03*
X0145313Y0134486D03*
X0148254Y0104946D03*
X0141364Y0101994D03*
X0129553Y0104946D03*
X0149238Y0067545D03*
X0142348Y0057702D03*
X0142348Y0047860D03*
X0039986Y0053765D03*
M02*
